<?xml version="1.0" encoding="utf-8"?>
<!-- Generator: Adobe Illustrator 24.3.0, SVG Export Plug-In . SVG Version: 6.00 Build 0)  -->
<svg version="1.1" id="Layer_1" xmlns="http://www.w3.org/2000/svg" xmlns:xlink="http://www.w3.org/1999/xlink" x="0px" y="0px"
	 viewBox="0 0 150 150" style="enable-background:new 0 0 150 150;" xml:space="preserve">
<style type="text/css">
	.st0{fill:none;}
	.st1{fill:#DEF4FC;}
	.st2{fill:none;stroke:#C8DFF5;stroke-width:1.1862;stroke-miterlimit:2.9656;}
	.st3{fill:#FFFFFF;}
	.st4{fill:#E9F6FF;}
	.st5{fill:#AFD8F9;}
	.st6{fill:#C8DFF5;}
	.st7{fill:none;stroke:#FFFFFF;stroke-width:1.1862;stroke-linecap:round;stroke-linejoin:round;stroke-miterlimit:1.1862;}
	.st8{fill:none;stroke:#2481D7;stroke-width:2.3725;stroke-linecap:round;stroke-linejoin:round;stroke-miterlimit:1.1862;}
	.st9{fill:none;stroke:#2481D7;stroke-width:1.7794;stroke-linecap:round;stroke-linejoin:round;stroke-miterlimit:1.1862;}
	.st10{fill:#5BA1E1;}
	.st11{fill:#288DE8;}
	.st12{fill:none;stroke:#2481D7;stroke-width:1.1862;stroke-linecap:round;stroke-linejoin:round;stroke-miterlimit:1.1862;}
	.st13{fill:#2481D7;stroke:#2481D7;stroke-width:1.1862;stroke-linecap:round;stroke-linejoin:round;stroke-miterlimit:1.1862;}
	.st14{fill:#DEF4FC;stroke:#C8DFF5;stroke-width:1.1862;stroke-miterlimit:2.9656;}
	.st15{fill:none;stroke:#FFFFFF;stroke-width:1.1862;stroke-miterlimit:2.9656;}
</style>
<rect x="-15" y="-15" class="st0" width="180" height="180"/>
<rect x="-15" y="-15" class="st0" width="180" height="180"/>
<rect x="-15" y="-15" class="st0" width="180" height="180"/>
<path class="st1" d="M75,148.5c-0.7,0-1.4-0.1-2.1-0.2c-0.7-0.1-1.4-0.3-2-0.6c-0.6-0.3-1.3-0.6-1.8-1c-0.6-0.4-1.1-0.8-1.6-1.3
	c-0.5-0.5-0.9-1-1.3-1.6c-0.4-0.6-0.7-1.2-1-1.8c-0.3-0.6-0.5-1.3-0.6-2c-0.1-0.7-0.2-1.4-0.2-2.1c0-0.7,0.1-1.4,0.2-2.1
	c0.1-0.7,0.3-1.4,0.6-2c0.3-0.6,0.6-1.3,1-1.8c0.4-0.6,0.8-1.1,1.3-1.6c0.5-0.5,1-0.9,1.6-1.3c0.6-0.4,1.2-0.7,1.8-1
	c0.6-0.3,1.3-0.5,2-0.6c0.7-0.1,1.4-0.2,2.1-0.2s1.4,0.1,2.1,0.2c0.7,0.1,1.3,0.3,2,0.6c0.6,0.3,1.3,0.6,1.8,1
	c0.6,0.4,1.1,0.8,1.6,1.3c0.5,0.5,0.9,1,1.3,1.6c0.4,0.6,0.7,1.2,1,1.8c0.3,0.6,0.5,1.3,0.6,2c0.1,0.7,0.2,1.4,0.2,2.1
	c0,0.7-0.1,1.4-0.2,2.1c-0.1,0.7-0.3,1.4-0.6,2c-0.3,0.6-0.6,1.3-1,1.8c-0.4,0.6-0.8,1.1-1.3,1.6c-0.5,0.5-1,0.9-1.6,1.3
	c-0.6,0.4-1.2,0.7-1.8,1c-0.6,0.3-1.3,0.5-2,0.6C76.4,148.5,75.7,148.5,75,148.5z"/>
<path class="st1" d="M75,22.6c-1.7,0-3.4,0.1-5.1,0.2c-1.7,0.2-3.4,0.4-5.1,0.8c-1.7,0.3-3.3,0.8-5,1.2s-3.3,1.1-4.8,1.7
	c-1.6,0.7-3.1,1.4-4.7,2.2c-1.5,0.8-3,1.7-4.4,2.6c-1.4,1-2.8,2-4.1,3.1c-1.3,1.1-2.6,2.2-3.8,3.5s-2.4,2.5-3.5,3.8
	s-2.1,2.7-3.1,4.1s-1.8,2.9-2.6,4.4c-0.8,1.5-1.5,3.1-2.2,4.7c-0.7,1.6-1.2,3.2-1.7,4.8c-0.5,1.6-0.9,3.3-1.2,5
	c-0.3,1.7-0.6,3.4-0.8,5.1c-0.2,1.7-0.2,3.4-0.2,5.1H75V22.6z"/>
<path class="st1" d="M75,127.4c1.7,0,3.4-0.1,5.1-0.2c1.7-0.2,3.4-0.4,5.1-0.8c1.7-0.3,3.3-0.8,5-1.2c1.6-0.5,3.3-1.1,4.8-1.7
	s3.1-1.4,4.7-2.2c1.5-0.8,3-1.7,4.4-2.6c1.4-1,2.8-2,4.1-3.1s2.6-2.2,3.8-3.5c1.2-1.2,2.4-2.5,3.5-3.8s2.1-2.7,3.1-4.1
	c1-1.4,1.8-2.9,2.6-4.4c0.8-1.5,1.5-3.1,2.2-4.7s1.2-3.2,1.7-4.8c0.5-1.6,0.9-3.3,1.2-5c0.3-1.7,0.6-3.4,0.8-5.1
	c0.2-1.7,0.2-3.4,0.2-5.1H75V127.4z"/>
<path class="st2" d="M23.1,75c0,1.7,0.1,3.4,0.3,5.1c0.2,1.7,0.4,3.4,0.7,5c0.3,1.7,0.7,3.3,1.2,4.9c0.5,1.6,1.1,3.2,1.7,4.8
	c0.7,1.6,1.4,3.1,2.2,4.6s1.7,3,2.6,4.4c0.9,1.4,2,2.8,3,4.1c1.1,1.3,2.2,2.6,3.4,3.8c1.2,1.2,2.5,2.3,3.8,3.4
	c1.3,1.1,2.7,2.1,4.1,3c1.4,0.9,2.9,1.8,4.4,2.6c1.5,0.8,3,1.5,4.6,2.2c1.6,0.7,3.2,1.2,4.8,1.7c1.6,0.5,3.3,0.9,4.9,1.2
	c1.7,0.3,3.3,0.6,5,0.7c1.7,0.2,3.4,0.2,5.1,0.2"/>
<path class="st2" d="M126.9,75c0-1.7-0.1-3.4-0.2-5.1c-0.2-1.7-0.4-3.4-0.7-5c-0.3-1.7-0.7-3.3-1.2-4.9c-0.5-1.6-1.1-3.2-1.7-4.8
	c-0.7-1.6-1.4-3.1-2.2-4.6c-0.8-1.5-1.7-3-2.6-4.4s-2-2.8-3-4.1s-2.2-2.6-3.4-3.8c-1.2-1.2-2.5-2.3-3.8-3.4c-1.3-1.1-2.7-2.1-4.1-3
	s-2.9-1.8-4.4-2.6c-1.5-0.8-3-1.5-4.6-2.2c-1.6-0.6-3.2-1.2-4.8-1.7c-1.6-0.5-3.3-0.9-4.9-1.2c-1.7-0.3-3.3-0.6-5-0.7
	c-1.7-0.2-3.4-0.2-5.1-0.2"/>
<path class="st3" d="M104.9,104.9c-1,1-2,1.9-3.1,2.8s-2.2,1.7-3.3,2.5c-1.2,0.8-2.3,1.5-3.6,2.1c-1.2,0.7-2.5,1.2-3.7,1.8
	c-1.3,0.5-2.6,1-3.9,1.4c-1.3,0.4-2.7,0.7-4,1c-1.4,0.3-2.7,0.5-4.1,0.6c-1.4,0.1-2.8,0.2-4.1,0.2s-2.8-0.1-4.1-0.2
	c-1.4-0.1-2.7-0.3-4.1-0.6c-1.4-0.3-2.7-0.6-4-1c-1.3-0.4-2.6-0.9-3.9-1.4c-1.3-0.5-2.5-1.1-3.8-1.8c-1.2-0.7-2.4-1.4-3.6-2.1
	c-1.1-0.8-2.3-1.6-3.3-2.5s-2.1-1.8-3.1-2.8c-1-1-1.9-2-2.8-3.1c-0.9-1.1-1.7-2.2-2.5-3.3s-1.5-2.3-2.1-3.6
	c-0.7-1.2-1.2-2.5-1.8-3.8c-0.5-1.3-1-2.6-1.4-3.9c-0.4-1.3-0.7-2.7-1-4c-0.3-1.4-0.5-2.7-0.6-4.1c-0.1-1.4-0.2-2.8-0.2-4.1
	c0-1.4,0.1-2.8,0.2-4.1c0.1-1.4,0.3-2.7,0.6-4.1c0.3-1.4,0.6-2.7,1-4c0.4-1.3,0.9-2.6,1.4-3.9c0.5-1.3,1.1-2.5,1.8-3.8
	c0.7-1.2,1.4-2.4,2.1-3.6c0.8-1.2,1.6-2.3,2.5-3.3c0.9-1.1,1.8-2.1,2.8-3.1c1-1,2-1.9,3.1-2.8c1.1-0.9,2.2-1.7,3.3-2.5
	c1.2-0.8,2.3-1.5,3.6-2.1c1.2-0.7,2.5-1.2,3.8-1.8c1.3-0.5,2.6-1,3.9-1.4s2.7-0.7,4-1c1.4-0.3,2.7-0.5,4.1-0.6
	c1.4-0.1,2.8-0.2,4.1-0.2s2.8,0.1,4.1,0.2c1.4,0.1,2.7,0.3,4.1,0.6c1.4,0.3,2.7,0.6,4,1s2.6,0.9,3.9,1.4c1.3,0.5,2.5,1.1,3.7,1.8
	c1.2,0.7,2.4,1.4,3.6,2.1c1.1,0.8,2.3,1.6,3.3,2.5s2.1,1.8,3.1,2.8c1,1,1.9,2,2.8,3.1c0.9,1.1,1.7,2.2,2.5,3.3s1.5,2.3,2.1,3.6
	c0.7,1.2,1.2,2.5,1.8,3.8c0.5,1.3,1,2.6,1.4,3.9c0.4,1.3,0.7,2.7,1,4c0.3,1.4,0.5,2.7,0.6,4.1c0.1,1.4,0.2,2.8,0.2,4.1
	c0,1.4-0.1,2.8-0.2,4.1c-0.1,1.4-0.3,2.7-0.6,4.1c-0.3,1.4-0.6,2.7-1,4c-0.4,1.3-0.9,2.6-1.4,3.9c-0.5,1.3-1.1,2.5-1.8,3.7
	c-0.7,1.2-1.4,2.4-2.1,3.6c-0.8,1.1-1.6,2.3-2.5,3.3C106.8,102.9,105.9,103.9,104.9,104.9z"/>
<path class="st4" d="M45.1,45.1c-1,1-1.9,2-2.8,3.1c-0.9,1.1-1.7,2.2-2.5,3.3s-1.5,2.3-2.1,3.6c-0.7,1.2-1.2,2.5-1.8,3.8
	c-0.5,1.3-1,2.6-1.4,3.9c-0.4,1.3-0.7,2.7-1,4c-0.3,1.4-0.5,2.7-0.6,4.1c-0.1,1.4-0.2,2.8-0.2,4.1c0,1.4,0.1,2.8,0.2,4.1
	c0.1,1.4,0.3,2.7,0.6,4.1c0.3,1.4,0.6,2.7,1,4c0.4,1.3,0.9,2.6,1.4,3.9c0.5,1.3,1.1,2.5,1.8,3.7c0.7,1.2,1.4,2.4,2.1,3.6
	c0.8,1.1,1.6,2.3,2.5,3.3c0.9,1.1,1.8,2.1,2.8,3.1l59.8-59.8c-1-1-2-1.9-3.1-2.8c-1.1-0.9-2.2-1.7-3.3-2.5c-1.2-0.8-2.3-1.5-3.6-2.1
	c-1.2-0.7-2.5-1.2-3.7-1.8c-1.3-0.5-2.6-1-3.9-1.4s-2.7-0.7-4-1c-1.4-0.3-2.7-0.5-4.1-0.6c-1.4-0.1-2.8-0.2-4.1-0.2
	s-2.8,0.1-4.1,0.2c-1.4,0.1-2.7,0.3-4.1,0.6c-1.4,0.3-2.7,0.6-4,1s-2.6,0.9-3.9,1.4c-1.3,0.5-2.5,1.1-3.7,1.8
	c-1.2,0.7-2.4,1.4-3.6,2.1c-1.1,0.8-2.3,1.6-3.3,2.5C47.1,43.2,46.1,44.1,45.1,45.1z"/>
<path class="st5" d="M75,108.8c-1.1,0-2.2-0.1-3.3-0.2c-1.1-0.1-2.2-0.3-3.3-0.5c-1.1-0.2-2.2-0.5-3.2-0.8c-1.1-0.3-2.1-0.7-3.1-1.1
	c-1-0.4-2-0.9-3-1.4c-1-0.5-1.9-1.1-2.8-1.7c-0.9-0.6-1.8-1.3-2.7-2c-0.9-0.7-1.7-1.4-2.5-2.2c-0.8-0.8-1.5-1.6-2.2-2.5
	c-0.7-0.9-1.4-1.7-2-2.7c-0.6-0.9-1.2-1.9-1.7-2.8c-0.5-1-1-2-1.4-3c-0.4-1-0.8-2.1-1.1-3.1s-0.6-2.1-0.8-3.2
	c-0.2-1.1-0.4-2.2-0.5-3.3c-0.1-1.1-0.2-2.2-0.2-3.3s0.1-2.2,0.2-3.3c0.1-1.1,0.3-2.2,0.5-3.3c0.2-1.1,0.5-2.2,0.8-3.2
	s0.7-2.1,1.1-3.1c0.4-1,0.9-2,1.4-3c0.5-1,1.1-1.9,1.7-2.8c0.6-0.9,1.3-1.8,2-2.7s1.4-1.7,2.2-2.5c0.8-0.8,1.6-1.5,2.5-2.2
	c0.9-0.7,1.7-1.4,2.7-2c0.9-0.6,1.9-1.2,2.8-1.7c1-0.5,2-1,3-1.4c1-0.4,2.1-0.8,3.1-1.1c1.1-0.3,2.1-0.6,3.2-0.8
	c1.1-0.2,2.2-0.4,3.3-0.5s2.2-0.2,3.3-0.2s2.2,0.1,3.3,0.2c1.1,0.1,2.2,0.3,3.3,0.5c1.1,0.2,2.2,0.5,3.2,0.8
	c1.1,0.3,2.1,0.7,3.1,1.1c1,0.4,2,0.9,3,1.4c1,0.5,1.9,1.1,2.8,1.7c0.9,0.6,1.8,1.3,2.7,2c0.9,0.7,1.7,1.4,2.5,2.2
	c0.8,0.8,1.5,1.6,2.2,2.5c0.7,0.9,1.4,1.7,2,2.7c0.6,0.9,1.2,1.9,1.7,2.8c0.5,1,1,2,1.4,3c0.4,1,0.8,2.1,1.1,3.1
	c0.3,1.1,0.6,2.1,0.8,3.2c0.2,1.1,0.4,2.2,0.5,3.3c0.1,1.1,0.2,2.2,0.2,3.3s-0.1,2.2-0.2,3.3c-0.1,1.1-0.3,2.2-0.5,3.3
	c-0.2,1.1-0.5,2.2-0.8,3.2s-0.7,2.1-1.1,3.1c-0.4,1-0.9,2-1.4,3c-0.5,1-1.1,1.9-1.7,2.8c-0.6,0.9-1.3,1.8-2,2.7s-1.4,1.7-2.2,2.5
	c-0.8,0.8-1.6,1.5-2.5,2.2c-0.9,0.7-1.7,1.4-2.7,2c-0.9,0.6-1.9,1.2-2.8,1.7c-1,0.5-2,1-3,1.4c-1,0.4-2.1,0.8-3.1,1.1
	c-1.1,0.3-2.1,0.6-3.2,0.8c-1.1,0.2-2.2,0.4-3.3,0.5C77.2,108.7,76.1,108.8,75,108.8z"/>
<path class="st1" d="M41.2,75c0,1.1,0.1,2.2,0.2,3.3c0.1,1.1,0.3,2.2,0.5,3.3c0.2,1.1,0.5,2.2,0.8,3.2c0.3,1.1,0.7,2.1,1.1,3.1
	c0.4,1,0.9,2,1.4,3c0.5,1,1.1,1.9,1.7,2.8c0.6,0.9,1.3,1.8,2,2.7c0.7,0.9,1.4,1.7,2.2,2.5s1.6,1.5,2.5,2.2c0.9,0.7,1.7,1.4,2.7,2
	c0.9,0.6,1.9,1.2,2.8,1.7c1,0.5,2,1,3,1.4c1,0.4,2.1,0.8,3.1,1.1c1.1,0.3,2.1,0.6,3.2,0.8c1.1,0.2,2.2,0.4,3.3,0.5
	c1.1,0.1,2.2,0.2,3.3,0.2V75H41.2z"/>
<path class="st6" d="M51.1,51.1c0.8-0.8,1.6-1.5,2.5-2.1c0.9-0.7,1.7-1.3,2.7-1.9c0.9-0.6,1.9-1.1,2.8-1.6c1-0.5,2-0.9,3-1.3
	c1-0.4,2-0.8,3.1-1.1c1.1-0.3,2.1-0.6,3.2-0.8s2.2-0.3,3.2-0.4c1.1-0.1,2.2-0.1,3.3-0.1c1.1,0,2.2,0.1,3.3,0.2s2.2,0.3,3.2,0.5
	c1.1,0.2,2.1,0.5,3.2,0.8c1,0.3,2.1,0.7,3.1,1.1c1,0.4,2,0.9,2.9,1.4c1,0.5,1.9,1.1,2.8,1.7c0.9,0.6,1.8,1.3,2.6,2
	c0.8,0.7,1.6,1.4,2.4,2.2c0.8,0.8,1.5,1.6,2.2,2.4c0.7,0.8,1.3,1.7,2,2.6c0.6,0.9,1.2,1.8,1.7,2.8c0.5,1,1,1.9,1.4,2.9
	c0.4,1,0.8,2,1.1,3.1c0.3,1,0.6,2.1,0.8,3.2c0.2,1.1,0.4,2.1,0.5,3.2s0.2,2.2,0.2,3.3c0,1.1,0,2.2-0.1,3.3c-0.1,1.1-0.2,2.2-0.4,3.2
	s-0.4,2.1-0.8,3.2c-0.3,1-0.7,2.1-1.1,3.1c-0.4,1-0.9,2-1.3,3c-0.5,1-1,1.9-1.6,2.8c-0.6,0.9-1.2,1.8-1.9,2.7
	c-0.7,0.9-1.4,1.7-2.1,2.5"/>
<path class="st1" d="M108.8,75c0-1.1-0.1-2.2-0.2-3.3c-0.1-1.1-0.3-2.2-0.5-3.3c-0.2-1.1-0.5-2.2-0.8-3.2c-0.3-1.1-0.7-2.1-1.1-3.1
	c-0.4-1-0.9-2-1.4-3s-1.1-1.9-1.7-2.8c-0.6-0.9-1.3-1.8-2-2.7c-0.7-0.9-1.4-1.7-2.2-2.5s-1.6-1.5-2.5-2.2c-0.9-0.7-1.7-1.4-2.7-2
	c-0.9-0.6-1.9-1.2-2.8-1.7s-2-1-3-1.4c-1-0.4-2.1-0.8-3.1-1.1c-1.1-0.3-2.1-0.6-3.2-0.8c-1.1-0.2-2.2-0.4-3.3-0.5
	c-1.1-0.1-2.2-0.2-3.3-0.2V75H108.8z"/>
<path class="st7" d="M75,48.3v4.9"/>
<path class="st7" d="M75,55.8v0.5"/>
<path class="st7" d="M75,58.4V59"/>
<path class="st7" d="M75,61v0.5"/>
<path class="st7" d="M75,101.7v-4.9"/>
<path class="st7" d="M75,94.2v-0.5"/>
<path class="st7" d="M75,91.6V91"/>
<path class="st7" d="M75,89v-0.5"/>
<path class="st7" d="M93.9,56.1l-3.5,3.5"/>
<path class="st7" d="M88.5,61.5l-0.4,0.4"/>
<path class="st7" d="M86.7,63.3l-0.4,0.4"/>
<path class="st7" d="M84.9,65.1l-0.4,0.4"/>
<path class="st7" d="M56.1,93.9l3.5-3.5"/>
<path class="st7" d="M61.5,88.5l0.4-0.4"/>
<path class="st7" d="M63.3,86.7l0.4-0.4"/>
<path class="st7" d="M65.1,84.9l0.4-0.4"/>
<path class="st7" d="M101.7,75h-4.9"/>
<path class="st7" d="M94.2,75h-0.5"/>
<path class="st7" d="M91.6,75H91"/>
<path class="st7" d="M89,75h-0.5"/>
<path class="st7" d="M48.3,75h4.9"/>
<path class="st7" d="M55.8,75h0.5"/>
<path class="st7" d="M58.4,75H59"/>
<path class="st7" d="M61,75h0.5"/>
<path class="st7" d="M93.9,93.9l-3.5-3.5"/>
<path class="st7" d="M88.5,88.5l-0.4-0.4"/>
<path class="st7" d="M86.7,86.7l-0.4-0.4"/>
<path class="st7" d="M84.9,84.9l-0.4-0.4"/>
<path class="st7" d="M56.1,56.1l3.5,3.5"/>
<path class="st7" d="M61.5,61.5l0.4,0.4"/>
<path class="st7" d="M63.3,63.3l0.4,0.4"/>
<path class="st7" d="M65.1,65.1l0.4,0.4"/>
<path class="st7" d="M99.5,75c0,0.8,0,1.6-0.1,2.4c-0.1,0.8-0.2,1.6-0.4,2.4c-0.2,0.8-0.4,1.6-0.6,2.3c-0.2,0.8-0.5,1.5-0.8,2.3
	c-0.3,0.7-0.6,1.5-1,2.2c-0.4,0.7-0.8,1.4-1.2,2.1c-0.4,0.7-0.9,1.3-1.4,1.9c-0.5,0.6-1,1.2-1.6,1.8c-0.6,0.6-1.2,1.1-1.8,1.6
	c-0.6,0.5-1.3,1-1.9,1.4c-0.7,0.4-1.4,0.9-2.1,1.2c-0.7,0.4-1.4,0.7-2.2,1c-0.7,0.3-1.5,0.6-2.3,0.8c-0.8,0.2-1.5,0.4-2.3,0.6
	c-0.8,0.2-1.6,0.3-2.4,0.4c-0.8,0.1-1.6,0.1-2.4,0.1"/>
<path class="st7" d="M50.5,75c0-0.8,0-1.6,0.1-2.4c0.1-0.8,0.2-1.6,0.4-2.4c0.2-0.8,0.4-1.6,0.6-2.3c0.2-0.8,0.5-1.5,0.8-2.3
	c0.3-0.7,0.6-1.5,1-2.2c0.4-0.7,0.8-1.4,1.2-2.1c0.4-0.7,0.9-1.3,1.4-1.9c0.5-0.6,1-1.2,1.6-1.8c0.6-0.6,1.2-1.1,1.8-1.6
	c0.6-0.5,1.3-1,1.9-1.4c0.7-0.4,1.4-0.9,2.1-1.2c0.7-0.4,1.4-0.7,2.2-1c0.7-0.3,1.5-0.6,2.3-0.8c0.8-0.2,1.5-0.4,2.3-0.6
	c0.8-0.2,1.6-0.3,2.4-0.4c0.8-0.1,1.6-0.1,2.4-0.1"/>
<path class="st7" d="M75,86.1c-0.7,0-1.4-0.1-2.2-0.2c-0.7-0.1-1.4-0.4-2.1-0.6c-0.7-0.3-1.3-0.6-1.9-1c-0.6-0.4-1.2-0.9-1.7-1.4
	c-0.5-0.5-1-1.1-1.4-1.7c-0.4-0.6-0.7-1.2-1-1.9c-0.3-0.7-0.5-1.4-0.6-2.1c-0.1-0.7-0.2-1.4-0.2-2.2"/>
<path class="st7" d="M75,63.9c0.7,0,1.4,0.1,2.2,0.2c0.7,0.1,1.4,0.4,2.1,0.6s1.3,0.6,1.9,1s1.2,0.9,1.7,1.4c0.5,0.5,1,1.1,1.4,1.7
	s0.7,1.2,1,1.9c0.3,0.7,0.5,1.4,0.6,2.1c0.1,0.7,0.2,1.4,0.2,2.2"/>
<path class="st8" d="M104.9,104.9c-1,1-2,1.9-3.1,2.8c-1.1,0.9-2.2,1.7-3.3,2.5c-1.2,0.8-2.3,1.5-3.6,2.1c-1.2,0.7-2.5,1.2-3.7,1.8
	c-1.3,0.5-2.6,1-3.9,1.4c-1.3,0.4-2.7,0.7-4,1c-1.4,0.3-2.7,0.5-4.1,0.6c-1.4,0.1-2.8,0.2-4.1,0.2s-2.8-0.1-4.1-0.2
	c-1.4-0.1-2.7-0.3-4.1-0.6c-1.4-0.3-2.7-0.6-4-1c-1.3-0.4-2.6-0.9-3.9-1.4c-1.3-0.5-2.5-1.1-3.8-1.8c-1.2-0.7-2.4-1.4-3.6-2.1
	c-1.1-0.8-2.3-1.6-3.3-2.5c-1.1-0.9-2.1-1.8-3.1-2.8c-1-1-1.9-2-2.8-3.1c-0.9-1.1-1.7-2.2-2.5-3.3c-0.8-1.2-1.5-2.3-2.1-3.6
	c-0.7-1.2-1.2-2.5-1.8-3.7c-0.5-1.3-1-2.6-1.4-3.9c-0.4-1.3-0.7-2.7-1-4c-0.3-1.4-0.5-2.7-0.6-4.1c-0.1-1.4-0.2-2.8-0.2-4.1
	c0-1.4,0.1-2.8,0.2-4.1c0.1-1.4,0.3-2.7,0.6-4.1c0.3-1.4,0.6-2.7,1-4c0.4-1.3,0.9-2.6,1.4-3.9c0.5-1.3,1.1-2.5,1.8-3.8
	c0.7-1.2,1.4-2.4,2.1-3.6c0.8-1.2,1.6-2.3,2.5-3.3c0.9-1.1,1.8-2.1,2.8-3.1c1-1,2-1.9,3.1-2.8c1.1-0.9,2.2-1.7,3.3-2.5
	c1.2-0.8,2.3-1.5,3.6-2.1c1.2-0.7,2.5-1.2,3.8-1.8c1.3-0.5,2.6-1,3.9-1.4c1.3-0.4,2.7-0.7,4-1c1.4-0.3,2.7-0.5,4.1-0.6
	c1.4-0.1,2.8-0.2,4.1-0.2s2.8,0.1,4.1,0.2c1.4,0.1,2.7,0.3,4.1,0.6c1.4,0.3,2.7,0.6,4,1c1.3,0.4,2.6,0.9,3.9,1.4
	c1.3,0.5,2.5,1.1,3.7,1.8c1.2,0.7,2.4,1.4,3.6,2.1c1.1,0.8,2.3,1.6,3.3,2.5c1.1,0.9,2.1,1.8,3.1,2.8c1,1,1.9,2,2.8,3.1
	c0.9,1.1,1.7,2.2,2.5,3.3c0.8,1.2,1.5,2.3,2.1,3.6c0.7,1.2,1.2,2.5,1.8,3.8c0.5,1.3,1,2.6,1.4,3.9c0.4,1.3,0.7,2.7,1,4
	c0.3,1.4,0.5,2.7,0.6,4.1c0.1,1.4,0.2,2.8,0.2,4.1c0,1.4-0.1,2.8-0.2,4.1c-0.1,1.4-0.3,2.7-0.6,4.1c-0.3,1.4-0.6,2.7-1,4
	c-0.4,1.3-0.9,2.6-1.4,3.9c-0.5,1.3-1.1,2.5-1.8,3.7c-0.7,1.2-1.4,2.4-2.1,3.6c-0.8,1.1-1.6,2.3-2.5,3.3
	C106.8,102.9,105.9,103.9,104.9,104.9z"/>
<path class="st9" d="M98.9,98.9c-0.8,0.8-1.6,1.5-2.5,2.2c-0.9,0.7-1.7,1.4-2.7,2c-0.9,0.6-1.9,1.2-2.8,1.7c-1,0.5-2,1-3,1.4
	c-1,0.4-2.1,0.8-3.1,1.1c-1.1,0.3-2.1,0.6-3.2,0.8c-1.1,0.2-2.2,0.4-3.3,0.5c-1.1,0.1-2.2,0.2-3.3,0.2c-1.1,0-2.2-0.1-3.3-0.2
	c-1.1-0.1-2.2-0.3-3.3-0.5c-1.1-0.2-2.2-0.5-3.2-0.8c-1.1-0.3-2.1-0.7-3.1-1.1c-1-0.4-2-0.9-3-1.4c-1-0.5-1.9-1.1-2.8-1.7
	c-0.9-0.6-1.8-1.3-2.7-2c-0.9-0.7-1.7-1.4-2.5-2.2c-0.8-0.8-1.5-1.6-2.2-2.5c-0.7-0.9-1.4-1.7-2-2.7c-0.6-0.9-1.2-1.9-1.7-2.8
	c-0.5-1-1-2-1.4-3s-0.8-2.1-1.1-3.1s-0.6-2.1-0.8-3.2c-0.2-1.1-0.4-2.2-0.5-3.3c-0.1-1.1-0.2-2.2-0.2-3.3c0-1.1,0.1-2.2,0.2-3.3
	c0.1-1.1,0.3-2.2,0.5-3.3s0.5-2.2,0.8-3.2s0.7-2.1,1.1-3.1c0.4-1,0.9-2,1.4-3c0.5-1,1.1-1.9,1.7-2.8c0.6-0.9,1.3-1.8,2-2.7
	c0.7-0.9,1.4-1.7,2.2-2.5c0.8-0.8,1.6-1.5,2.5-2.2c0.9-0.7,1.7-1.4,2.7-2c0.9-0.6,1.9-1.2,2.8-1.7c1-0.5,2-1,3-1.4
	c1-0.4,2.1-0.8,3.1-1.1c1.1-0.3,2.1-0.6,3.2-0.8c1.1-0.2,2.2-0.4,3.3-0.5c1.1-0.1,2.2-0.2,3.3-0.2c1.1,0,2.2,0.1,3.3,0.2
	c1.1,0.1,2.2,0.3,3.3,0.5c1.1,0.2,2.2,0.5,3.2,0.8c1.1,0.3,2.1,0.7,3.1,1.1c1,0.4,2,0.9,3,1.4c1,0.5,1.9,1.1,2.8,1.7
	c0.9,0.6,1.8,1.3,2.7,2c0.9,0.7,1.7,1.4,2.5,2.2c0.8,0.8,1.5,1.6,2.2,2.5c0.7,0.9,1.4,1.7,2,2.7c0.6,0.9,1.2,1.9,1.7,2.8
	c0.5,1,1,2,1.4,3c0.4,1,0.8,2.1,1.1,3.1s0.6,2.1,0.8,3.2c0.2,1.1,0.4,2.2,0.5,3.3c0.1,1.1,0.2,2.2,0.2,3.3c0,1.1-0.1,2.2-0.2,3.3
	c-0.1,1.1-0.3,2.2-0.5,3.3c-0.2,1.1-0.5,2.2-0.8,3.2s-0.7,2.1-1.1,3.1c-0.4,1-0.9,2-1.4,3c-0.5,1-1.1,1.9-1.7,2.8
	c-0.6,0.9-1.3,1.8-2,2.7C100.4,97.3,99.7,98.1,98.9,98.9z"/>
<path class="st10" d="M18.7,138.9l-7.6-7.6l20.6-20.7l7.6,7.6L18.7,138.9z"/>
<path class="st11" d="M16.5,136.7l-3.2-3.2L34,112.8l3.2,3.2L16.5,136.7z"/>
<path class="st8" d="M18.7,138.9l-7.6-7.6l20.6-20.7l7.6,7.6L18.7,138.9z"/>
<path class="st12" d="M29.4,113l7.6,7.6"/>
<path class="st12" d="M27.2,115.3l7.6,7.6"/>
<path class="st12" d="M24.9,117.5l7.6,7.6"/>
<path class="st12" d="M22.6,119.8l7.6,7.6"/>
<path class="st12" d="M20.3,122.1l7.6,7.6"/>
<path class="st12" d="M18.1,124.3l7.6,7.6"/>
<path class="st12" d="M15.8,126.6l7.6,7.6"/>
<path class="st12" d="M13.5,128.9l7.6,7.6"/>
<path class="st1" d="M43,102.8l-9.6,9.6l4.2,4.2l9.6-9.6L43,102.8z"/>
<path class="st6" d="M43,102.8l-4.7,4.7l4.2,4.2l4.7-4.7L43,102.8z"/>
<path class="st9" d="M43,102.8l-9.6,9.6l4.3,4.2l9.6-9.6L43,102.8z"/>
<path class="st5" d="M75,63c-7.4,0-13.8,5.5-17,13.5c3.2,8,9.6,13.5,17,13.5s13.8-5.5,17-13.5C88.8,68.5,82.4,63,75,63z"/>
<path class="st3" d="M75,64.6c-0.9,0-1.7,0.1-2.6,0.2s-1.7,0.3-2.6,0.5c-0.8,0.2-1.7,0.5-2.5,0.9c-0.8,0.4-1.6,0.8-2.3,1.2
	s-1.5,1-2.1,1.5c-0.7,0.6-1.3,1.2-1.9,1.8c-0.6,0.6-1.1,1.3-1.6,2c-0.5,0.7-1,1.5-1.3,2.2c0.4,0.8,0.8,1.5,1.3,2.2
	c0.5,0.7,1,1.4,1.6,2c0.6,0.6,1.2,1.2,1.9,1.8c0.7,0.6,1.4,1.1,2.1,1.5s1.5,0.9,2.3,1.2c0.8,0.4,1.6,0.6,2.5,0.9s1.7,0.4,2.6,0.5
	c0.9,0.1,1.7,0.2,2.6,0.2s1.7-0.1,2.6-0.2c0.9-0.1,1.7-0.3,2.6-0.5s1.7-0.5,2.5-0.9c0.8-0.4,1.6-0.8,2.3-1.2s1.5-1,2.1-1.5
	c0.7-0.6,1.3-1.2,1.9-1.8c0.6-0.6,1.1-1.3,1.6-2c0.5-0.7,1-1.5,1.3-2.2c-0.4-0.8-0.8-1.5-1.3-2.2c-0.5-0.7-1-1.4-1.6-2
	c-0.6-0.6-1.2-1.2-1.9-1.8c-0.7-0.6-1.4-1.1-2.1-1.5s-1.5-0.9-2.3-1.2c-0.8-0.4-1.6-0.6-2.5-0.9s-1.7-0.4-2.6-0.5
	C76.7,64.6,75.9,64.6,75,64.6z"/>
<path class="st4" d="M92,75c-0.4-0.8-0.8-1.5-1.3-2.2c-0.5-0.7-1-1.4-1.6-2c-0.6-0.6-1.2-1.2-1.9-1.8c-0.7-0.6-1.4-1.1-2.1-1.5
	s-1.5-0.9-2.3-1.2c-0.8-0.4-1.6-0.6-2.5-0.9s-1.7-0.4-2.6-0.5c-0.9-0.1-1.7-0.2-2.6-0.2s-1.7,0.1-2.6,0.2c-0.9,0.1-1.7,0.3-2.6,0.5
	s-1.7,0.5-2.5,0.9c-0.8,0.4-1.6,0.8-2.3,1.2s-1.5,1-2.1,1.5c-0.7,0.6-1.3,1.2-1.9,1.8c-0.6,0.6-1.1,1.3-1.6,2
	c-0.5,0.7-1,1.5-1.3,2.2"/>
<path class="st9" d="M75,64.6c-0.9,0-1.7,0.1-2.6,0.2s-1.7,0.3-2.6,0.5c-0.8,0.2-1.7,0.5-2.5,0.9c-0.8,0.4-1.6,0.8-2.3,1.2
	s-1.5,1-2.1,1.5c-0.7,0.6-1.3,1.2-1.9,1.8c-0.6,0.6-1.1,1.3-1.6,2c-0.5,0.7-1,1.5-1.3,2.2c0.4,0.8,0.8,1.5,1.3,2.2
	c0.5,0.7,1,1.4,1.6,2c0.6,0.6,1.2,1.2,1.9,1.8c0.7,0.6,1.4,1.1,2.1,1.5s1.5,0.9,2.3,1.2c0.8,0.4,1.6,0.6,2.5,0.9
	c0.8,0.2,1.7,0.4,2.6,0.5c0.9,0.1,1.7,0.2,2.6,0.2c0.9,0,1.7-0.1,2.6-0.2c0.9-0.1,1.7-0.3,2.6-0.5c0.8-0.2,1.7-0.5,2.5-0.9
	c0.8-0.4,1.6-0.8,2.3-1.2c0.7-0.5,1.5-1,2.1-1.5c0.7-0.6,1.3-1.2,1.9-1.8c0.6-0.6,1.1-1.3,1.6-2c0.5-0.7,1-1.5,1.3-2.2
	c-0.4-0.8-0.8-1.5-1.3-2.2c-0.5-0.7-1-1.4-1.6-2c-0.6-0.6-1.2-1.2-1.9-1.8c-0.7-0.6-1.4-1.1-2.1-1.5c-0.7-0.5-1.5-0.9-2.3-1.2
	c-0.8-0.4-1.6-0.6-2.5-0.9c-0.8-0.2-1.7-0.4-2.6-0.5C76.7,64.6,75.9,64.6,75,64.6z"/>
<path class="st5" d="M81.2,75c0,0.4,0,0.8-0.1,1.2c-0.1,0.4-0.2,0.8-0.4,1.2c-0.2,0.4-0.3,0.7-0.6,1.1c-0.2,0.3-0.5,0.6-0.8,0.9
	c-0.3,0.3-0.6,0.5-0.9,0.8c-0.3,0.2-0.7,0.4-1.1,0.6c-0.4,0.2-0.8,0.3-1.2,0.4c-0.4,0.1-0.8,0.1-1.2,0.1s-0.8,0-1.2-0.1
	c-0.4-0.1-0.8-0.2-1.2-0.4c-0.4-0.2-0.7-0.3-1.1-0.6c-0.3-0.2-0.6-0.5-0.9-0.8c-0.3-0.3-0.5-0.6-0.8-0.9c-0.2-0.3-0.4-0.7-0.6-1.1
	c-0.2-0.4-0.3-0.8-0.4-1.2c-0.1-0.4-0.1-0.8-0.1-1.2s0-0.8,0.1-1.2c0.1-0.4,0.2-0.8,0.4-1.2c0.2-0.4,0.3-0.7,0.6-1.1
	c0.2-0.3,0.5-0.6,0.8-0.9c0.3-0.3,0.6-0.5,0.9-0.8c0.3-0.2,0.7-0.4,1.1-0.6c0.4-0.2,0.8-0.3,1.2-0.4c0.4-0.1,0.8-0.1,1.2-0.1
	s0.8,0,1.2,0.1c0.4,0.1,0.8,0.2,1.2,0.4c0.4,0.2,0.7,0.3,1.1,0.6c0.3,0.2,0.6,0.5,0.9,0.8c0.3,0.3,0.5,0.6,0.8,0.9
	c0.2,0.3,0.4,0.7,0.6,1.1c0.2,0.4,0.3,0.8,0.4,1.2C81.1,74.2,81.2,74.6,81.2,75z"/>
<path class="st10" d="M75,68.8c-0.4,0-0.8,0-1.2,0.1c-0.4,0.1-0.8,0.2-1.2,0.4c-0.4,0.2-0.7,0.3-1.1,0.6c-0.3,0.2-0.6,0.5-0.9,0.8
	c-0.3,0.3-0.5,0.6-0.8,0.9c-0.2,0.3-0.4,0.7-0.6,1.1c-0.2,0.4-0.3,0.8-0.4,1.2c-0.1,0.4-0.1,0.8-0.1,1.2h12.4c0-0.4,0-0.8-0.1-1.2
	c-0.1-0.4-0.2-0.8-0.4-1.2c-0.2-0.4-0.3-0.7-0.6-1.1c-0.2-0.3-0.5-0.6-0.8-0.9c-0.3-0.3-0.6-0.5-0.9-0.8c-0.3-0.2-0.7-0.4-1.1-0.6
	c-0.4-0.2-0.8-0.3-1.2-0.4C75.8,68.9,75.4,68.8,75,68.8z"/>
<path class="st9" d="M81.2,75c0,0.4,0,0.8-0.1,1.2c-0.1,0.4-0.2,0.8-0.4,1.2c-0.2,0.4-0.3,0.7-0.6,1.1c-0.2,0.3-0.5,0.6-0.8,0.9
	c-0.3,0.3-0.6,0.5-0.9,0.8c-0.3,0.2-0.7,0.4-1.1,0.6c-0.4,0.2-0.8,0.3-1.2,0.4c-0.4,0.1-0.8,0.1-1.2,0.1s-0.8,0-1.2-0.1
	c-0.4-0.1-0.8-0.2-1.2-0.4c-0.4-0.2-0.7-0.3-1.1-0.6c-0.3-0.2-0.6-0.5-0.9-0.8c-0.3-0.3-0.5-0.6-0.8-0.9c-0.2-0.3-0.4-0.7-0.6-1.1
	c-0.2-0.4-0.3-0.8-0.4-1.2c-0.1-0.4-0.1-0.8-0.1-1.2s0-0.8,0.1-1.2c0.1-0.4,0.2-0.8,0.4-1.2c0.2-0.4,0.3-0.7,0.6-1.1
	c0.2-0.3,0.5-0.6,0.8-0.9c0.3-0.3,0.6-0.5,0.9-0.8c0.3-0.2,0.7-0.4,1.1-0.6c0.4-0.2,0.8-0.3,1.2-0.4c0.4-0.1,0.8-0.1,1.2-0.1
	s0.8,0,1.2,0.1c0.4,0.1,0.8,0.2,1.2,0.4c0.4,0.2,0.7,0.3,1.1,0.6c0.3,0.2,0.6,0.5,0.9,0.8c0.3,0.3,0.5,0.6,0.8,0.9
	c0.2,0.3,0.4,0.7,0.6,1.1c0.2,0.4,0.3,0.8,0.4,1.2C81.1,74.2,81.2,74.6,81.2,75z"/>
<path class="st13" d="M77.5,75c0,0.3-0.1,0.7-0.2,1c-0.1,0.3-0.3,0.6-0.5,0.8c-0.2,0.2-0.5,0.4-0.8,0.5c-0.3,0.1-0.6,0.2-1,0.2
	c-0.3,0-0.7-0.1-1-0.2c-0.3-0.1-0.6-0.3-0.8-0.5c-0.2-0.2-0.4-0.5-0.5-0.8c-0.1-0.3-0.2-0.6-0.2-1s0.1-0.7,0.2-1
	c0.1-0.3,0.3-0.6,0.5-0.8c0.2-0.2,0.5-0.4,0.8-0.5c0.3-0.1,0.6-0.2,1-0.2c0.3,0,0.7,0.1,1,0.2c0.3,0.1,0.6,0.3,0.8,0.5
	c0.2,0.2,0.4,0.5,0.5,0.8C77.5,74.3,77.5,74.7,77.5,75z"/>
<path class="st12" d="M75,61.7v7.1"/>
<path class="st12" d="M75,81.2v7.1"/>
<path class="st12" d="M88.3,75h-7.1"/>
<path class="st12" d="M68.8,75h-7.1"/>
<path class="st12" d="M75,36.3v2"/>
<path class="st12" d="M75,111.7v2"/>
<path class="st12" d="M102.4,47.6L101,49"/>
<path class="st12" d="M49,101l-1.4,1.4"/>
<path class="st12" d="M113.7,75h-2"/>
<path class="st12" d="M38.3,75h-2"/>
<path class="st12" d="M102.4,102.4L101,101"/>
<path class="st12" d="M49,49l-1.4-1.4"/>
<path class="st5" d="M75,74.1c0,0.3-0.1,0.5-0.3,0.7c-0.2,0.2-0.4,0.3-0.7,0.3s-0.5-0.1-0.7-0.3c-0.2-0.2-0.3-0.4-0.3-0.7
	s0.1-0.5,0.3-0.7c0.2-0.2,0.4-0.3,0.7-0.3s0.5,0.1,0.7,0.3C74.9,73.6,75,73.8,75,74.1z"/>
<path class="st5" d="M76.4,76c0,0.1,0,0.2-0.1,0.3c-0.1,0.1-0.2,0.1-0.3,0.1c-0.1,0-0.2,0-0.3-0.1s-0.1-0.2-0.1-0.3
	c0-0.1,0-0.2,0.1-0.3c0.1-0.1,0.2-0.1,0.3-0.1s0.2,0,0.3,0.1C76.3,75.8,76.4,75.9,76.4,76z"/>
<path class="st2" d="M22.8,75c0,0.7-0.1,1.4-0.2,2.1c-0.1,0.7-0.3,1.4-0.6,2c-0.3,0.6-0.6,1.3-1,1.8c-0.4,0.6-0.8,1.1-1.3,1.6
	c-0.5,0.5-1,0.9-1.6,1.3c-0.6,0.4-1.2,0.7-1.8,1c-0.6,0.3-1.3,0.5-2,0.6c-0.7,0.1-1.4,0.2-2.1,0.2c-0.7,0-1.4-0.1-2.1-0.2
	c-0.7-0.1-1.4-0.3-2-0.6c-0.6-0.3-1.3-0.6-1.8-1c-0.6-0.4-1.1-0.8-1.6-1.3c-0.5-0.5-0.9-1-1.3-1.6c-0.4-0.6-0.7-1.2-1-1.8
	c-0.3-0.6-0.5-1.3-0.6-2c-0.1-0.7-0.2-1.4-0.2-2.1c0-0.7,0.1-1.4,0.2-2.1c0.1-0.7,0.3-1.4,0.6-2s0.6-1.3,1-1.8
	c0.4-0.6,0.8-1.1,1.3-1.6c0.5-0.5,1-0.9,1.6-1.3c0.6-0.4,1.2-0.7,1.8-1c0.6-0.3,1.3-0.5,2-0.6c0.7-0.1,1.4-0.2,2.1-0.2
	c0.7,0,1.4,0.1,2.1,0.2c0.7,0.1,1.4,0.3,2,0.6c0.6,0.3,1.3,0.6,1.8,1c0.6,0.4,1.1,0.8,1.6,1.3c0.5,0.5,0.9,1,1.3,1.6
	c0.4,0.6,0.7,1.2,1,1.8c0.3,0.6,0.5,1.3,0.6,2C22.7,73.6,22.8,74.3,22.8,75z"/>
<path class="st6" d="M7.4,79.1h9.4v-2.4c0-0.4-0.1-0.7-0.2-1s-0.3-0.6-0.5-0.9c-0.2-0.3-0.5-0.5-0.8-0.7c-0.3-0.2-0.6-0.3-1-0.4
	l-1-0.2l0.6-0.8c0.2-0.2,0.3-0.5,0.3-0.8v-1.6c0-0.2,0-0.3-0.1-0.5c-0.1-0.2-0.2-0.3-0.3-0.4c-0.1-0.1-0.3-0.2-0.4-0.3
	s-0.3-0.1-0.5-0.1h-1.8c-0.2,0-0.3,0-0.5,0.1c-0.2,0.1-0.3,0.2-0.4,0.3c-0.1,0.1-0.2,0.3-0.3,0.4c-0.1,0.2-0.1,0.3-0.1,0.5V72
	c0,0.3,0.1,0.6,0.3,0.8l0.6,0.8l-1,0.2c-0.3,0.1-0.7,0.2-1,0.4c-0.3,0.2-0.6,0.4-0.8,0.7c-0.2,0.3-0.4,0.6-0.5,0.9
	c-0.1,0.3-0.2,0.7-0.2,1L7.4,79.1z"/>
<path class="st2" d="M28.8,75h-6.1"/>
<path class="st2" d="M28.8,73V77"/>
<path class="st2" d="M127.2,75c0-0.7,0.1-1.4,0.2-2.1c0.1-0.7,0.3-1.4,0.6-2c0.3-0.6,0.6-1.3,1-1.8c0.4-0.6,0.8-1.1,1.3-1.6
	c0.5-0.5,1-0.9,1.6-1.3c0.6-0.4,1.2-0.7,1.8-1c0.6-0.3,1.3-0.5,2-0.6c0.7-0.1,1.4-0.2,2.1-0.2c0.7,0,1.4,0.1,2.1,0.2
	c0.7,0.1,1.4,0.3,2,0.6c0.6,0.3,1.3,0.6,1.8,1c0.6,0.4,1.1,0.8,1.6,1.3c0.5,0.5,0.9,1,1.3,1.6s0.7,1.2,1,1.8c0.3,0.6,0.5,1.3,0.6,2
	c0.1,0.7,0.2,1.4,0.2,2.1c0,0.7-0.1,1.4-0.2,2.1c-0.1,0.7-0.3,1.4-0.6,2c-0.3,0.6-0.6,1.3-1,1.8c-0.4,0.6-0.8,1.1-1.3,1.6
	c-0.5,0.5-1,0.9-1.6,1.3c-0.6,0.4-1.2,0.7-1.8,1c-0.6,0.3-1.3,0.5-2,0.6c-0.7,0.1-1.4,0.2-2.1,0.2c-0.7,0-1.4-0.1-2.1-0.2
	c-0.7-0.1-1.4-0.3-2-0.6c-0.6-0.3-1.3-0.6-1.8-1c-0.6-0.4-1.1-0.8-1.6-1.3c-0.5-0.5-0.9-1-1.3-1.6c-0.4-0.6-0.7-1.2-1-1.8
	c-0.3-0.6-0.5-1.3-0.6-2C127.3,76.4,127.2,75.7,127.2,75z"/>
<path class="st2" d="M121.2,75h6.1"/>
<path class="st2" d="M121.2,77V73"/>
<path class="st2" d="M137.9,80.7l-3.1-3.6l-2.9-2l12.1-4L137.9,80.7z"/>
<path class="st2" d="M134.8,77.1l9.2-6"/>
<path class="st2" d="M136.1,78.7l-1.4,1.2v-2.8"/>
<path class="st14" d="M75,22.8c-0.7,0-1.4-0.1-2.1-0.2c-0.7-0.1-1.4-0.3-2-0.6c-0.6-0.3-1.3-0.6-1.8-1c-0.6-0.4-1.1-0.8-1.6-1.3
	c-0.5-0.5-0.9-1-1.3-1.6c-0.4-0.6-0.7-1.2-1-1.8c-0.3-0.6-0.5-1.3-0.6-2c-0.1-0.7-0.2-1.4-0.2-2.1c0-0.7,0.1-1.4,0.2-2.1
	c0.1-0.7,0.3-1.4,0.6-2c0.3-0.6,0.6-1.3,1-1.8c0.4-0.6,0.8-1.1,1.3-1.6c0.5-0.5,1-0.9,1.6-1.3s1.2-0.7,1.8-1c0.6-0.3,1.3-0.5,2-0.6
	c0.7-0.1,1.4-0.2,2.1-0.2c0.7,0,1.4,0.1,2.1,0.2c0.7,0.1,1.4,0.3,2,0.6c0.6,0.3,1.3,0.6,1.8,1c0.6,0.4,1.1,0.8,1.6,1.3
	c0.5,0.5,0.9,1,1.3,1.6c0.4,0.6,0.7,1.2,1,1.8c0.3,0.6,0.5,1.3,0.6,2c0.1,0.7,0.2,1.4,0.2,2.1c0,0.7-0.1,1.4-0.2,2.1
	c-0.1,0.7-0.3,1.4-0.6,2c-0.3,0.6-0.6,1.3-1,1.8c-0.4,0.6-0.8,1.1-1.3,1.6c-0.5,0.5-1,0.9-1.6,1.3c-0.6,0.4-1.2,0.7-1.8,1
	c-0.6,0.3-1.3,0.5-2,0.6C76.4,22.7,75.7,22.8,75,22.8z"/>
<path class="st2" d="M75,28.8v-6.1"/>
<path class="st2" d="M77,28.8H73"/>
<path class="st2" d="M77.2,9.1c0-0.3-0.1-0.6-0.2-0.9s-0.3-0.5-0.5-0.7c-0.2-0.2-0.5-0.4-0.7-0.5c-0.3-0.1-0.6-0.2-0.9-0.2
	S74.4,6.9,74.1,7c-0.3,0.1-0.5,0.3-0.7,0.5c-0.2,0.2-0.4,0.4-0.5,0.7c-0.1,0.3-0.2,0.6-0.2,0.9v0.8c0,0.3,0.1,0.6,0.2,0.9
	c0.1,0.3,0.3,0.5,0.5,0.7s0.5,0.4,0.7,0.5c0.3,0.1,0.6,0.2,0.9,0.2"/>
<path class="st2" d="M72.8,15.2c0,0.3,0.1,0.6,0.2,0.9c0.1,0.3,0.3,0.5,0.5,0.7c0.2,0.2,0.4,0.4,0.7,0.5c0.3,0.1,0.6,0.2,0.9,0.2
	c0.3,0,0.6-0.1,0.9-0.2s0.5-0.3,0.7-0.5c0.2-0.2,0.4-0.4,0.5-0.7c0.1-0.3,0.2-0.6,0.2-0.9v-0.8c0-0.3-0.1-0.6-0.2-0.9
	c-0.1-0.3-0.3-0.5-0.5-0.7c-0.2-0.2-0.5-0.4-0.7-0.5c-0.3-0.1-0.6-0.2-0.9-0.2"/>
<path class="st2" d="M75,4.1v2.6"/>
<path class="st2" d="M75,17.6v2.6"/>
<path class="st2" d="M75,127.2c0.7,0,1.4,0.1,2.1,0.2c0.7,0.1,1.4,0.3,2,0.6c0.6,0.3,1.3,0.6,1.8,1c0.6,0.4,1.1,0.8,1.6,1.3
	c0.5,0.5,0.9,1,1.3,1.6c0.4,0.6,0.7,1.2,1,1.8c0.3,0.6,0.5,1.3,0.6,2c0.1,0.7,0.2,1.4,0.2,2.1c0,0.7-0.1,1.4-0.2,2.1
	c-0.1,0.7-0.3,1.4-0.6,2c-0.3,0.6-0.6,1.3-1,1.8c-0.4,0.6-0.8,1.1-1.3,1.6c-0.5,0.5-1,0.9-1.6,1.3c-0.6,0.4-1.2,0.7-1.8,1
	c-0.6,0.3-1.3,0.5-2,0.6c-0.7,0.1-1.4,0.2-2.1,0.2c-0.7,0-1.4-0.1-2.1-0.2c-0.7-0.1-1.4-0.3-2-0.6s-1.3-0.6-1.8-1
	c-0.6-0.4-1.1-0.8-1.6-1.3c-0.5-0.5-0.9-1-1.3-1.6c-0.4-0.6-0.7-1.2-1-1.8c-0.3-0.6-0.5-1.3-0.6-2c-0.1-0.7-0.2-1.4-0.2-2.1
	c0-0.7,0.1-1.4,0.2-2.1c0.1-0.7,0.3-1.4,0.6-2c0.3-0.6,0.6-1.3,1-1.8c0.4-0.6,0.8-1.1,1.3-1.6c0.5-0.5,1-0.9,1.6-1.3
	c0.6-0.4,1.2-0.7,1.8-1c0.6-0.3,1.3-0.5,2-0.6C73.6,127.3,74.3,127.2,75,127.2z"/>
<path class="st2" d="M75,121.2v6.1"/>
<path class="st2" d="M73,121.2H77"/>
<path class="st2" d="M42.4,42.4l-4.3-4.3"/>
<path class="st2" d="M43.7,41L41,43.7"/>
<path class="st2" d="M107.6,107.6l4.3,4.3"/>
<path class="st2" d="M106.3,109l2.8-2.8"/>
<path class="st2" d="M107.6,42.4l4.3-4.3"/>
<path class="st2" d="M109,43.7l-2.8-2.8"/>
<path class="st2" d="M42.4,107.6l-4.3,4.3"/>
<path class="st2" d="M41,106.3l2.8,2.8"/>
<path class="st2" d="M123.5,41l13-13"/>
<path class="st2" d="M127.4,41h-3.9V37"/>
<path class="st2" d="M140.2,28.3h-3.9v-3.9"/>
<path class="st2" d="M142.7,25.8h-3.9v-3.9"/>
<path class="st2" d="M145.2,23.2h-3.9v-3.9"/>
<path class="st2" d="M125.2,24.8l13-13"/>
<path class="st2" d="M129.1,24.8h-3.9v-3.9"/>
<path class="st2" d="M141.8,12.1h-3.9V8.2"/>
<path class="st2" d="M144.3,9.6h-3.9V5.7"/>
<path class="st2" d="M146.8,7.1h-3.9V3.2"/>
<path class="st2" d="M109,26.5l13-13"/>
<path class="st2" d="M113,26.5H109v-3.9"/>
<path class="st2" d="M125.7,13.8h-3.9V9.8"/>
<path class="st2" d="M128.2,11.3h-3.9V7.3"/>
<path class="st2" d="M130.7,8.8h-3.9V4.8"/>
<path class="st2" d="M26.5,109l-13,13"/>
<path class="st2" d="M22.6,109h3.9v3.9"/>
<path class="st2" d="M9.8,121.7h3.9v3.9"/>
<path class="st2" d="M7.3,124.3h3.9v3.9"/>
<path class="st2" d="M4.8,126.8h3.9v3.9"/>
<path class="st2" d="M24.8,125.2l-13,13"/>
<path class="st2" d="M20.9,125.2h3.9v3.9"/>
<path class="st2" d="M8.2,137.9h3.9v3.9"/>
<path class="st2" d="M5.7,140.4h3.9v3.9"/>
<path class="st2" d="M3.2,142.9h3.9v3.9"/>
<path class="st2" d="M41,123.5l-13,13"/>
<path class="st2" d="M37,123.5H41v3.9"/>
<path class="st2" d="M24.3,136.2h3.9v3.9"/>
<path class="st2" d="M21.8,138.7h3.9v3.9"/>
<path class="st2" d="M19.3,141.2h3.9v3.9"/>
<path class="st6" d="M71.4,143.2h6.8v1.6h-6.8V143.2z"/>
<path class="st6" d="M71.4,140.9h6.8v1.4h-6.8V140.9z"/>
<path class="st6" d="M69.8,134.9H71c0.1,0,0.2,0,0.3,0.1s0.1,0.2,0.1,0.3v4.7h6.8v-4.7c0-0.1,0-0.2,0.1-0.3c0.1-0.1,0.2-0.1,0.3-0.1
	h1.2l-5.1-4.6L69.8,134.9z"/>
<path class="st15" d="M34,28.4c-0.5,0-1,0.1-1.5,0.3c-0.5,0.2-0.9,0.5-1.3,0.9c-0.4,0.4-0.7,0.8-0.9,1.3c-0.2,0.5-0.3,1-0.3,1.5
	v25.8"/>
<path class="st15" d="M59.8,28.4c0-0.3-0.1-0.5-0.1-0.8c-0.1-0.2-0.2-0.5-0.4-0.6c-0.2-0.2-0.4-0.3-0.6-0.4
	c-0.2-0.1-0.5-0.1-0.8-0.1c-0.3,0-0.5,0.1-0.8,0.1c-0.2,0.1-0.5,0.2-0.6,0.4c-0.2,0.2-0.3,0.4-0.4,0.6c-0.1,0.2-0.1,0.5-0.1,0.8
	c0,0.3,0.1,0.5,0.1,0.8c0.1,0.2,0.2,0.5,0.4,0.6c0.2,0.2,0.4,0.3,0.6,0.4c0.2,0.1,0.5,0.2,0.8,0.2c0.3,0,0.5-0.1,0.8-0.2
	c0.2-0.1,0.5-0.2,0.6-0.4c0.2-0.2,0.3-0.4,0.4-0.6C59.7,28.9,59.8,28.7,59.8,28.4z"/>
<path class="st15" d="M32,59.5c0-0.3-0.1-0.5-0.2-0.7c-0.1-0.2-0.2-0.5-0.4-0.6c-0.2-0.2-0.4-0.3-0.6-0.4c-0.2-0.1-0.5-0.1-0.8-0.1
	c-0.3,0-0.5,0.1-0.8,0.1c-0.2,0.1-0.5,0.2-0.6,0.4c-0.2,0.2-0.3,0.4-0.4,0.6c-0.1,0.2-0.1,0.5-0.1,0.7c0,0.3,0.1,0.5,0.1,0.8
	c0.1,0.2,0.2,0.5,0.4,0.6c0.2,0.2,0.4,0.3,0.6,0.4c0.2,0.1,0.5,0.2,0.8,0.2c0.3,0,0.5-0.1,0.8-0.2c0.2-0.1,0.5-0.2,0.6-0.4
	c0.2-0.2,0.3-0.4,0.4-0.6C32,60,32,59.8,32,59.5z"/>
<path class="st3" d="M55.8,29h-1.2v-1.2h1.2 M53.5,29h-1.2v-1.2h1.2 M51.1,29h-1.2v-1.2h1.2 M48.7,29h-1.2v-1.2h1.2 M46.4,29h-1.2
	v-1.2h1.2 M44,29h-1.2v-1.2H44 M41.6,29h-1.2v-1.2h1.2 M39.2,29h-1.2v-1.2h1.2 M36.9,29h-1.2v-1.2h1.2 M34.5,29H34v-1.2h0.5"/>
<path class="st15" d="M116,121.6c0.3,0,0.5,0,0.8-0.1c0.3-0.1,0.5-0.1,0.7-0.2c0.2-0.1,0.5-0.2,0.7-0.4c0.2-0.1,0.4-0.3,0.6-0.5
	s0.3-0.4,0.5-0.6c0.1-0.2,0.3-0.4,0.4-0.7c0.1-0.2,0.2-0.5,0.2-0.7c0.1-0.3,0.1-0.5,0.1-0.8V91.9"/>
<path class="st15" d="M90.2,121.6c0,0.3,0.1,0.5,0.2,0.8c0.1,0.2,0.2,0.5,0.4,0.6c0.2,0.2,0.4,0.3,0.6,0.4c0.2,0.1,0.5,0.1,0.8,0.1
	s0.5-0.1,0.8-0.1c0.2-0.1,0.5-0.2,0.6-0.4c0.2-0.2,0.3-0.4,0.4-0.6c0.1-0.2,0.1-0.5,0.1-0.8c0-0.3-0.1-0.5-0.1-0.7
	c-0.1-0.2-0.2-0.5-0.4-0.6c-0.2-0.2-0.4-0.3-0.6-0.4c-0.2-0.1-0.5-0.1-0.8-0.1s-0.5,0.1-0.8,0.1c-0.2,0.1-0.5,0.2-0.6,0.4
	c-0.2,0.2-0.3,0.4-0.4,0.6C90.3,121.1,90.2,121.3,90.2,121.6z"/>
<path class="st15" d="M118,90.5c0,0.3,0.1,0.5,0.2,0.8c0.1,0.2,0.2,0.5,0.4,0.6c0.2,0.2,0.4,0.3,0.6,0.4c0.2,0.1,0.5,0.1,0.8,0.1
	c0.3,0,0.5-0.1,0.7-0.1c0.2-0.1,0.5-0.2,0.6-0.4c0.2-0.2,0.3-0.4,0.4-0.6c0.1-0.2,0.1-0.5,0.1-0.8c0-0.3-0.1-0.5-0.1-0.8
	c-0.1-0.2-0.2-0.5-0.4-0.6c-0.2-0.2-0.4-0.3-0.6-0.4c-0.2-0.1-0.5-0.2-0.7-0.2c-0.3,0-0.5,0.1-0.8,0.2c-0.2,0.1-0.5,0.2-0.6,0.4
	c-0.2,0.2-0.3,0.4-0.4,0.6C118,90,118,90.3,118,90.5z"/>
<path class="st3" d="M94.1,121h1.2v1.2h-1.2 M96.5,121h1.2v1.2h-1.2 M98.9,121h1.2v1.2h-1.2 M101.3,121h1.2v1.2h-1.2 M103.6,121h1.2
	v1.2h-1.2 M106,121h1.2v1.2H106 M108.4,121h1.2v1.2h-1.2 M110.8,121h1.2v1.2h-1.2 M113.1,121h1.2v1.2h-1.2 M115.5,121h0.5v1.2h-0.5"
	/>
<path class="st2" d="M33.8,14.2c0,0.3-0.1,0.6-0.1,1c-0.1,0.3-0.2,0.6-0.3,0.9c-0.1,0.3-0.3,0.6-0.5,0.8c-0.2,0.3-0.4,0.5-0.6,0.7
	c-0.2,0.2-0.5,0.4-0.8,0.6c-0.3,0.2-0.6,0.3-0.9,0.4c-0.3,0.1-0.6,0.2-0.9,0.3c-0.3,0.1-0.6,0.1-1,0.1H17.6c-0.4,0-0.8,0.1-1.1,0.1
	c-0.4,0.1-0.7,0.2-1.1,0.3c-0.3,0.2-0.7,0.3-1,0.5c-0.3,0.2-0.6,0.5-0.9,0.7c-0.3,0.3-0.5,0.6-0.7,0.9c-0.2,0.3-0.4,0.6-0.5,1
	c-0.1,0.3-0.2,0.7-0.3,1.1c-0.1,0.4-0.1,0.7-0.1,1.1c0,0.4,0,0.8,0.1,1.1c0.1,0.4,0.2,0.7,0.3,1.1c0.1,0.3,0.3,0.7,0.5,1
	c0.2,0.3,0.4,0.6,0.7,0.9c0.3,0.3,0.5,0.5,0.9,0.7c0.3,0.2,0.6,0.4,1,0.5c0.3,0.1,0.7,0.3,1.1,0.3c0.4,0.1,0.7,0.1,1.1,0.1h11.2
	c0.3,0,0.6,0,1,0.1c0.3,0.1,0.6,0.2,0.9,0.3c0.3,0.1,0.6,0.3,0.9,0.5c0.3,0.2,0.5,0.4,0.8,0.6c0.2,0.2,0.4,0.5,0.6,0.7
	c0.2,0.3,0.4,0.5,0.5,0.8c0.1,0.3,0.2,0.6,0.3,0.9c0.1,0.3,0.1,0.6,0.1,1h1.9V14.2H33.8z"/>
<path class="st2" d="M21.3,19.1h4.8v11.7h-4.8V19.1z"/>
<path class="st2" d="M17.8,25.7h0.6"/>
<path class="st2" d="M17.8,27.6h0.6"/>
<path class="st2" d="M35.7,22.6c0.3,0,0.6,0,0.9,0.2c0.3,0.1,0.6,0.3,0.8,0.5c0.2,0.2,0.4,0.5,0.5,0.8c0.1,0.3,0.2,0.6,0.2,0.9
	s-0.1,0.6-0.2,0.9c-0.1,0.3-0.3,0.6-0.5,0.8c-0.2,0.2-0.5,0.4-0.8,0.5c-0.3,0.1-0.6,0.2-0.9,0.2"/>
<path class="st2" d="M13.8,29.4l8,8h1.3v-6.7"/>
<path class="st2" d="M117.6,134.2l22.1-5.9v-6.4l-22.1-5.9V134.2z"/>
<path class="st2" d="M114.1,114.2h3.5V136h-3.5V114.2z"/>
<path class="st2" d="M139.7,120.4v9.3"/>
<path class="st2" d="M129.6,131.1c0,0.4,0.1,0.8,0.2,1.2c0.2,0.4,0.4,0.7,0.7,1c0.3,0.3,0.6,0.5,1,0.7s0.8,0.2,1.2,0.2
	c0.4,0,0.8-0.1,1.2-0.2c0.4-0.2,0.7-0.4,1-0.7s0.5-0.6,0.7-1s0.2-0.8,0.2-1.2v-1.6"/>
<path class="st2" d="M129.6,127.5v-8.2"/>
<path class="st2" d="M124.8,128.4v-10.3"/>
</svg>
