<svg xmlns="http://www.w3.org/2000/svg" xmlns:xlink="http://www.w3.org/1999/xlink" style="enable-background:new 0 0 150 150" id="Layer_1" x="0" y="0" version="1.1" viewBox="0 0 150 150" xml:space="preserve"><style type="text/css">.st0{fill:none}.st1{fill:#def4fc}.st2{fill:#288de8}.st3{fill:#5ba1e1}.st4{fill:#e9f6ff}.st5{fill:#c8dff5}.st6{fill:#afd8f9}.st7{fill:#fff}.st8{fill:#97bfef}.st10,.st11,.st9{fill:none;stroke:#2481d7;stroke-linecap:round;stroke-linejoin:round;stroke-miterlimit:1.199}.st9{stroke-width:2.398}.st10{stroke-width:1.7985}.st11{stroke-width:1.199}.st12{clip-path:url(#SVGID_2_)}.st13{fill:none;stroke:#c8dff5;stroke-width:1.199;stroke-miterlimit:2.9976}.st14{clip-path:url(#SVGID_4_)}.st15{clip-path:url(#SVGID_6_)}.st16{clip-path:url(#SVGID_8_)}.st17,.st18{fill:none;stroke:#c8dff5;stroke-width:1.199;stroke-miterlimit:2.9975}.st18{stroke-linecap:square;stroke-miterlimit:2.9976}.st19{fill:#6ab0e5}.st20{clip-path:url(#SVGID_10_)}.st21{clip-path:url(#SVGID_12_)}.st22{clip-path:url(#SVGID_14_)}.st23{fill:#2481d7}.st24{fill:none;stroke:#fff;stroke-width:1.199;stroke-linecap:round;stroke-linejoin:round;stroke-miterlimit:1.199}.st25{clip-path:url(#SVGID_16_)}.st26{clip-path:url(#SVGID_18_)}.st27{clip-path:url(#SVGID_20_)}.st28{clip-path:url(#SVGID_22_)}.st29{clip-path:url(#SVGID_24_)}.st30{clip-path:url(#SVGID_26_)}.st31{clip-path:url(#SVGID_28_)}.st32{clip-path:url(#SVGID_30_)}.st33{clip-path:url(#SVGID_32_)}</style><rect width="180" height="180" x="-15" y="-15" class="st0"/><rect width="180" height="180" x="-15" y="-15" class="st0"/><rect width="180" height="180" x="-15" y="-15" class="st0"/><path d="M113.4,66.6c0,1.2-0.1,2.5-0.2,3.7s-0.3,2.5-0.6,3.7c-0.2,1.2-0.5,2.4-0.9,3.6s-0.8,2.4-1.3,3.5s-1,2.3-1.6,3.4	c-0.6,1.1-1.2,2.2-1.9,3.2c-0.7,1-1.4,2-2.2,3c-0.8,1-1.6,1.9-2.5,2.8c-0.9,0.9-1.8,1.7-2.8,2.5c-1,0.8-2,1.5-3,2.2	c-1,0.7-2.1,1.3-3.2,1.9c-1.1,0.6-2.2,1.1-3.4,1.6c-1.2,0.5-2.3,0.9-3.5,1.3c-1.2,0.4-2.4,0.7-3.6,0.9c-1.2,0.2-2.5,0.4-3.7,0.6	c-1.2,0.1-2.5,0.2-3.8,0.2c-1.2,0-2.5-0.1-3.7-0.2c-1.2-0.1-2.5-0.3-3.7-0.6c-1.2-0.2-2.4-0.5-3.6-0.9s-2.4-0.8-3.5-1.3	c-1.2-0.5-2.3-1-3.4-1.6c-1.1-0.6-2.2-1.2-3.2-1.9c-1-0.7-2-1.4-3-2.2c-1-0.8-1.9-1.6-2.8-2.5c-0.9-0.9-1.7-1.8-2.5-2.8	c-0.8-1-1.5-2-2.2-3c-0.7-1-1.3-2.1-1.9-3.2c-0.6-1.1-1.1-2.2-1.6-3.4c-0.5-1.2-0.9-2.3-1.3-3.5s-0.7-2.4-0.9-3.6	c-0.2-1.2-0.4-2.5-0.6-3.7c-0.1-1.2-0.2-2.5-0.2-3.7c0-1.3,0.1-2.5,0.2-3.8c0.1-1.2,0.3-2.5,0.6-3.7c0.2-1.2,0.5-2.4,0.9-3.6	c0.4-1.2,0.8-2.4,1.3-3.5c0.5-1.2,1-2.3,1.6-3.4c0.6-1.1,1.2-2.2,1.9-3.2c0.7-1,1.4-2,2.2-3c0.8-1,1.6-1.9,2.5-2.8	c0.9-0.9,1.8-1.7,2.8-2.5c1-0.8,2-1.5,3-2.2c1-0.7,2.1-1.3,3.2-1.9c1.1-0.6,2.2-1.1,3.4-1.6c1.2-0.5,2.3-0.9,3.5-1.3	s2.4-0.7,3.6-0.9c1.2-0.2,2.5-0.4,3.7-0.6c1.2-0.1,2.5-0.2,3.7-0.2c1.3,0,2.5,0.1,3.8,0.2c1.2,0.1,2.5,0.3,3.7,0.6	c1.2,0.2,2.4,0.5,3.6,0.9c1.2,0.4,2.4,0.8,3.5,1.3c1.2,0.5,2.3,1,3.4,1.6s2.2,1.2,3.2,1.9c1,0.7,2,1.4,3,2.2c1,0.8,1.9,1.6,2.8,2.5	c0.9,0.9,1.7,1.8,2.5,2.8c0.8,1,1.5,2,2.2,3c0.7,1,1.3,2.1,1.9,3.2c0.6,1.1,1.1,2.2,1.6,3.4c0.5,1.2,0.9,2.3,1.3,3.5	s0.7,2.4,0.9,3.6c0.2,1.2,0.4,2.5,0.6,3.7S113.4,65.4,113.4,66.6z" class="st1"/><path d="M127.2,134.2c-0.5,0-1-0.2-1.4-0.6l-5.7-5.7c-0.2-0.2-0.3-0.4-0.4-0.6c-0.1-0.2-0.1-0.5-0.1-0.8	c0-0.3,0.1-0.5,0.1-0.8c0.1-0.2,0.2-0.5,0.4-0.6s0.4-0.3,0.6-0.4c0.2-0.1,0.5-0.1,0.8-0.1c0.3,0,0.5,0.1,0.8,0.1	c0.2,0.1,0.5,0.2,0.6,0.4l4.3,4.3l15.6-15.5c0.2-0.2,0.4-0.3,0.6-0.4c0.2-0.1,0.5-0.1,0.8-0.1c0.3,0,0.5,0.1,0.8,0.1	c0.2,0.1,0.5,0.2,0.6,0.4s0.3,0.4,0.4,0.6c0.1,0.2,0.1,0.5,0.1,0.8c0,0.3,0,0.5-0.1,0.8c-0.1,0.2-0.2,0.5-0.4,0.6l-16.9,16.9	C128.2,134,127.8,134.2,127.2,134.2z" class="st2"/><path d="M127.2,131.3c0.5,0,1-0.2,1.4-0.6l16.9-16.9c-0.2-0.2-0.4-0.3-0.6-0.4c-0.2-0.1-0.5-0.1-0.7-0.1	c-0.3,0-0.5,0.1-0.7,0.2c-0.2,0.1-0.4,0.2-0.6,0.4l-15.6,15.6l-4.3-4.3c-0.2-0.2-0.4-0.3-0.6-0.4c-0.2-0.1-0.5-0.1-0.7-0.2	c-0.3,0-0.5,0-0.7,0.1c-0.2,0.1-0.4,0.2-0.6,0.4l5.6,5.6C126.2,131.1,126.7,131.3,127.2,131.3z" class="st3"/><path d="M138.4,129.6c0,0.7-0.1,1.5-0.2,2.2c-0.1,0.7-0.4,1.4-0.6,2.1c-0.3,0.7-0.6,1.3-1,1.9c-0.4,0.6-0.9,1.2-1.4,1.7	c-0.5,0.5-1.1,1-1.7,1.4c-0.6,0.4-1.3,0.8-1.9,1c-0.7,0.3-1.4,0.5-2.1,0.6c-0.7,0.1-1.5,0.2-2.2,0.2c-0.7,0-1.5-0.1-2.2-0.2	c-0.7-0.1-1.4-0.4-2.1-0.6s-1.3-0.6-1.9-1s-1.2-0.9-1.7-1.4c-0.5-0.5-1-1.1-1.4-1.7c-0.4-0.6-0.8-1.3-1-1.9s-0.5-1.4-0.6-2.1	s-0.2-1.5-0.2-2.2c0-0.7,0.1-1.5,0.2-2.2s0.4-1.4,0.6-2.1c0.3-0.7,0.6-1.3,1-1.9c0.4-0.6,0.9-1.2,1.4-1.7c0.5-0.5,1.1-1,1.7-1.4	c0.6-0.4,1.3-0.8,1.9-1c0.7-0.3,1.4-0.5,2.1-0.6c0.7-0.1,1.5-0.2,2.2-0.2v-3.9c-1,0-2,0.1-3,0.3c-1,0.2-1.9,0.5-2.8,0.9	s-1.8,0.8-2.6,1.4c-0.8,0.6-1.6,1.2-2.3,1.9c-0.7,0.7-1.3,1.5-1.9,2.3c-0.6,0.8-1,1.7-1.4,2.6c-0.4,0.9-0.7,1.9-0.9,2.8	s-0.3,2-0.3,3s0.1,2,0.3,3c0.2,1,0.5,1.9,0.9,2.8c0.4,0.9,0.8,1.8,1.4,2.6s1.2,1.6,1.9,2.3c0.7,0.7,1.5,1.3,2.3,1.9	c0.8,0.6,1.7,1,2.6,1.4c0.9,0.4,1.9,0.7,2.8,0.9s2,0.3,3,0.3s2-0.1,3-0.3s1.9-0.5,2.8-0.9c0.9-0.4,1.8-0.8,2.6-1.4	c0.8-0.6,1.6-1.2,2.3-1.9s1.3-1.5,1.9-2.3c0.6-0.8,1-1.7,1.4-2.6c0.4-0.9,0.7-1.9,0.9-2.8s0.3-2,0.3-3H138.4z" class="st4"/><path d="M112.9,109.5l-9.3-23.8V73.4c0-1-0.1-1.9-0.1-2.9c-0.1-1-0.2-1.9-0.4-2.9c-0.2-0.9-0.4-1.9-0.7-2.8	c-0.3-0.9-0.6-1.8-1-2.7c-0.4-0.9-0.8-1.8-1.2-2.6c-0.5-0.9-1-1.7-1.5-2.5c-0.5-0.8-1.1-1.6-1.7-2.3c-0.6-0.8-1.3-1.5-1.9-2.1	s-1.4-1.3-2.1-1.9s-1.5-1.2-2.3-1.7c-0.8-0.5-1.6-1-2.5-1.5c-0.9-0.5-1.7-0.9-2.6-1.2c-0.9-0.4-1.8-0.7-2.7-1s-1.9-0.5-2.8-0.7	c-0.9-0.2-1.9-0.3-2.9-0.4C76,44,75,43.9,74,43.9h-8c-1,0-1.9,0-2.9,0.1c-1,0.1-1.9,0.2-2.9,0.4c-0.9,0.2-1.9,0.4-2.8,0.7	c-0.9,0.3-1.8,0.6-2.7,1c-0.9,0.4-1.8,0.8-2.6,1.2c-0.9,0.5-1.7,1-2.5,1.5c-0.8,0.5-1.6,1.1-2.3,1.7c-0.8,0.6-1.5,1.3-2.1,1.9	s-1.3,1.4-1.9,2.1c-0.6,0.7-1.2,1.5-1.7,2.3c-0.5,0.8-1,1.6-1.5,2.5c-0.5,0.9-0.9,1.7-1.2,2.6c-0.4,0.9-0.7,1.8-1,2.7	c-0.3,0.9-0.5,1.9-0.7,2.8c-0.2,0.9-0.3,1.9-0.4,2.9c-0.1,1-0.1,1.9-0.1,2.9v75.2c0,0.1,0.1,0.2,0.1,0.3c0.1,0.1,0.2,0.1,0.3,0.1	h45.4c0.1,0,0.3,0,0.3-0.1c0.1-0.1,0.1-0.2,0.1-0.3v-11.3c0,0,0.1,0,0.1,0c5-0.2,10.6-0.7,14.4-3c4.1-2.4,6.1-6.7,6.1-12.9v-11.3	h8.8c0.2,0,0.3-0.1,0.4-0.2C112.9,109.8,112.9,109.6,112.9,109.5z" class="st4"/><path d="M108.7,109.9c0.1-0.1,0.1-0.3,0.1-0.5l-9.3-23.8V73.4c0-1,0-1.9-0.1-2.9c-0.1-1-0.2-1.9-0.4-2.9	c-0.2-0.9-0.4-1.9-0.7-2.8c-0.3-0.9-0.6-1.8-1-2.7c-0.4-0.9-0.8-1.8-1.2-2.6c-0.5-0.9-1-1.7-1.5-2.5c-0.5-0.8-1.1-1.6-1.7-2.3	c-0.6-0.8-1.3-1.5-1.9-2.1s-1.4-1.3-2.1-1.9c-0.7-0.6-1.5-1.2-2.3-1.7c-0.8-0.5-1.6-1-2.5-1.5c-0.9-0.5-1.7-0.9-2.6-1.2	c-0.9-0.4-1.8-0.7-2.7-1c-0.9-0.3-1.9-0.5-2.8-0.7c-0.9-0.2-1.9-0.3-2.9-0.4c-1-0.1-1.9-0.1-2.9-0.1h-3.9c-1,0-1.9,0-2.9,0.1	c-1,0.1-1.9,0.2-2.9,0.4c-0.9,0.2-1.9,0.4-2.8,0.7c-0.9,0.3-1.8,0.6-2.7,1c-0.9,0.4-1.8,0.8-2.6,1.2c-0.9,0.5-1.7,1-2.5,1.5	c-0.8,0.5-1.6,1.1-2.3,1.7c-0.8,0.6-1.5,1.3-2.1,1.9s-1.3,1.4-1.9,2.1c-0.6,0.7-1.2,1.5-1.7,2.3c-0.5,0.8-1,1.6-1.5,2.5	c-0.5,0.9-0.9,1.7-1.2,2.6c-0.4,0.9-0.7,1.8-1,2.7c-0.3,0.9-0.5,1.9-0.7,2.8c-0.2,0.9-0.3,1.9-0.4,2.9c-0.1,1-0.1,1.9-0.1,2.9v75.2	c0,0.1,0.1,0.2,0.1,0.3c0.1,0.1,0.2,0.1,0.3,0.1h41.3c0.1,0,0.3,0,0.3-0.1c0.1-0.1,0.1-0.2,0.1-0.3v-11.3c0,0,0.1,0,0.1,0	c5-0.2,10.6-0.7,14.4-3c4.1-2.4,6.1-6.7,6.1-12.9v-11.3h8.8C108.4,110.1,108.6,110.1,108.7,109.9z" class="st5"/><path d="M59.2,51.8H47.4v-29l-18.6,36h11.8v29L59.2,51.8z" class="st6"/><path d="M82.6,85.4v9.2c0,0.3,0,0.6,0.1,0.9c0.1,0.3,0.1,0.6,0.3,0.9c0.1,0.3,0.3,0.5,0.4,0.8c0.2,0.3,0.4,0.5,0.6,0.7	s0.4,0.4,0.7,0.6s0.5,0.3,0.8,0.4s0.6,0.2,0.9,0.3c0.3,0.1,0.6,0.1,0.9,0.1h7.9c0.3,0,0.6,0,0.9-0.1c0.3-0.1,0.6-0.1,0.9-0.3	s0.5-0.3,0.8-0.4c0.3-0.2,0.5-0.4,0.7-0.6c0.2-0.2,0.4-0.4,0.6-0.7c0.2-0.2,0.3-0.5,0.4-0.8c0.1-0.3,0.2-0.6,0.3-0.9	c0.1-0.3,0.1-0.6,0.1-0.9v-9.2H82.6z" class="st7"/><path d="M40.7,148.7V73.4c0-1,0-1.9,0.1-2.9c0.1-1,0.2-1.9,0.4-2.9c0.2-0.9,0.4-1.9,0.7-2.8c0.3-0.9,0.6-1.8,1-2.7	s0.8-1.8,1.2-2.6c0.5-0.9,0.9-1.7,1.5-2.5c0.5-0.8,1.1-1.6,1.7-2.3c0.6-0.7,1.3-1.5,1.9-2.1s1.4-1.3,2.1-1.9s1.5-1.2,2.3-1.7	c0.8-0.5,1.6-1,2.5-1.5s1.7-0.9,2.6-1.2c0.9-0.4,1.8-0.7,2.7-1c0.9-0.3,1.9-0.5,2.8-0.7c0.9-0.2,1.9-0.3,2.9-0.4	c1-0.1,1.9-0.2,2.9-0.2h-4c-1,0-1.9,0.1-2.9,0.1c-1,0.1-1.9,0.2-2.9,0.4c-0.9,0.2-1.9,0.4-2.8,0.7c-0.9,0.3-1.8,0.6-2.7,1	c-0.9,0.4-1.8,0.8-2.6,1.2s-1.7,1-2.5,1.5c-0.8,0.5-1.6,1.1-2.3,1.7s-1.5,1.3-2.1,1.9s-1.3,1.4-1.9,2.1s-1.2,1.5-1.7,2.3	c-0.5,0.8-1,1.6-1.5,2.5c-0.5,0.9-0.9,1.7-1.2,2.6c-0.4,0.9-0.7,1.8-1,2.7c-0.3,0.9-0.5,1.9-0.7,2.8c-0.2,0.9-0.3,1.9-0.4,2.9	c-0.1,1-0.1,1.9-0.1,2.9v75.2c0,0.1,0.1,0.2,0.1,0.3c0.1,0.1,0.2,0.1,0.3,0.1h4.1c-0.1,0-0.2,0-0.3-0.1S40.7,148.8,40.7,148.7z" class="st6"/><path d="M37,142.6h45.4v6.1H37V142.6z" class="st8"/><path d="M37,148.7V73.4c0-0.9,0-1.9,0.1-2.8c0.1-0.9,0.2-1.9,0.4-2.8c0.2-0.9,0.4-1.9,0.7-2.8c0.3-0.9,0.6-1.8,1-2.7	c0.4-0.9,0.8-1.7,1.2-2.6c0.4-0.8,0.9-1.7,1.5-2.4c0.5-0.8,1.1-1.6,1.7-2.3c0.6-0.7,1.2-1.4,1.9-2.1c0.7-0.7,1.4-1.3,2.1-1.9	c0.7-0.6,1.5-1.2,2.3-1.7c0.8-0.5,1.6-1,2.4-1.5c0.8-0.4,1.7-0.9,2.6-1.2c0.9-0.4,1.8-0.7,2.7-1c0.9-0.3,1.8-0.5,2.8-0.7	c0.9-0.2,1.9-0.3,2.8-0.4c0.9-0.1,1.9-0.1,2.8-0.1h8c1,0,1.9,0,2.8,0.1c0.9,0.1,1.9,0.2,2.8,0.4c0.9,0.2,1.9,0.4,2.8,0.7	c0.9,0.3,1.8,0.6,2.7,1c0.9,0.4,1.7,0.8,2.6,1.2c0.8,0.4,1.7,0.9,2.4,1.5c0.8,0.5,1.6,1.1,2.3,1.7c0.7,0.6,1.4,1.2,2.1,1.9	c0.7,0.7,1.3,1.4,1.9,2.1c0.6,0.7,1.2,1.5,1.7,2.3c0.5,0.8,1,1.6,1.5,2.4c0.4,0.8,0.9,1.7,1.2,2.6c0.4,0.9,0.7,1.8,1,2.7	s0.5,1.8,0.7,2.8c0.2,0.9,0.3,1.9,0.4,2.8c0.1,0.9,0.1,1.9,0.1,2.8v12.3l9.3,23.9h-9.3v11.8c0,13.1-8.7,15.1-20.6,15.4v11.8" class="st9"/><path d="M87.9,91.6c0.3,0.3,0.6,0.5,0.9,0.8c0.3,0.2,0.7,0.4,1.1,0.6c0.4,0.2,0.8,0.3,1.2,0.4c0.4,0.1,0.8,0.1,1.2,0.1	c0.4,0,0.8,0,1.2-0.1c0.4-0.1,0.8-0.2,1.2-0.4c0.4-0.2,0.7-0.3,1.1-0.6c0.3-0.2,0.6-0.5,0.9-0.8" class="st9"/><path d="M87.9,119.1c0.3,0.3,0.6,0.5,0.9,0.8c0.3,0.2,0.7,0.4,1.1,0.6c0.4,0.2,0.8,0.3,1.2,0.4c0.4,0.1,0.8,0.1,1.2,0.1	c0.4,0,0.8,0,1.2-0.1c0.4-0.1,0.8-0.2,1.2-0.4c0.4-0.2,0.7-0.3,1.1-0.6c0.3-0.2,0.7-0.5,0.9-0.8" class="st9"/><path d="M66.1,44.4h8c0.9,0,1.9,0,2.8,0.1c0.9,0.1,1.9,0.2,2.8,0.4c0.9,0.2,1.9,0.4,2.8,0.7c0.9,0.3,1.8,0.6,2.7,1	c0.9,0.4,1.7,0.8,2.6,1.2c0.8,0.4,1.7,0.9,2.4,1.5c0.8,0.5,1.6,1.1,2.3,1.7c0.7,0.6,1.4,1.2,2.1,1.9c0.7,0.7,1.3,1.4,1.9,2.1	c0.6,0.7,1.2,1.5,1.7,2.3c0.5,0.8,1,1.6,1.5,2.4c0.4,0.8,0.9,1.7,1.2,2.6c0.4,0.9,0.7,1.8,1,2.7c0.3,0.9,0.5,1.8,0.7,2.8	c0.2,0.9,0.3,1.9,0.4,2.8c0.1,0.9,0.1,1.9,0.1,2.8v12.3l9.3,23.9h-9.3v11.8c0,13.1-8.7,15.1-20.6,15.4v11.8H37V73.4	c0-0.9,0-1.9,0.1-2.8c0.1-0.9,0.2-1.9,0.4-2.8c0.2-0.9,0.4-1.9,0.7-2.8c0.3-0.9,0.6-1.8,1-2.7c0.4-0.9,0.8-1.7,1.2-2.6	c0.4-0.8,0.9-1.7,1.5-2.4c0.5-0.8,1.1-1.6,1.7-2.3c0.6-0.7,1.2-1.4,1.9-2.1c0.7-0.7,1.4-1.3,2.1-1.9c0.7-0.6,1.5-1.2,2.3-1.7	c0.8-0.5,1.6-1,2.4-1.5c0.8-0.4,1.7-0.9,2.6-1.2c0.9-0.4,1.8-0.7,2.7-1c0.9-0.3,1.8-0.5,2.8-0.7c0.9-0.2,1.9-0.3,2.8-0.4	C64.2,44.5,65.1,44.4,66.1,44.4z" class="st9"/><path d="M112.4,109.6h-12.1" class="st9"/><path d="M67.8,136.9h15.1" class="st9"/><path d="M47.5,85.4H54c0.4,0,0.7,0,1.1,0.1c0.4,0.1,0.7,0.2,1,0.3s0.6,0.3,0.9,0.5c0.3,0.2,0.6,0.4,0.8,0.7	c0.2,0.3,0.5,0.5,0.7,0.8c0.2,0.3,0.4,0.6,0.5,0.9s0.2,0.7,0.3,1c0.1,0.3,0.1,0.7,0.1,1.1v15.6c0,0.4,0,0.7-0.1,1.1	c-0.1,0.3-0.2,0.7-0.3,1c-0.1,0.3-0.3,0.6-0.5,0.9c-0.2,0.3-0.4,0.6-0.7,0.8c-0.3,0.3-0.5,0.5-0.8,0.7s-0.6,0.4-0.9,0.5	c-0.3,0.1-0.7,0.2-1,0.3c-0.3,0.1-0.7,0.1-1.1,0.1h-6.5c-0.4,0-0.7,0-1.1-0.1c-0.4-0.1-0.7-0.2-1-0.3c-0.3-0.1-0.6-0.3-0.9-0.5	s-0.6-0.4-0.8-0.7c-0.2-0.2-0.5-0.5-0.7-0.8c-0.2-0.3-0.4-0.6-0.5-0.9c-0.1-0.3-0.2-0.7-0.3-1c-0.1-0.4-0.1-0.7-0.1-1.1V90.8	c0-0.4,0-0.7,0.1-1.1c0.1-0.4,0.2-0.7,0.3-1s0.3-0.6,0.5-0.9c0.2-0.3,0.4-0.6,0.7-0.8c0.3-0.2,0.5-0.5,0.8-0.7	c0.3-0.2,0.6-0.4,0.9-0.5c0.3-0.1,0.7-0.2,1-0.3C46.7,85.4,47.1,85.4,47.5,85.4z" class="st5"/><path d="M42,106.5V90.8c0-0.4,0-0.7,0.1-1.1c0.1-0.4,0.2-0.7,0.3-1s0.3-0.6,0.5-0.9s0.4-0.6,0.7-0.8	c0.2-0.2,0.5-0.5,0.8-0.7c0.3-0.2,0.6-0.4,0.9-0.5c0.3-0.1,0.7-0.2,1-0.3c0.4-0.1,0.7-0.1,1.1-0.1h-3.2c-0.4,0-0.7,0-1.1,0.1	c-0.4,0.1-0.7,0.2-1,0.3c-0.3,0.1-0.6,0.3-0.9,0.5c-0.3,0.2-0.6,0.4-0.8,0.7c-0.3,0.3-0.5,0.5-0.7,0.8s-0.4,0.6-0.5,0.9	c-0.1,0.3-0.2,0.7-0.3,1c-0.1,0.3-0.1,0.7-0.1,1.1v15.6c0,0.4,0,0.7,0.1,1.1c0.1,0.3,0.2,0.7,0.3,1c0.1,0.3,0.3,0.6,0.5,0.9	c0.2,0.3,0.4,0.6,0.7,0.8c0.2,0.3,0.5,0.5,0.8,0.7s0.6,0.4,0.9,0.5c0.3,0.1,0.7,0.2,1,0.3c0.3,0.1,0.7,0.1,1.1,0.1h3.2	c-0.4,0-0.7,0-1.1-0.1c-0.4-0.1-0.7-0.2-1-0.3c-0.3-0.1-0.6-0.3-0.9-0.5c-0.3-0.2-0.6-0.4-0.8-0.7c-0.2-0.2-0.5-0.5-0.7-0.8	c-0.2-0.3-0.4-0.6-0.5-0.9s-0.2-0.7-0.3-1C42.1,107.2,42,106.8,42,106.5z" class="st6"/><path d="M59.4,90.8c0-0.4,0-0.7-0.1-1.1c-0.1-0.4-0.2-0.7-0.3-1c-0.1-0.3-0.3-0.6-0.5-0.9c-0.2-0.3-0.4-0.6-0.7-0.8	c-0.3-0.2-0.5-0.5-0.8-0.7c-0.3-0.2-0.6-0.4-0.9-0.5c-0.3-0.1-0.7-0.2-1-0.3c-0.3-0.1-0.7-0.1-1.1-0.1h-6.5c-0.4,0-0.7,0-1.1,0.1	c-0.3,0.1-0.7,0.2-1,0.3c-0.3,0.1-0.6,0.3-0.9,0.5c-0.3,0.2-0.6,0.4-0.8,0.7c-0.3,0.3-0.5,0.5-0.7,0.8c-0.2,0.3-0.4,0.6-0.5,0.9	c-0.1,0.3-0.2,0.7-0.3,1c-0.1,0.3-0.1,0.7-0.1,1.1v15.6c0,0.4,0,0.7,0.1,1.1c0.1,0.3,0.2,0.7,0.3,1c0.1,0.3,0.3,0.6,0.5,0.9	c0.2,0.3,0.4,0.6,0.7,0.8c0.3,0.3,0.5,0.5,0.8,0.7c0.3,0.2,0.6,0.4,0.9,0.5c0.3,0.1,0.7,0.2,1,0.3c0.4,0.1,0.7,0.1,1.1,0.1H54	c0.4,0,0.7,0,1.1-0.1c0.4-0.1,0.7-0.2,1-0.3c0.3-0.1,0.6-0.3,0.9-0.5c0.3-0.2,0.6-0.4,0.8-0.7c0.2-0.2,0.5-0.5,0.7-0.8	c0.2-0.3,0.4-0.6,0.5-0.9c0.1-0.3,0.2-0.7,0.3-1c0.1-0.4,0.1-0.7,0.1-1.1" class="st10"/><path d="M55.1,93.3c0-0.4-0.1-0.7-0.2-1.1c-0.1-0.3-0.3-0.6-0.6-0.9c-0.3-0.3-0.6-0.5-0.9-0.6	c-0.3-0.1-0.7-0.2-1.1-0.2h-3.3c-0.4,0-0.7,0.1-1.1,0.2c-0.3,0.1-0.6,0.3-0.9,0.6c-0.3,0.3-0.5,0.6-0.6,0.9	c-0.1,0.3-0.2,0.7-0.2,1.1V104c0,1.5,1.2,2.8,3.6,2.8h1.7" class="st11"/><path d="M127.2,134.2c-0.5,0-1-0.2-1.4-0.6l-5.7-5.7c-0.2-0.2-0.3-0.4-0.4-0.6c-0.1-0.2-0.1-0.5-0.1-0.8	c0-0.3,0.1-0.5,0.1-0.8c0.1-0.2,0.2-0.5,0.4-0.6c0.2-0.2,0.4-0.3,0.6-0.4c0.2-0.1,0.5-0.1,0.8-0.1c0.3,0,0.5,0.1,0.8,0.1	c0.2,0.1,0.5,0.2,0.6,0.4l4.3,4.3l15.6-15.5c0.2-0.2,0.4-0.3,0.6-0.4c0.2-0.1,0.5-0.1,0.8-0.1c0.3,0,0.5,0.1,0.7,0.1	c0.2,0.1,0.5,0.2,0.6,0.4c0.2,0.2,0.3,0.4,0.4,0.6c0.1,0.2,0.1,0.5,0.1,0.8c0,0.3,0,0.5-0.1,0.8c-0.1,0.2-0.2,0.5-0.4,0.6	l-16.9,16.9C128.2,134,127.8,134.2,127.2,134.2z" class="st11"/><path d="M142.3,129.6c0,1-0.1,2-0.3,3s-0.5,1.9-0.9,2.8c-0.4,0.9-0.8,1.8-1.4,2.6c-0.6,0.8-1.2,1.6-1.9,2.3	c-0.7,0.7-1.5,1.3-2.3,1.9c-0.8,0.6-1.7,1-2.6,1.4c-0.9,0.4-1.9,0.7-2.8,0.9c-1,0.2-2,0.3-3,0.3s-2-0.1-3-0.3	c-1-0.2-1.9-0.5-2.8-0.9c-0.9-0.4-1.8-0.8-2.6-1.4c-0.8-0.6-1.6-1.2-2.3-1.9c-0.7-0.7-1.3-1.5-1.9-2.3c-0.6-0.8-1-1.7-1.4-2.6	c-0.4-0.9-0.7-1.9-0.9-2.8c-0.2-1-0.3-2-0.3-3s0.1-2,0.3-3c0.2-1,0.5-1.9,0.9-2.8s0.8-1.8,1.4-2.6c0.6-0.8,1.2-1.6,1.9-2.3	c0.7-0.7,1.5-1.3,2.3-1.9c0.8-0.6,1.7-1,2.6-1.4c0.9-0.4,1.9-0.7,2.8-0.9c1-0.2,2-0.3,3-0.3" class="st9"/><path d="M46.3,97.2h5c0.3,0,0.6,0.1,0.9,0.2c0.3,0.1,0.5,0.3,0.8,0.5c0.2,0.2,0.4,0.5,0.5,0.8s0.2,0.6,0.2,0.9v5	c0,0.3-0.1,0.6-0.2,0.9c-0.1,0.3-0.3,0.5-0.5,0.8c-0.2,0.2-0.5,0.4-0.8,0.5c-0.3,0.1-0.6,0.2-0.9,0.2" class="st11"/><g><defs><rect id="SVGID_1_" width="50" height="48" x="97" y="47"/></defs><clipPath id="SVGID_2_"><use style="overflow:visible" xlink:href="#SVGID_1_"/></clipPath><g class="st12"><path d="M125.4,64.3c-1.1,0-2.2,0.1-3.2,0.4c-1,0.3-2,0.7-3,1.3c-0.9,0.6-1.8,1.3-2.5,2.1c-0.7,0.8-1.3,1.7-1.8,2.7 c0.5,1,1.1,1.9,1.8,2.7c0.7,0.8,1.6,1.5,2.5,2.1c0.9,0.6,1.9,1,3,1.3c1.1,0.3,2.1,0.4,3.2,0.4c1.1,0,2.2-0.1,3.2-0.4 c1.1-0.3,2-0.7,3-1.3c0.9-0.6,1.8-1.3,2.5-2.1c0.7-0.8,1.3-1.7,1.8-2.7c-0.5-1-1.1-1.9-1.8-2.7c-0.7-0.8-1.6-1.5-2.5-2.1 c-0.9-0.6-1.9-1-3-1.3C127.6,64.4,126.5,64.3,125.4,64.3z" class="st13"/></g></g><g><defs><rect id="SVGID_3_" width="46" height="48" x="101" y="47"/></defs><clipPath id="SVGID_4_"><use style="overflow:visible" xlink:href="#SVGID_3_"/></clipPath><g class="st14"><path d="M131.9,70.7c0,0.4,0,0.8-0.1,1.3s-0.2,0.8-0.4,1.2c-0.2,0.4-0.4,0.8-0.6,1.1c-0.2,0.4-0.5,0.7-0.8,1 c-0.3,0.3-0.6,0.6-1,0.8c-0.4,0.2-0.7,0.4-1.1,0.6c-0.4,0.2-0.8,0.3-1.2,0.4c-0.4,0.1-0.8,0.1-1.3,0.1c-0.4,0-0.8,0-1.3-0.1 c-0.4-0.1-0.8-0.2-1.2-0.4c-0.4-0.2-0.8-0.4-1.1-0.6c-0.4-0.2-0.7-0.5-1-0.8c-0.3-0.3-0.6-0.6-0.8-1c-0.2-0.4-0.4-0.7-0.6-1.1 c-0.2-0.4-0.3-0.8-0.4-1.2c-0.1-0.4-0.1-0.8-0.1-1.3c0-0.4,0-0.8,0.1-1.3c0.1-0.4,0.2-0.8,0.4-1.2c0.2-0.4,0.4-0.8,0.6-1.1 c0.2-0.4,0.5-0.7,0.8-1c0.3-0.3,0.6-0.6,1-0.8c0.4-0.2,0.7-0.4,1.1-0.6c0.4-0.2,0.8-0.3,1.2-0.4s0.8-0.1,1.3-0.1 c0.4,0,0.8,0,1.3,0.1c0.4,0.1,0.8,0.2,1.2,0.4c0.4,0.2,0.8,0.4,1.1,0.6c0.4,0.2,0.7,0.5,1,0.8c0.3,0.3,0.6,0.6,0.8,1 c0.2,0.4,0.4,0.7,0.6,1.1c0.2,0.4,0.3,0.8,0.4,1.2C131.9,69.9,131.9,70.3,131.9,70.7z" class="st13"/></g></g><path d="M125.4,60.5v1.4" class="st13"/><path d="M125.4,79.6V81" class="st13"/><path d="M120.3,61.9l0.7,1.2" class="st13"/><g><defs><rect id="SVGID_5_" width="35" height="36" x="112" y="61"/></defs><clipPath id="SVGID_6_"><use style="overflow:visible" xlink:href="#SVGID_5_"/></clipPath><g class="st15"><path d="M129.8,78.4l0.7,1.2" class="st13"/></g></g><path d="M120.3,79.6l0.7-1.2" class="st13"/><g><defs><rect id="SVGID_7_" width="35" height="37" x="112" y="44"/></defs><clipPath id="SVGID_8_"><use style="overflow:visible" xlink:href="#SVGID_7_"/></clipPath><g class="st16"><path d="M129.8,63.1l0.7-1.2" class="st13"/></g></g><path d="M124.3,67.4l0.4-0.4c0.2-0.2,0.4-0.3,0.6-0.3c0.2,0,0.5,0.1,0.6,0.3l0.4,0.4c0.2,0.2,0.3,0.4,0.3,0.6	c0,0.2-0.1,0.5-0.3,0.6l-0.4,0.4c-0.2,0.2-0.4,0.3-0.6,0.3c-0.2,0-0.5-0.1-0.6-0.3l-0.4-0.4c-0.2-0.2-0.3-0.4-0.3-0.6	C124.1,67.8,124.2,67.6,124.3,67.4z" class="st17"/><path d="M125.4,69.4v5.4" class="st18"/><path d="M127.2,72.3h-1.8" class="st13"/><path d="M127.2,74.4h-1.8" class="st13"/><path d="M37,142.6h45.4" class="st11"/><path d="M39.8,142.6v6.1" class="st11"/><path d="M43.4,142.6v6.1" class="st11"/><path d="M47,142.6v6.1" class="st11"/><path d="M50.7,142.6v6.1" class="st11"/><path d="M54.3,142.6v6.1" class="st11"/><path d="M57.9,142.6v6.1" class="st11"/><path d="M61.5,142.6v6.1" class="st11"/><path d="M65.2,142.6v6.1" class="st11"/><path d="M68.8,142.6v6.1" class="st11"/><path d="M72.4,142.6v6.1" class="st11"/><path d="M76.1,142.6v6.1" class="st11"/><path d="M79.7,142.6v6.1" class="st11"/><path d="M122.8,101.7l2.5,2.5l4.4-4.4" class="st13"/><path d="M122.8,107.1l2.5,2.5l4.4-4.4" class="st13"/><path d="M86.5,140.8h18.8" class="st13"/><path d="M108.7,140.8c0,0.2,0,0.5-0.1,0.7c-0.1,0.2-0.2,0.4-0.4,0.6c-0.2,0.2-0.4,0.3-0.6,0.4	c-0.2,0.1-0.4,0.1-0.7,0.1c-0.2,0-0.5,0-0.7-0.1c-0.2-0.1-0.4-0.2-0.6-0.4c-0.2-0.2-0.3-0.4-0.4-0.6c-0.1-0.2-0.1-0.4-0.1-0.7	c0-0.2,0-0.5,0.1-0.7c0.1-0.2,0.2-0.4,0.4-0.6c0.2-0.2,0.4-0.3,0.6-0.4c0.2-0.1,0.4-0.1,0.7-0.1c0.2,0,0.5,0,0.7,0.1	c0.2,0.1,0.4,0.2,0.6,0.4c0.2,0.2,0.3,0.4,0.4,0.6C108.7,140.3,108.7,140.6,108.7,140.8z" class="st13"/><path d="M82.6,85.4v9.2c0,0.3,0,0.6,0.1,0.9c0.1,0.3,0.1,0.6,0.3,0.9c0.1,0.3,0.3,0.5,0.4,0.8c0.2,0.3,0.4,0.5,0.6,0.7	c0.2,0.2,0.4,0.4,0.7,0.6c0.3,0.2,0.5,0.3,0.8,0.4s0.6,0.2,0.9,0.3c0.3,0.1,0.6,0.1,0.9,0.1h7.9c0.3,0,0.6,0,0.9-0.1	c0.3-0.1,0.6-0.1,0.9-0.3c0.3-0.1,0.5-0.3,0.8-0.4c0.3-0.2,0.5-0.4,0.7-0.6c0.2-0.2,0.4-0.4,0.6-0.7c0.2-0.2,0.3-0.5,0.4-0.8	c0.1-0.3,0.2-0.6,0.3-0.9c0.1-0.3,0.1-0.6,0.1-0.9v-9.2H82.6z" class="st10"/><path d="M103.1,85.4H50.7" class="st10"/><path d="M125.5,82.8v14.5" class="st13"/><path d="M63.2,36.1c0.2-1.3,0.3-2.5,0.3-3.8c0-1.3-0.1-2.6-0.4-3.8c-0.2-1.3-0.6-2.5-1-3.7c-0.5-1.2-1-2.3-1.7-3.4	c-0.7-1.1-1.4-2.1-2.3-3.1c-0.8-1-1.8-1.8-2.8-2.6s-2.1-1.5-3.2-2.1c-1.1-0.6-2.3-1.1-3.5-1.5s-2.5-0.7-3.7-0.8	c-1.3-0.2-2.5-0.2-3.8-0.2s-2.5,0.2-3.8,0.5s-2.5,0.7-3.6,1.2c-1.2,0.5-2.3,1.1-3.4,1.8c-1.1,0.7-2.1,1.5-3,2.4	c-0.9,0.9-1.8,1.9-2.5,2.9c-0.7,1-1.4,2.1-1.9,3.3c-0.4,0-0.7,0-1,0c-0.9,0-1.8,0.1-2.6,0.2c-0.9,0.2-1.7,0.4-2.5,0.7	c-0.8,0.3-1.6,0.7-2.4,1.2c-0.7,0.5-1.4,1-2.1,1.6c-0.6,0.6-1.2,1.3-1.7,2c-0.5,0.7-1,1.5-1.3,2.3c-0.4,0.8-0.7,1.6-0.9,2.5	C8.2,34.6,8,35.5,8,36.3c-0.5,0.2-1,0.4-1.5,0.7c-0.5,0.3-0.9,0.6-1.4,1c-0.4,0.4-0.8,0.8-1.2,1.2c-0.4,0.4-0.7,0.9-1,1.4	s-0.5,1-0.7,1.5c-0.2,0.5-0.3,1.1-0.4,1.6c-0.1,0.6-0.1,1.1-0.1,1.7s0.1,1.1,0.1,1.7c0.1,0.6,0.2,1.1,0.4,1.6c0.2,0.5,0.4,1,0.7,1.5	c0.3,0.5,0.6,0.9,1,1.4c0.4,0.4,0.8,0.8,1.2,1.2c0.4,0.4,0.9,0.7,1.4,1c0.5,0.3,1,0.5,1.5,0.7c0.5,0.2,1.1,0.3,1.6,0.4	c0.6,0.1,1.1,0.1,1.7,0.1H37v0H25.2l18.7-36v29h11.8l-3.6,7h8.6c0.6,0,1.2-0.1,1.7-0.2s1.1-0.3,1.7-0.5c0.5-0.2,1.1-0.5,1.6-0.8	s1-0.6,1.4-1c0.4-0.4,0.8-0.8,1.2-1.2c0.4-0.4,0.7-0.9,1-1.4c0.3-0.5,0.5-1,0.7-1.6s0.3-1.1,0.4-1.7s0.1-1.1,0.1-1.7	c0-0.6-0.1-1.2-0.2-1.7c-0.1-0.6-0.3-1.1-0.5-1.6c-0.2-0.5-0.5-1-0.8-1.5c-0.3-0.5-0.7-0.9-1.1-1.4c-0.4-0.4-0.8-0.8-1.3-1.1	c-0.5-0.3-1-0.6-1.5-0.9S63.8,36.3,63.2,36.1L63.2,36.1z" class="st19"/><path d="M60.7,55.1c0.5,0,1,0,1.6-0.1c0.5-0.1,1-0.2,1.5-0.4s1-0.4,1.4-0.6s0.9-0.5,1.3-0.8c0.4-0.3,0.8-0.7,1.2-1	c0.4-0.4,0.7-0.8,1-1.2s0.6-0.9,0.8-1.4s0.4-1,0.5-1.5c-0.2-0.8-0.5-1.6-1-2.3c-0.4-0.7-0.9-1.4-1.5-2s-1.2-1.1-2-1.5	c-0.7-0.4-1.5-0.7-2.3-1c0.2-1.2,0.3-2.5,0.3-3.7c0-0.4,0-0.9,0-1.3l-0.3-0.1c0.1-0.4,0.1-0.8,0.2-1.2c-0.1-1.1-0.4-2.3-0.7-3.4	c-0.3-1.1-0.7-2.2-1.2-3.2c-0.5-1-1.1-2-1.7-3s-1.4-1.8-2.2-2.7c-0.8-0.8-1.7-1.6-2.6-2.3c-0.9-0.7-1.9-1.3-2.9-1.8	c-1-0.5-2.1-1-3.2-1.3s-2.2-0.6-3.3-0.8c-1.1-0.2-2.3-0.3-3.4-0.3c-1.1,0-2.3,0.1-3.4,0.3c-1.1,0.2-2.2,0.5-3.3,0.8	c-1.1,0.4-2.1,0.8-3.2,1.3s-2,1.1-2.9,1.8c-0.9,0.7-1.8,1.4-2.6,2.3c-0.8,0.8-1.5,1.7-2.2,2.7s-1.2,1.9-1.7,3c-0.4,0-0.7,0-1,0	c-0.9,0-1.8,0.1-2.6,0.2c-0.9,0.2-1.7,0.4-2.5,0.7c-0.8,0.3-1.6,0.7-2.4,1.2c-0.8,0.5-1.4,1-2.1,1.6c-0.6,0.6-1.2,1.3-1.7,2	c-0.5,0.7-1,1.5-1.3,2.3S8.6,38,8.4,38.9C8.1,39.7,8,40.6,8,41.5c-0.7,0.3-1.4,0.6-2,1C5.3,43,4.7,43.4,4.2,44	c-0.5,0.6-1,1.2-1.3,1.9C2.5,46.5,2.2,47.2,2,48c0.1,0.5,0.3,1,0.5,1.5c0.2,0.5,0.5,0.9,0.8,1.4c0.3,0.4,0.6,0.8,1,1.2	c0.4,0.4,0.8,0.7,1.2,1c0.4,0.3,0.9,0.6,1.3,0.8c0.5,0.2,0.9,0.4,1.4,0.6s1,0.3,1.5,0.4c0.5,0.1,1,0.1,1.6,0.1h16.6v0h-2.6l18.7-36	v29h11.8L53,53.2l-1,1.9H60.7L60.7,55.1z" class="st3"/><path d="M55.7,48H43.9V19L25.2,55H37v29L55.7,48z" class="st7"/><path d="M37,55v15.1L48.5,48H36.7V32.9L25.2,55H37z" class="st5"/><path d="M20.9,32.4c0-0.7,0-1.4,0.1-2.1s0.2-1.4,0.3-2.1c0.1-0.7,0.3-1.4,0.5-2c0.2-0.7,0.4-1.3,0.7-2	c0.3-0.6,0.6-1.3,0.9-1.9c0.3-0.6,0.7-1.2,1.1-1.8c0.4-0.6,0.8-1.1,1.2-1.7c0.4-0.5,0.9-1.1,1.4-1.6c0.5-0.5,1-1,1.6-1.4	c0.5-0.4,1.1-0.9,1.7-1.2c0.6-0.4,1.2-0.8,1.8-1.1c0.6-0.3,1.2-0.6,1.9-0.9c0.6-0.3,1.3-0.5,2-0.7c0.7-0.2,1.3-0.4,2-0.5	c0.7-0.1,1.4-0.2,2.1-0.3c0.7-0.1,1.4-0.1,2.1-0.1c0.7,0,1.4,0,2.1,0.1c0.7,0.1,1.4,0.2,2.1,0.3c0.7,0.1,1.4,0.3,2,0.5	c0.7,0.2,1.3,0.4,2,0.7c0.6,0.3,1.3,0.6,1.9,0.9c0.6,0.3,1.2,0.7,1.8,1.1c0.6,0.4,1.1,0.8,1.7,1.2c0.5,0.4,1.1,0.9,1.6,1.4	c0.5,0.5,1,1,1.4,1.6c0.4,0.5,0.9,1.1,1.2,1.7c0.4,0.6,0.8,1.2,1.1,1.8c0.3,0.6,0.6,1.2,0.9,1.9c0.3,0.6,0.5,1.3,0.7,2	c0.2,0.7,0.4,1.3,0.5,2c0.1,0.7,0.2,1.4,0.3,2.1c0.1,0.7,0.1,1.4,0.1,2.1c0,0.9-0.1,1.7-0.2,2.6" class="st10"/><path d="M63.2,36.1c0.2-1.3,0.3-2.5,0.3-3.8c0-1.3-0.1-2.6-0.4-3.8c-0.2-1.3-0.6-2.5-1-3.7c-0.5-1.2-1-2.3-1.7-3.4	c-0.7-1.1-1.4-2.1-2.3-3.1c-0.8-1-1.8-1.8-2.8-2.6c-1-0.8-2.1-1.5-3.2-2.1c-1.1-0.6-2.3-1.1-3.5-1.5s-2.5-0.7-3.7-0.8	c-1.3-0.2-2.5-0.2-3.8-0.2s-2.5,0.2-3.8,0.5c-1.2,0.3-2.5,0.7-3.6,1.2c-1.2,0.5-2.3,1.1-3.4,1.8c-1.1,0.7-2.1,1.5-3,2.4	c-0.9,0.9-1.8,1.9-2.5,2.9c-0.7,1-1.4,2.1-1.9,3.3c-0.4,0-0.7,0-1,0c-0.9,0-1.8,0.1-2.6,0.2c-0.9,0.2-1.7,0.4-2.5,0.7	c-0.8,0.3-1.6,0.7-2.4,1.2c-0.7,0.5-1.4,1-2.1,1.6c-0.6,0.6-1.2,1.3-1.7,2c-0.5,0.7-1,1.5-1.3,2.3c-0.4,0.8-0.7,1.6-0.9,2.5	C8.2,34.6,8,35.5,8,36.3c-0.5,0.2-1,0.4-1.5,0.7c-0.5,0.3-0.9,0.6-1.4,1c-0.4,0.4-0.8,0.8-1.2,1.2c-0.4,0.4-0.7,0.9-1,1.4	s-0.5,1-0.7,1.5c-0.2,0.5-0.3,1.1-0.4,1.6c-0.1,0.6-0.1,1.1-0.1,1.7s0.1,1.1,0.1,1.7c0.1,0.6,0.2,1.1,0.4,1.6c0.2,0.5,0.4,1,0.7,1.5	c0.3,0.5,0.6,0.9,1,1.4c0.4,0.4,0.8,0.8,1.2,1.2c0.4,0.4,0.9,0.7,1.4,1c0.5,0.3,1,0.5,1.5,0.7c0.5,0.2,1.1,0.3,1.6,0.4	c0.6,0.1,1.1,0.1,1.7,0.1H37v0H25.2l18.7-36v29h11.8l-3.6,7h8.6c0.6,0,1.2-0.1,1.7-0.2c0.6-0.1,1.1-0.3,1.7-0.5	c0.5-0.2,1.1-0.5,1.6-0.8s1-0.6,1.4-1c0.4-0.4,0.8-0.8,1.2-1.2c0.4-0.4,0.7-0.9,1-1.4c0.3-0.5,0.5-1,0.7-1.6	c0.2-0.6,0.3-1.1,0.4-1.7c0.1-0.6,0.1-1.1,0.1-1.7c0-0.6-0.1-1.2-0.2-1.7c-0.1-0.6-0.3-1.1-0.5-1.6c-0.2-0.5-0.5-1-0.8-1.5	c-0.3-0.5-0.7-0.9-1.1-1.4c-0.4-0.4-0.8-0.8-1.3-1.1c-0.5-0.3-1-0.6-1.5-0.9C64.3,36.5,63.8,36.3,63.2,36.1L63.2,36.1z" class="st10"/><path d="M55.7,48H43.9V19L25.2,55H37v29L55.7,48z" class="st9"/><path d="M32.2,140.8h-0.6" class="st13"/><path d="M30.4,141.4h-1.2v-1.2h1.2 M28.1,141.4H27v-1.2h1.2 M25.8,141.4h-1.2v-1.2h1.2 M23.5,141.4h-1.2v-1.2h1.2 M21.2,141.4H20v-1.2h1.2" class="st5"/><path d="M18.8,140.8h-0.6v-0.6" class="st13"/><path d="M17.6,139v-1.2h1.2v1.2 M17.6,136.7v-1.2h1.2v1.2 M17.6,134.3v-1.2h1.2v1.2 M17.6,132v-1.2h1.2v1.2 M17.6,129.7	v-1.2h1.2v1.2 M17.6,127.3v-1.2h1.2v1.2 M17.6,125v-1.2h1.2v1.2 M17.6,122.7v-1.2h1.2v1.2 M17.6,120.3v-1.2h1.2v1.2 M17.6,118v-1.2	h1.2v1.2 M17.6,115.6v-1.2h1.2v1.2 M17.6,113.3v-1.2h1.2v1.2 M17.6,111v-1.2h1.2v1.2 M17.6,108.6v-1.2h1.2v1.2 M17.6,106.3v-1.2h1.2	v1.2 M17.6,104v-1.2h1.2v1.2 M17.6,101.6v-1.2h1.2v1.2" class="st5"/><path d="M18.2,99.3v-0.6" class="st13"/><path d="M12.3,140.8v-1.2h1.2v1.2 M12.3,138.4v-1.2h1.2v1.2 M12.3,136v-1.2h1.2v1.2 M12.3,133.6v-1.2h1.2v1.2 M12.3,131.2V130h1.2v1.2 M12.3,128.8v-1.2h1.2v1.2 M12.3,126.4v-1.2h1.2v1.2 M12.3,124v-1.2h1.2v1.2 M12.3,121.6v-1.2h1.2v1.2 M12.3,119.2V118h1.2v1.2 M12.3,116.8v-1.2h1.2v1.2 M12.3,114.4v-1.2h1.2v1.2 M12.3,112v-1.2h1.2v1.2 M12.3,109.6v-1.2h1.2v1.2 M12.3,107.2V106h1.2v1.2 M12.3,104.8v-1.2h1.2v1.2 M12.3,102.4v-1.2h1.2v1.2 M12.3,100v-1.2h1.2v1.2" class="st5"/><path d="M6.6,140.8v-1.2h1.2v1.2 M6.6,138.4v-1.2h1.2v1.2 M6.6,136v-1.2h1.2v1.2 M6.6,133.6v-1.2h1.2v1.2 M6.6,131.2	V130h1.2v1.2 M6.6,128.8v-1.2h1.2v1.2 M6.6,126.4v-1.2h1.2v1.2 M6.6,124v-1.2h1.2v1.2 M6.6,121.6v-1.2h1.2v1.2 M6.6,119.2V118h1.2	v1.2 M6.6,116.8v-1.2h1.2v1.2 M6.6,114.4v-1.2h1.2v1.2 M6.6,112v-1.2h1.2v1.2 M6.6,109.6v-1.2h1.2v1.2 M6.6,107.2V106h1.2v1.2 M6.6,104.8v-1.2h1.2v1.2 M6.6,102.4v-1.2h1.2v1.2 M6.6,100v-1.2h1.2v1.2 M6.6,97.6v-1.2h1.2v1.2 M6.6,95.2V94h1.2v1.2" class="st5"/><path d="M28.3,82h-2.2c-0.1-0.4-0.3-0.9-0.5-1.3l1.5-1.5c0.1-0.1,0.2-0.2,0.2-0.3c0.1-0.1,0.1-0.2,0.1-0.4	c0-0.1,0-0.3-0.1-0.4c-0.1-0.1-0.1-0.2-0.2-0.3l-2.1-2.1c-0.2-0.2-0.4-0.3-0.7-0.3c-0.3,0-0.5,0.1-0.7,0.3L22,77.2	c-0.4-0.2-0.8-0.4-1.3-0.5v-2.2c0-0.1,0-0.3-0.1-0.4s-0.1-0.2-0.2-0.3c-0.1-0.1-0.2-0.2-0.3-0.2c-0.1-0.1-0.2-0.1-0.4-0.1h-3	c-0.3,0-0.5,0.1-0.7,0.3c-0.2,0.2-0.3,0.4-0.3,0.7v2.2c-0.4,0.1-0.9,0.3-1.3,0.5l-1.6-1.5c-0.1-0.1-0.2-0.2-0.3-0.2	s-0.2-0.1-0.4-0.1c-0.1,0-0.3,0-0.4,0.1c-0.1,0.1-0.2,0.1-0.3,0.2l-2.1,2.1c-0.1,0.1-0.2,0.2-0.2,0.3c-0.1,0.1-0.1,0.2-0.1,0.4	c0,0.1,0,0.3,0.1,0.4c0.1,0.1,0.1,0.2,0.2,0.3l1.6,1.5c-0.2,0.4-0.4,0.8-0.5,1.3H8.2c-0.1,0-0.3,0-0.4,0.1c-0.1,0.1-0.2,0.1-0.3,0.2	c-0.1,0.1-0.2,0.2-0.2,0.3c-0.1,0.1-0.1,0.2-0.1,0.4v3c0,0.1,0,0.3,0.1,0.4c0.1,0.1,0.1,0.2,0.2,0.3c0.1,0.1,0.2,0.2,0.3,0.2	C7.9,87,8.1,87,8.2,87h2.2c0.1,0.4,0.3,0.9,0.5,1.3l-1.6,1.5c-0.2,0.2-0.3,0.4-0.3,0.7c0,0.3,0.1,0.5,0.3,0.7l2.1,2.1	c0.1,0.1,0.2,0.2,0.3,0.2c0.1,0,0.2,0.1,0.4,0.1c0.1,0,0.3,0,0.4-0.1c0.1-0.1,0.2-0.1,0.3-0.2l1.6-1.6c0.4,0.2,0.8,0.4,1.3,0.5v2.2	c0,0.1,0,0.3,0.1,0.4c0.1,0.1,0.1,0.2,0.2,0.3c0.1,0.1,0.2,0.2,0.3,0.2c0.1,0,0.2,0.1,0.4,0.1h3c0.1,0,0.3,0,0.4-0.1	c0.1-0.1,0.2-0.1,0.3-0.2c0.1-0.1,0.2-0.2,0.2-0.3c0.1-0.1,0.1-0.2,0.1-0.4v-2.2c0.4-0.1,0.9-0.3,1.3-0.5l1.5,1.6	c0.1,0.1,0.2,0.2,0.3,0.2c0.1,0.1,0.2,0.1,0.4,0.1s0.3,0,0.4-0.1c0.1-0.1,0.2-0.1,0.3-0.2l2.1-2.1c0.1-0.1,0.2-0.2,0.2-0.3	c0-0.1,0.1-0.2,0.1-0.4c0-0.1,0-0.3-0.1-0.4c-0.1-0.1-0.1-0.2-0.2-0.3l-1.5-1.5c0.2-0.4,0.4-0.8,0.5-1.3h2.2c0.3,0,0.5-0.1,0.7-0.3	c0.2-0.2,0.3-0.4,0.3-0.7v-3c0-0.3-0.1-0.5-0.3-0.7C28.8,82.1,28.5,82,28.3,82z" class="st13"/><path d="M21.7,84.5c0,0.5-0.1,0.9-0.3,1.3c-0.2,0.4-0.4,0.8-0.8,1.1c-0.3,0.3-0.7,0.6-1.1,0.8	c-0.4,0.2-0.9,0.3-1.3,0.3c-0.5,0-0.9-0.1-1.3-0.3c-0.4-0.2-0.8-0.4-1.1-0.8c-0.3-0.3-0.6-0.7-0.8-1.1c-0.2-0.4-0.3-0.9-0.3-1.3	c0-0.5,0.1-0.9,0.3-1.3c0.2-0.4,0.4-0.8,0.8-1.1c0.3-0.3,0.7-0.6,1.1-0.8c0.4-0.2,0.9-0.3,1.3-0.3c0.5,0,0.9,0.1,1.3,0.3	c0.4,0.2,0.8,0.4,1.1,0.8c0.3,0.3,0.6,0.7,0.8,1.1C21.6,83.6,21.7,84,21.7,84.5z" class="st13"/><path d="M23.4,63.5h-1.1c-0.1-0.2-0.2-0.4-0.3-0.7l0.8-0.8c0.1-0.1,0.1-0.2,0.1-0.4c0-0.1-0.1-0.3-0.1-0.4l-1.1-1.1	c-0.1-0.1-0.2-0.2-0.4-0.2c-0.1,0-0.3,0.1-0.4,0.2l-0.8,0.8c-0.2-0.1-0.4-0.2-0.6-0.3v-1.1c0-0.1-0.1-0.3-0.2-0.4	c-0.1-0.1-0.2-0.1-0.4-0.1h-1.6c-0.1,0-0.3,0.1-0.4,0.1c-0.1,0.1-0.1,0.2-0.1,0.4v1.1c-0.2,0.1-0.4,0.2-0.6,0.3l-0.8-0.8	c-0.1-0.1-0.2-0.1-0.4-0.2c-0.1,0-0.3,0.1-0.4,0.2l-1.1,1.1c-0.1,0.1-0.1,0.2-0.1,0.4c0,0.1,0.1,0.3,0.1,0.4l0.8,0.8	c-0.1,0.2-0.2,0.4-0.3,0.6h-1.1c-0.1,0-0.3,0.1-0.4,0.2c-0.1,0.1-0.1,0.2-0.1,0.4v1.6c0,0.1,0.1,0.3,0.1,0.4	c0.1,0.1,0.2,0.1,0.4,0.1h1.1c0.1,0.2,0.2,0.4,0.3,0.6l-0.8,0.8c-0.1,0.1-0.1,0.2-0.1,0.4c0,0.1,0,0.3,0.1,0.4l1.1,1.1	c0.1,0.1,0.2,0.1,0.4,0.1s0.3,0,0.4-0.1l0.8-0.8c0.2,0.1,0.4,0.2,0.6,0.3V70c0,0.1,0.1,0.3,0.1,0.4c0.1,0.1,0.2,0.1,0.4,0.1H19	c0.1,0,0.3,0,0.4-0.1c0.1-0.1,0.2-0.2,0.2-0.4v-1.1c0.2-0.1,0.4-0.2,0.6-0.3l0.8,0.8c0.1,0.1,0.2,0.2,0.4,0.2c0.1,0,0.3-0.1,0.4-0.2	l1.1-1.1c0.1-0.1,0.1-0.2,0.1-0.4s-0.1-0.3-0.1-0.4L22,66.8c0.1-0.2,0.2-0.4,0.3-0.7h1.1c0.1,0,0.3-0.1,0.4-0.1	c0.1-0.1,0.1-0.2,0.1-0.4V64c0-0.1-0.1-0.3-0.1-0.4C23.7,63.6,23.5,63.5,23.4,63.5z" class="st13"/><path d="M23,111.6l4.6,4.6" class="st13"/><path d="M23,116.5l4.6,4.6" class="st13"/><path d="M23,121.5l4.6,4.6" class="st13"/><path d="M23,126.4l4.6,4.6" class="st13"/><path d="M23,131.4v4.6h4.6" class="st13"/><path d="M112.5,82.1l2.6-1.5l2.6,1.5v3.1l-2.6,1.5l-2.6-1.5V82.1z" class="st13"/><path d="M115.1,86.8l2.6-1.5l2.6,1.5v3.1l-2.6,1.5l-2.6-1.5V86.8z" class="st13"/><path d="M109.9,86.8l2.6-1.5l2.6,1.5v3.1l-2.6,1.5l-2.6-1.5V86.8z" class="st13"/><g><defs><rect id="SVGID_9_" width="31" height="41" x="116" y="63"/></defs><clipPath id="SVGID_10_"><use style="overflow:visible" xlink:href="#SVGID_9_"/></clipPath><g class="st20"><path d="M133.1,82.1l2.6-1.5l2.6,1.5v3.1l-2.6,1.5l-2.6-1.5V82.1z" class="st13"/></g></g><g><defs><rect id="SVGID_11_" width="29" height="41" x="118" y="68"/></defs><clipPath id="SVGID_12_"><use style="overflow:visible" xlink:href="#SVGID_11_"/></clipPath><g class="st21"><path d="M135.7,86.8l2.6-1.5l2.6,1.5v3.1l-2.6,1.5l-2.6-1.5V86.8z" class="st13"/></g></g><g><defs><rect id="SVGID_13_" width="34" height="41" x="113" y="68"/></defs><clipPath id="SVGID_14_"><use style="overflow:visible" xlink:href="#SVGID_13_"/></clipPath><g class="st22"><path d="M130.5,86.8l2.6-1.5l2.6,1.5v3.1l-2.6,1.5l-2.6-1.5V86.8z" class="st13"/></g></g><path d="M86.7,0.1c-1,0-2.1,0.1-3.1,0.3c-1,0.2-2,0.5-3,0.9c-1,0.4-1.9,0.9-2.7,1.5s-1.7,1.2-2.4,2s-1.4,1.5-2,2.4	s-1.1,1.8-1.5,2.7s-0.7,1.9-0.9,3c-0.2,1-0.3,2-0.3,3.1c0,2.1,0.4,4.2,1.2,6.1s2,3.7,3.5,5.2c1.3,1.5,2.4,3.2,3.1,5	C79.6,34.1,80,36,80,38h6.2V25.2c0-0.1,0.1-0.2,0.1-0.3c0.1-0.1,0.2-0.1,0.3-0.1c0.1,0,0.3,0.1,0.3,0.1c0.1,0.1,0.1,0.2,0.1,0.3V38	h6.2c0.1-2,0.5-3.9,1.2-5.8s1.8-3.5,3.1-5c0.6-0.5,1.1-1.1,1.5-1.8s0.9-1.3,1.3-2c0.4-0.7,0.7-1.4,1-2.1c0.3-0.7,0.5-1.5,0.6-2.2	s0.3-1.5,0.3-2.3c0-0.8,0-1.6,0-2.3c-0.1-0.8-0.2-1.6-0.4-2.3c-0.2-0.8-0.4-1.5-0.7-2.2c-0.3-0.7-0.6-1.4-1-2.1	C100,7.2,99.5,6.6,99,6c-0.5-0.6-1-1.2-1.6-1.7c-0.6-0.5-1.2-1-1.8-1.4c-0.6-0.4-1.3-0.8-2-1.2c-0.7-0.3-1.4-0.6-2.2-0.8	c-0.7-0.2-1.5-0.4-2.3-0.5C88.3,0.2,87.5,0.1,86.7,0.1z M94.1,19.4l-3.5,3.5c-0.1,0.1-0.2,0.1-0.3,0.1s-0.3,0-0.3-0.1l-3.2-3.2	l-3.1,3.2c-0.1,0.1-0.2,0.1-0.4,0.1c-0.1,0-0.2,0-0.3-0.1l-3.5-3.5c-0.1-0.1-0.1-0.2-0.1-0.3s0.1-0.3,0.1-0.3	c0.1-0.1,0.2-0.1,0.3-0.1c0.1,0,0.3,0,0.3,0.1l3.2,3.2l3.1-3.2c0,0,0.1-0.1,0.1-0.1c0,0,0,0,0.1,0c0,0,0.1,0,0.1,0c0,0,0.1,0,0.1,0	c0,0,0.1,0,0.1,0c0,0,0.1,0,0.1,0c0.1,0,0.1,0.1,0.1,0.1c0,0,0,0,0,0l3.2,3.1l3.1-3.2c0.1-0.1,0.2-0.1,0.3-0.1c0.1,0,0.3,0,0.3,0.1	c0.1,0.1,0.1,0.2,0.1,0.3S94.2,19.3,94.1,19.4L94.1,19.4z" class="st23"/><path d="M93.7,41.9h-14c-0.1,0-0.2,0-0.3,0.1c-0.1,0.1-0.1,0.2-0.1,0.3s0,0.2,0.1,0.3c0.1,0.1,0.2,0.1,0.3,0.1h14	c0.1,0,0.3,0,0.3-0.1c0.1-0.1,0.1-0.2,0.1-0.3s0-0.2-0.1-0.3C94,42,93.9,41.9,93.7,41.9z" class="st2"/><path d="M93.7,39.3h-14c-0.1,0-0.2,0-0.3,0.1c-0.1,0.1-0.1,0.2-0.1,0.3c0,0.1,0.1,0.3,0.1,0.3c0.1,0.1,0.2,0.1,0.3,0.1	h14c0.1,0,0.3,0,0.4-0.1c0.1-0.1,0.1-0.2,0.1-0.3c0-0.1-0.1-0.2-0.1-0.3C94,39.3,93.9,39.3,93.7,39.3z" class="st2"/><path d="M93.7,44.4h-14c-0.1,0-0.2,0-0.3,0.1c-0.1,0.1-0.1,0.2-0.1,0.3s0,0.2,0.1,0.3c0.1,0.1,0.2,0.1,0.3,0.1h3.3v1.3	c0,0.5,0.1,1,0.3,1.4c0.2,0.5,0.5,0.8,0.8,1.2c0.3,0.3,0.7,0.6,1.2,0.8s0.9,0.3,1.4,0.3s1-0.1,1.4-0.3c0.4-0.2,0.8-0.5,1.2-0.8	c0.3-0.3,0.6-0.7,0.8-1.2c0.2-0.4,0.3-0.9,0.3-1.4v-1.3h3.3c0.1,0,0.3-0.1,0.3-0.1c0.1-0.1,0.1-0.2,0.1-0.3s0-0.3-0.1-0.3	C94,44.5,93.9,44.4,93.7,44.4z" class="st2"/><path d="M109.5,14.9h-3" class="st13"/><path d="M67.1,14.9h-3" class="st13"/><path d="M106.4,3.5l-2.6,1.5" class="st13"/><path d="M69.7,24.7l-2.6,1.5" class="st13"/><path d="M67.1,3.5l2.6,1.5" class="st13"/><path d="M103.8,24.7l2.6,1.5" class="st13"/><path d="M7.2,71.5V57" class="st13"/><path d="M6.7,73.5h1" class="st13"/><path d="M6.7,75.7h1" class="st13"/><path d="M6.7,77.9h1" class="st13"/><path d="M57.4,61.7H65v5.4h-7.6V61.7z" class="st24"/><path d="M69.5,61.7H90" class="st24"/><path d="M69.5,64.4H90" class="st24"/><path d="M69.5,67.1h11.4" class="st24"/><path d="M83.3,67.1h0.5" class="st24"/><path d="M61.2,61.7v5.4" class="st24"/><path d="M57.4,72.8H65v5.4h-7.6V72.8z" class="st24"/><path d="M69.5,72.8H90" class="st24"/><path d="M69.5,75.5H90" class="st24"/><path d="M69.5,78.2h11.4" class="st24"/><path d="M83.3,78.2h0.5" class="st24"/><path d="M61.2,72.8v5.4" class="st24"/><path d="M125.6,54.1V24.5c0-0.3,0-0.6-0.1-0.8c-0.1-0.3-0.1-0.5-0.2-0.8c-0.1-0.3-0.2-0.5-0.4-0.7	c-0.2-0.2-0.3-0.4-0.5-0.6c-0.2-0.2-0.4-0.4-0.6-0.5c-0.2-0.2-0.5-0.3-0.7-0.4c-0.3-0.1-0.5-0.2-0.8-0.2c-0.3-0.1-0.5-0.1-0.8-0.1	h-17" class="st13"/><path d="M125.6,58.3c0.3,0,0.5-0.1,0.8-0.2c0.3-0.1,0.5-0.3,0.7-0.5c0.2-0.2,0.4-0.4,0.5-0.7c0.1-0.3,0.2-0.5,0.2-0.8	c0-0.3-0.1-0.5-0.2-0.8c-0.1-0.3-0.3-0.5-0.5-0.7c-0.2-0.2-0.4-0.3-0.7-0.5c-0.3-0.1-0.5-0.2-0.8-0.2c-0.3,0-0.5,0.1-0.8,0.2	c-0.3,0.1-0.5,0.3-0.7,0.5c-0.2,0.2-0.3,0.4-0.5,0.7c-0.1,0.3-0.2,0.5-0.2,0.8c0,0.3,0.1,0.5,0.2,0.8c0.1,0.3,0.3,0.5,0.5,0.7	c0.2,0.2,0.4,0.3,0.7,0.5C125.1,58.2,125.3,58.3,125.6,58.3z" class="st13"/><path d="M125.6,56.4c0.1,0,0.2-0.1,0.2-0.2c0-0.1-0.1-0.2-0.2-0.2c-0.1,0-0.2,0.1-0.2,0.2S125.5,56.4,125.6,56.4z" class="st13"/><path d="M125.6,7.7V10" class="st13"/><path d="M125.6,11.2v0.3" class="st13"/><path d="M125.6,12.5v0.3" class="st13"/><path d="M125.6,13.7v0.3" class="st13"/><path d="M125.6,32.9v-2.3" class="st13"/><path d="M125.6,29.4v-0.3" class="st13"/><path d="M125.6,28.1v-0.3" class="st13"/><path d="M125.6,26.9v-0.3" class="st13"/><g><defs><rect id="SVGID_15_" width="32" height="30" x="115"/></defs><clipPath id="SVGID_16_"><use style="overflow:visible" xlink:href="#SVGID_15_"/></clipPath><g class="st25"><path d="M134.6,11.4l-1.6,1.6" class="st13"/></g></g><g><defs><rect id="SVGID_17_" width="33" height="32" x="114"/></defs><clipPath id="SVGID_18_"><use style="overflow:visible" xlink:href="#SVGID_17_"/></clipPath><g class="st26"><path d="M132,13.9l-0.2,0.2" class="st13"/><path d="M131.2,14.8l-0.2,0.2" class="st13"/></g></g><g><defs><rect id="SVGID_19_" width="34" height="33" x="113"/></defs><clipPath id="SVGID_20_"><use style="overflow:visible" xlink:href="#SVGID_19_"/></clipPath><g class="st27"><path d="M130.3,15.6l-0.2,0.2" class="st13"/></g></g><path d="M116.7,29.2l1.6-1.6" class="st13"/><path d="M119.2,26.7l0.2-0.2" class="st13"/><path d="M120.1,25.8l0.2-0.2" class="st13"/><path d="M120.9,25l0.2-0.2" class="st13"/><path d="M138.3,20.3h-2.3" class="st13"/><path d="M134.7,20.3h-0.3" class="st13"/><path d="M133.4,20.3h-0.3" class="st13"/><path d="M132.2,20.3H132" class="st13"/><path d="M113,20.3h2.3" class="st13"/><path d="M116.6,20.3h0.3" class="st13"/><path d="M117.8,20.3h0.3" class="st13"/><path d="M119,20.3h0.3" class="st13"/><g><defs><rect id="SVGID_21_" width="32" height="37" x="115" y="10"/></defs><clipPath id="SVGID_22_"><use style="overflow:visible" xlink:href="#SVGID_21_"/></clipPath><g class="st28"><path d="M134.6,29.2l-1.6-1.6" class="st13"/></g></g><g><defs><rect id="SVGID_23_" width="33" height="35" x="114" y="9"/></defs><clipPath id="SVGID_24_"><use style="overflow:visible" xlink:href="#SVGID_23_"/></clipPath><g class="st29"><path d="M132,26.7l-0.2-0.2" class="st13"/></g></g><g><defs><rect id="SVGID_25_" width="33" height="35" x="114" y="8"/></defs><clipPath id="SVGID_26_"><use style="overflow:visible" xlink:href="#SVGID_25_"/></clipPath><g class="st30"><path d="M131.2,25.8l-0.2-0.2" class="st13"/></g></g><g><defs><rect id="SVGID_27_" width="34" height="35" x="113" y="7"/></defs><clipPath id="SVGID_28_"><use style="overflow:visible" xlink:href="#SVGID_27_"/></clipPath><g class="st31"><path d="M130.3,25l-0.2-0.2" class="st13"/></g></g><path d="M116.7,11.4l1.6,1.6" class="st13"/><path d="M119.2,13.9l0.2,0.2" class="st13"/><path d="M120.1,14.8l0.2,0.2" class="st13"/><path d="M120.9,15.6l0.2,0.2" class="st13"/><g><defs><rect id="SVGID_29_" width="39" height="46" x="108" y="3"/></defs><clipPath id="SVGID_30_"><use style="overflow:visible" xlink:href="#SVGID_29_"/></clipPath><g class="st32"><path d="M137.2,20.3c0,0.8-0.1,1.5-0.2,2.3c-0.1,0.7-0.4,1.5-0.7,2.2c-0.3,0.7-0.6,1.4-1.1,2 c-0.4,0.6-0.9,1.2-1.4,1.8c-0.5,0.5-1.1,1-1.8,1.4c-0.6,0.4-1.3,0.8-2,1.1c-0.7,0.3-1.4,0.5-2.2,0.7c-0.7,0.1-1.5,0.2-2.3,0.2" class="st13"/></g></g><path d="M114,20.3c0-0.8,0.1-1.5,0.2-2.3c0.1-0.7,0.4-1.5,0.7-2.2c0.3-0.7,0.6-1.4,1.1-2c0.4-0.6,0.9-1.2,1.4-1.8	c0.5-0.5,1.1-1,1.8-1.4c0.6-0.4,1.3-0.8,2-1.1c0.7-0.3,1.4-0.5,2.2-0.7c0.7-0.1,1.5-0.2,2.3-0.2" class="st13"/><path d="M125.6,25.5c-0.3,0-0.7,0-1-0.1c-0.3-0.1-0.7-0.2-1-0.3c-0.3-0.1-0.6-0.3-0.9-0.5c-0.3-0.2-0.6-0.4-0.8-0.7	c-0.2-0.2-0.5-0.5-0.7-0.8c-0.2-0.3-0.4-0.6-0.5-0.9c-0.1-0.3-0.2-0.6-0.3-1c-0.1-0.3-0.1-0.7-0.1-1" class="st13"/><g><defs><rect id="SVGID_31_" width="39" height="38" x="108"/></defs><clipPath id="SVGID_32_"><use style="overflow:visible" xlink:href="#SVGID_31_"/></clipPath><g class="st33"><path d="M125.6,15.1c0.3,0,0.7,0,1,0.1c0.3,0.1,0.7,0.2,1,0.3c0.3,0.1,0.6,0.3,0.9,0.5s0.6,0.4,0.8,0.7 s0.5,0.5,0.6,0.8c0.2,0.3,0.4,0.6,0.5,0.9c0.1,0.3,0.2,0.6,0.3,1c0.1,0.3,0.1,0.7,0.1,1" class="st13"/></g></g></svg>