<svg xmlns="http://www.w3.org/2000/svg" xmlns:xlink="http://www.w3.org/1999/xlink" id="visual" width="960" height="300" version="1.1" viewBox="0 0 960 300"><rect width="960" height="300" x="0" y="0" fill="#000"/><path fill="#000" d="M0 107L11.5 109.8C23 112.7 46 118.3 68.8 121.2C91.7 124 114.3 124 137.2 121.5C160 119 183 114 205.8 112.5C228.7 111 251.3 113 274.2 113.8C297 114.7 320 114.3 342.8 116.7C365.7 119 388.3 124 411.2 123.2C434 122.3 457 115.7 480 114C503 112.3 526 115.7 548.8 118.7C571.7 121.7 594.3 124.3 617.2 122.7C640 121 663 115 685.8 115C708.7 115 731.3 121 754.2 122.7C777 124.3 800 121.7 822.8 121.5C845.7 121.3 868.3 123.7 891.2 122C914 120.3 937 114.7 948.5 111.8L960 109L960 0L948.5 0C937 0 914 0 891.2 0C868.3 0 845.7 0 822.8 0C800 0 777 0 754.2 0C731.3 0 708.7 0 685.8 0C663 0 640 0 617.2 0C594.3 0 571.7 0 548.8 0C526 0 503 0 480 0C457 0 434 0 411.2 0C388.3 0 365.7 0 342.8 0C320 0 297 0 274.2 0C251.3 0 228.7 0 205.8 0C183 0 160 0 137.2 0C114.3 0 91.7 0 68.8 0C46 0 23 0 11.5 0L0 0Z"/><path fill="#3b3b3b" d="M0 90L11.5 90.7C23 91.3 46 92.7 68.8 92.5C91.7 92.3 114.3 90.7 137.2 91.5C160 92.3 183 95.7 205.8 96.8C228.7 98 251.3 97 274.2 96.8C297 96.7 320 97.3 342.8 98.3C365.7 99.3 388.3 100.7 411.2 102.2C434 103.7 457 105.3 480 103C503 100.7 526 94.3 548.8 91.2C571.7 88 594.3 88 617.2 89.8C640 91.7 663 95.3 685.8 95.5C708.7 95.7 731.3 92.3 754.2 90.5C777 88.7 800 88.3 822.8 89.5C845.7 90.7 868.3 93.3 891.2 93.3C914 93.3 937 90.7 948.5 89.3L960 88L960 0L948.5 0C937 0 914 0 891.2 0C868.3 0 845.7 0 822.8 0C800 0 777 0 754.2 0C731.3 0 708.7 0 685.8 0C663 0 640 0 617.2 0C594.3 0 571.7 0 548.8 0C526 0 503 0 480 0C457 0 434 0 411.2 0C388.3 0 365.7 0 342.8 0C320 0 297 0 274.2 0C251.3 0 228.7 0 205.8 0C183 0 160 0 137.2 0C114.3 0 91.7 0 68.8 0C46 0 23 0 11.5 0L0 0Z"/><path fill="#777" d="M0 77L11.5 77.7C23 78.3 46 79.7 68.8 79.2C91.7 78.7 114.3 76.3 137.2 75.7C160 75 183 76 205.8 76.3C228.7 76.7 251.3 76.3 274.2 75.2C297 74 320 72 342.8 70.3C365.7 68.7 388.3 67.3 411.2 66.7C434 66 457 66 480 66.5C503 67 526 68 548.8 70C571.7 72 594.3 75 617.2 75C640 75 663 72 685.8 72.2C708.7 72.3 731.3 75.7 754.2 76.2C777 76.7 800 74.3 822.8 73.2C845.7 72 868.3 72 891.2 72.5C914 73 937 74 948.5 74.5L960 75L960 0L948.5 0C937 0 914 0 891.2 0C868.3 0 845.7 0 822.8 0C800 0 777 0 754.2 0C731.3 0 708.7 0 685.8 0C663 0 640 0 617.2 0C594.3 0 571.7 0 548.8 0C526 0 503 0 480 0C457 0 434 0 411.2 0C388.3 0 365.7 0 342.8 0C320 0 297 0 274.2 0C251.3 0 228.7 0 205.8 0C183 0 160 0 137.2 0C114.3 0 91.7 0 68.8 0C46 0 23 0 11.5 0L0 0Z"/><path fill="#b9b9b9" d="M0 54L11.5 53.8C23 53.7 46 53.3 68.8 53C91.7 52.7 114.3 52.3 137.2 52.8C160 53.3 183 54.7 205.8 55.5C228.7 56.3 251.3 56.7 274.2 54.8C297 53 320 49 342.8 48.7C365.7 48.3 388.3 51.7 411.2 53C434 54.3 457 53.7 480 53.2C503 52.7 526 52.3 548.8 52.7C571.7 53 594.3 54 617.2 53C640 52 663 49 685.8 47.2C708.7 45.3 731.3 44.7 754.2 46.7C777 48.7 800 53.3 822.8 55.8C845.7 58.3 868.3 58.7 891.2 56.8C914 55 937 51 948.5 49L960 47L960 0L948.5 0C937 0 914 0 891.2 0C868.3 0 845.7 0 822.8 0C800 0 777 0 754.2 0C731.3 0 708.7 0 685.8 0C663 0 640 0 617.2 0C594.3 0 571.7 0 548.8 0C526 0 503 0 480 0C457 0 434 0 411.2 0C388.3 0 365.7 0 342.8 0C320 0 297 0 274.2 0C251.3 0 228.7 0 205.8 0C183 0 160 0 137.2 0C114.3 0 91.7 0 68.8 0C46 0 23 0 11.5 0L0 0Z"/><path fill="#fff" d="M0 34L11.5 33.7C23 33.3 46 32.7 68.8 32C91.7 31.3 114.3 30.7 137.2 29.3C160 28 183 26 205.8 24.8C228.7 23.7 251.3 23.3 274.2 24.8C297 26.3 320 29.7 342.8 30C365.7 30.3 388.3 27.7 411.2 27.5C434 27.3 457 29.7 480 30C503 30.3 526 28.7 548.8 28.2C571.7 27.7 594.3 28.3 617.2 28.5C640 28.7 663 28.3 685.8 27.7C708.7 27 731.3 26 754.2 25.3C777 24.7 800 24.3 822.8 24.3C845.7 24.3 868.3 24.7 891.2 24.8C914 25 937 25 948.5 25L960 25L960 0L948.5 0C937 0 914 0 891.2 0C868.3 0 845.7 0 822.8 0C800 0 777 0 754.2 0C731.3 0 708.7 0 685.8 0C663 0 640 0 617.2 0C594.3 0 571.7 0 548.8 0C526 0 503 0 480 0C457 0 434 0 411.2 0C388.3 0 365.7 0 342.8 0C320 0 297 0 274.2 0C251.3 0 228.7 0 205.8 0C183 0 160 0 137.2 0C114.3 0 91.7 0 68.8 0C46 0 23 0 11.5 0L0 0Z"/></svg>