<svg height="512" viewBox="0 0 128 128" width="512" xmlns="http://www.w3.org/2000/svg"><g><path class="panda-animation" d="m119.337 48.842c10.2-12.2 11.535-28.173 2.89-36.817-4.635-4.634-11.349-6.578-18.924-5.476a37.428 37.428 0 0 0 -20.659 10.884c-.12.12-.233.245-.352.367a56.43 56.43 0 0 0 -36.584 0c-.119-.122-.232-.247-.353-.367a37.422 37.422 0 0 0 -20.655-10.884c-7.57-1.1-14.29.842-18.924 5.476-8.645 8.645-7.315 24.616 2.89 36.817-5.544 9.467-8.666 19.782-8.666 29.417 0 26.824 24.523 43.489 64 43.489s64-16.665 64-43.489c0-9.635-3.122-19.95-8.663-29.417zm.415-34.342c7.158 7.158 6.015 20.508-2.369 31.182a73.4 73.4 0 0 0 -8.1-10.223 68.113 68.113 0 0 0 -23.4-16.3c10.99-10.391 25.996-12.53 33.869-4.659zm-111.5 0c7.87-7.871 22.878-5.734 33.86 4.662a68.113 68.113 0 0 0 -23.395 16.3 73.485 73.485 0 0 0 -8.1 10.223c-8.384-10.676-9.527-24.027-2.369-31.185zm98.859 93.851c-10.629 6.474-25.535 9.9-43.107 9.9s-32.479-3.423-43.107-9.9c-11.545-7.031-17.397-17.151-17.397-30.092 0-27.179 26.987-60.006 60.5-60.006s60.5 32.827 60.5 60.006c0 12.941-5.852 23.061-17.393 30.092z"/><path d="m89.171 42.159c-4.855-.7-9.186.571-12.189 3.574s-4.271 7.331-3.573 12.189a24.746 24.746 0 0 0 19.891 19.889 18.019 18.019 0 0 0 2.556.189 13.309 13.309 0 0 0 9.631-3.76c6.056-6.056 4.589-17.376-3.27-25.235a23.526 23.526 0 0 0 -13.046-6.846zm13.842 29.6c-2.2 2.2-5.474 3.12-9.217 2.584a21.26 21.26 0 0 1 -16.923-16.919c-.537-3.74.381-7.013 2.584-9.216a9.9 9.9 0 0 1 7.175-2.734 14.4 14.4 0 0 1 2.042.149 21.262 21.262 0 0 1 16.926 16.924c.534 3.74-.384 7.013-2.587 9.216z"/><path d="m51.018 45.733c-3-3-7.334-4.272-12.189-3.574a23.529 23.529 0 0 0 -13.046 6.841c-7.859 7.859-9.326 19.18-3.27 25.235a13.364 13.364 0 0 0 9.648 3.733c5.216 0 10.993-2.41 15.587-7 7.858-7.859 9.325-19.179 3.27-25.235zm-5.745 22.76c-6.5 6.494-15.594 7.961-20.286 3.27s-3.223-13.791 3.271-20.286a20.03 20.03 0 0 1 11.069-5.854 14.389 14.389 0 0 1 2.041-.149 9.9 9.9 0 0 1 7.175 2.734c2.2 2.2 3.121 5.476 2.584 9.216a20.03 20.03 0 0 1 -5.854 11.069z"/><path d="m42.168 48.145a6.438 6.438 0 1 0 6.437 6.438 6.445 6.445 0 0 0 -6.437-6.438zm0 9.375a2.938 2.938 0 1 1 2.937-2.937 2.941 2.941 0 0 1 -2.937 2.937z"/><path d="m85.832 48.145a6.438 6.438 0 1 0 6.437 6.438 6.445 6.445 0 0 0 -6.437-6.438zm0 9.375a2.938 2.938 0 1 1 2.937-2.937 2.941 2.941 0 0 1 -2.937 2.937z"/><path d="m75.266 93-1.213.11a7.705 7.705 0 0 1 -7.968-5.235c3.132-.732 9.087-2.783 9.087-7.8 0-5.421-3.759-8.169-11.172-8.169s-11.172 2.748-11.172 8.169c0 5.02 5.954 7.071 9.086 7.8a7.712 7.712 0 0 1 -7.966 5.236l-1.214-.111a1.75 1.75 0 0 0 -.315 3.486l1.214.11q.5.045 1 .045a11.246 11.246 0 0 0 9.367-5.103 11.245 11.245 0 0 0 9.37 5.107q.5 0 1-.045l1.214-.11a1.75 1.75 0 0 0 -.318-3.49zm-18.938-12.924c0-2.425.929-4.669 7.672-4.669s7.672 2.244 7.672 4.669c0 2.874-5.454 4.314-7.672 4.652-2.221-.338-7.672-1.779-7.672-4.652z"/></g></svg>