<svg xmlns="http://www.w3.org/2000/svg" id="Layer_1" data-name="Layer 1" viewBox="0 0 1080 1080"><defs><style>.cls-1{fill-rule:evenodd}</style></defs><rect width="14.48" height="7.02" x="517.76" y="577.98" transform="translate(-56.49 1106.49) rotate(-90)"/><path d="M697.21,334c-25.21-11-28.93-33.3-20.69-39.16.72-.92,21-26.93,56.11-24.61,21.62,1.43,43.07,26,45.81,54.05,2,20.06-18.94,65.54-35.05,59.57-6.25-2.32-21-38.88-46.18-49.85Zm-63.85,178.8c13.65,22.59,61.82-2.56,64.8-44.34s-35.38-82.71-66.51-78.44-38.36,57.12-38.36,57.12.43,7.25,8.53,15.78,17.91,27.28,31.54,49.88ZM540,480.34h.26c.06,0,22.64,1.88,30.94,10.57,6.94,7.27,11.12,21.2,4.55,25.48-1.53,1-4.34,1.35-7.89,1.79l-20.62,5.61v55.11a7.24,7.24,0,1,1-14.48,0V523.78l-20.63-5.61c-3.54-.44-6.35-.8-7.88-1.79-6.57-4.28-2.39-18.21,4.54-25.48,8.3-8.69,30.89-10.57,30.95-10.57ZM382.79,334c25.21-11,28.93-33.3,20.69-39.16-.72-.92-21-26.93-56.11-24.61-21.63,1.43-43.07,26-45.81,54.05-2,20.06,18.94,65.54,35,59.57,6.26-2.32,21-38.88,46.19-49.85Zm63.85,178.8c-13.65,22.59-61.82-2.56-64.81-44.34s35.39-82.71,66.51-78.44,38.37,57.12,38.37,57.12-.43,7.25-8.53,15.78S460.27,490.23,446.64,512.83Z" class="cls-1"/><path d="M498.07,579.88c7.45,12.78,28.72,12,41.61,12.07,13.18.06,35.51,1,43.09-12.09,5.77-10-9.67-19-15.43-9-3.58,6.17-51,4.85-53.83,0-5.79-9.94-21.25-1-15.44,9Z"/><path d="M239.49,432.65c9.55,4.08,13.91,12.53,13.91,32.63v46.61c0,13.69,5,21.56,15.17,21.56h3.74V569H260.26c-26,0-39.27-18.64-39.27-52.14V464.11c0-9.32-3.53-13.69-9.14-13.69H205V414.88h6.86c5.61,0,9.14-4.37,9.14-13.69V348.46c0-33.5,13.3-52.14,39.27-52.14h12.05v35.54h-3.74c-10.18,0-15.17,7.86-15.17,21.55V400C253.4,420.13,249,428.57,239.49,432.65Z"/><path d="M875,414.88v35.54h-6.86c-5.61,0-9.14,4.37-9.14,13.69v52.73c0,33.5-13.3,52.14-39.27,52.14h-12V533.45h3.74c10.18,0,15.17-7.87,15.17-21.56V465.28c0-20.1,4.36-28.55,13.92-32.63C831,428.57,826.6,420.13,826.6,400V353.41c0-13.69-5-21.55-15.17-21.55h-3.74V296.32h12c26,0,39.27,18.64,39.27,52.14v52.73c0,9.32,3.53,13.69,9.14,13.69Z"/><path d="M273,740.87h19.2v5H278.79v17.63h12.55v4.85H278.79v22.86H273Z"/><path d="M341.68,765.67c0,18.9-6.42,26.14-14.56,26.14-8.37,0-14-8.88-14-25.84,0-16.66,6.05-25.69,14.79-25.69C336.53,740.28,341.68,749.61,341.68,765.67Zm-22.56.38c0,10.38,2,20.69,8.44,20.69s8.15-11,8.15-20.84c0-9.41-1.72-20.54-8.22-20.54S319.12,755.81,319.12,766.05Z"/><path d="M365.06,741.62a31.9,31.9,0,0,1,8.22-1c5,0,8.74,1.05,11.35,3.59,2.46,2.54,3.51,5.9,3.51,9.86,0,6.42-3,10.6-8.07,13v.15c3.74,1.12,5.68,4.71,6.73,11.28,1.19,6.87,2.16,11.13,2.91,12.7h-5.83c-.74-1.5-1.71-6.28-2.69-12.4-1.12-7-3.28-9.49-8.21-9.49h-2.24v21.89h-5.68Zm5.68,23.23h2.46c5.46,0,9.11-4,9.11-10.08,0-5.83-2.39-9.41-8.51-9.49a11.86,11.86,0,0,0-3.06.3Z"/><path d="M438.71,741.62a32.69,32.69,0,0,1,8.29-1c4.63,0,8.59,1.12,11.21,3.66,2.38,2.39,3.66,6.05,3.66,10.46,0,4.63-1.13,7.77-3.07,10.3-2.69,3.74-7.39,5.61-11.87,5.61a25.39,25.39,0,0,1-2.54-.08v20.62h-5.68Zm5.68,24.2a17.85,17.85,0,0,0,2.31.15c5.6,0,9.41-3.66,9.41-10.83,0-5.15-2.09-9.78-8.51-9.78a11.9,11.9,0,0,0-3.21.37Z"/><path d="M485,741.62a31.77,31.77,0,0,1,8.21-1c5,0,8.74,1.05,11.35,3.59s3.51,5.9,3.51,9.86c0,6.42-3,10.6-8.06,13v.15c3.73,1.12,5.67,4.71,6.72,11.28,1.2,6.87,2.17,11.13,2.91,12.7h-5.82c-.75-1.5-1.72-6.28-2.69-12.4-1.12-7-3.29-9.49-8.22-9.49h-2.24v21.89H485Zm5.67,23.23h2.47c5.45,0,9.11-4,9.11-10.08,0-5.83-2.39-9.41-8.52-9.49a12,12,0,0,0-3.06.3Z"/><path d="M558.29,765.67c0,18.9-6.42,26.14-14.56,26.14-8.37,0-14-8.88-14-25.84,0-16.66,6-25.69,14.79-25.69S558.29,749.61,558.29,765.67Zm-22.55.38c0,10.38,2,20.69,8.44,20.69s8.14-11,8.14-20.84c0-9.41-1.72-20.54-8.22-20.54S535.74,755.81,535.74,766.05Z"/><path d="M606.32,790a25.54,25.54,0,0,1-8.89,1.72c-4.4,0-8.51-1.2-11.87-4.86-3.66-3.88-6.13-10.83-6-20.09.07-19.65,10.08-26.29,19-26.29a15.27,15.27,0,0,1,7.1,1.42l-1.28,4.93a12.12,12.12,0,0,0-5.75-1.2c-6.27,0-13.07,5-13.07,20.61s5.9,20.55,11.95,20.55a7.1,7.1,0,0,0,3.51-.6V769.71h-6.49v-4.78h11.87Z"/><path d="M630.67,741.62a31.9,31.9,0,0,1,8.22-1c5,0,8.74,1.05,11.35,3.59s3.51,5.9,3.51,9.86c0,6.42-3,10.6-8.06,13v.15c3.73,1.12,5.67,4.71,6.72,11.28,1.19,6.87,2.16,11.13,2.91,12.7H649.5c-.75-1.5-1.72-6.28-2.69-12.4-1.12-7-3.29-9.49-8.22-9.49h-2.24v21.89h-5.68Zm5.68,23.23h2.46c5.46,0,9.12-4,9.12-10.08,0-5.83-2.39-9.41-8.52-9.49a12,12,0,0,0-3.06.3Z"/><path d="M684.08,776.13l-3.29,15.09h-5.6l11.5-50.35H693l11.21,50.35h-5.68l-3.29-15.09Zm10.38-4.63-2.61-12.77c-.75-3.59-1.42-7.77-2-11.51h-.22c-.6,3.81-1.35,8.14-2.1,11.51L684.9,771.5Z"/><path d="M756.91,769.56c-.38-6.65-.75-14-.53-19.72h-.3c-1.12,5.6-2.46,11.57-4,17.48l-6.13,23.6h-3.73l-5.83-22.63c-1.71-6.43-3.13-12.63-4.18-18.45H732c.07,5.9-.3,12.92-.6,20.09l-1,21.29h-5.15l3-50.35h6.28l5.82,23c1.72,6.65,3,11.58,4,17.33h.22c1-5.75,2.09-10.53,3.74-17.33l5.67-23h6.43l2.91,50.35H758Z"/><path d="M786.49,784.57a14.4,14.4,0,0,0,7.17,2c5.3,0,8.44-3.44,8.44-8.52,0-4.63-2.69-7.47-6.65-10.46-4-2.76-9.49-7.46-9.49-14,0-7.62,5.31-13.22,13.3-13.22a12.88,12.88,0,0,1,7,1.86l-1.35,4.93a10.57,10.57,0,0,0-6-1.71,7,7,0,0,0-7.32,7.17c0,5,2.61,6.94,7.39,10.38,6.05,4.26,8.74,8.89,8.74,14.49,0,8.66-6,14.12-14.11,14.12-3.44,0-7-1.13-8.44-2.17Z"/><path d="M379.52,639.9a126.48,126.48,0,0,1,21-1.43c9.57,0,16.4,1.84,21,5.5a19.79,19.79,0,0,1,7.34,15.89c0,6.73-2.14,12.53-6.32,16.3-5.3,4.89-13.14,7.24-22.31,7.24a27,27,0,0,1-5.29-.41v24.65H379.52Zm15.39,31.17a22.81,22.81,0,0,0,5.19.41c8.25,0,13.35-4.18,13.35-11.11,0-6.31-4.39-10.08-12.23-10.08a27.4,27.4,0,0,0-6.31.51Z"/><path d="M450.62,690l-4.89,17.62h-16L450.62,639H471l21.39,68.66H475.58L470.28,690ZM468,678.4l-4.28-14.56c-1.22-4.08-2.44-9.17-3.46-13.25h-.2c-1,4.08-2,9.27-3.16,13.25l-4.08,14.56Z"/><path d="M503.48,707.64V639h18.14l14.26,25.16a216.69,216.69,0,0,1,11.2,23.53h.21A282.07,282.07,0,0,1,546.06,659V639h14.27v68.66H544l-14.67-26.49a231,231,0,0,1-11.92-24.24H517c.51,9.17.72,18.84.72,30.05v20.68Z"/><path d="M575.8,640a136.64,136.64,0,0,1,20.89-1.53c13.14,0,21.69,2.45,28.21,7.34,7.13,5.29,11.62,13.75,11.62,25.87,0,13.14-4.79,22.21-11.31,27.81-7.23,6-18.34,8.86-31.78,8.86a133.13,133.13,0,0,1-17.63-1Zm15.49,55.92a28.67,28.67,0,0,0,5.4.31c14.16.1,23.43-7.64,23.43-24,0-14.26-8.36-21.8-21.8-21.8a33.36,33.36,0,0,0-7,.61Z"/><path d="M663.1,690l-4.89,17.62h-16L663.1,639h20.37l21.39,68.66h-16.8L682.76,690Zm17.42-11.62-4.28-14.56c-1.22-4.08-2.45-9.17-3.46-13.25h-.21c-1,4.08-2,9.27-3.16,13.25l-4.07,14.56Z"/></svg>