<?xml version="1.0" encoding="utf-8"?>
<!-- Generator: Adobe Illustrator 24.3.0, SVG Export Plug-In . SVG Version: 6.00 Build 0)  -->
<svg version="1.1" id="Layer_1" xmlns="http://www.w3.org/2000/svg" xmlns:xlink="http://www.w3.org/1999/xlink" x="0px" y="0px"
	 viewBox="0 0 150 150" style="enable-background:new 0 0 150 150;" xml:space="preserve">
<style type="text/css">
	.st0{fill:none;}
	.st1{fill:#DEF4FC;}
	.st2{fill:#B1D7F2;}
	.st3{fill:#5BA1E1;}
	.st4{fill:#C8DFF5;}
	.st5{fill:#AFD8F9;}
	.st6{fill:none;stroke:#2481D7;stroke-width:2.494;stroke-linecap:round;stroke-linejoin:round;stroke-miterlimit:1.247;}
	.st7{fill:#E9F6FF;}
	.st8{fill:#FFFFFF;}
	.st9{fill:none;stroke:#2481D7;stroke-width:1.8705;stroke-linecap:round;stroke-linejoin:round;stroke-miterlimit:1.247;}
	.st10{fill:none;stroke:#C8DFF5;stroke-width:1.247;stroke-miterlimit:3.1175;}
	.st11{fill:#DEF4FC;stroke:#2481D7;stroke-width:2.494;stroke-linecap:round;stroke-linejoin:round;stroke-miterlimit:1.247;}
	.st12{fill:#FFFFFF;stroke:#2481D7;stroke-width:1.247;stroke-linecap:round;stroke-linejoin:round;stroke-miterlimit:1.247;}
	.st13{fill:none;stroke:#2481D7;stroke-width:1.247;stroke-linecap:round;stroke-linejoin:round;stroke-miterlimit:1.247;}
	.st14{fill:none;stroke:#C8DFF5;stroke-width:1.247;stroke-linecap:round;stroke-miterlimit:3.1175;}
	.st15{clip-path:url(#SVGID_2_);}
	.st16{clip-path:url(#SVGID_4_);}
	.st17{clip-path:url(#SVGID_6_);}
	.st18{clip-path:url(#SVGID_8_);}
</style>
<rect x="-11.7" y="-14.8" class="st0" width="180" height="180"/>
<rect x="-15" y="-15" class="st0" width="180" height="180"/>
<rect x="-15" y="-15" class="st0" width="180" height="180"/>
<path class="st1" d="M128.3,68.5c0,1.6-0.1,3.3-0.2,4.9s-0.4,3.3-0.7,4.9s-0.7,3.2-1.2,4.8c-0.5,1.6-1,3.1-1.7,4.6
	c-0.6,1.5-1.3,3-2.1,4.4c-0.8,1.4-1.6,2.9-2.5,4.2s-1.9,2.7-2.9,3.9c-1,1.3-2.1,2.5-3.3,3.6c-1.2,1.2-2.4,2.3-3.6,3.3
	c-1.3,1-2.6,2-3.9,2.9c-1.4,0.9-2.8,1.8-4.2,2.5s-2.9,1.5-4.4,2.1c-1.5,0.6-3.1,1.2-4.6,1.7s-3.2,0.9-4.8,1.2s-3.2,0.6-4.9,0.7
	c-1.6,0.2-3.3,0.2-4.9,0.2c-1.6,0-3.3-0.1-4.9-0.2s-3.2-0.4-4.9-0.7s-3.2-0.7-4.8-1.2c-1.6-0.5-3.1-1-4.6-1.7
	c-1.5-0.6-3-1.3-4.4-2.1c-1.4-0.8-2.8-1.6-4.2-2.5c-1.4-0.9-2.7-1.9-3.9-2.9c-1.3-1-2.5-2.1-3.6-3.3c-1.2-1.2-2.3-2.4-3.3-3.6
	c-1-1.3-2-2.6-2.9-3.9s-1.8-2.8-2.5-4.2s-1.5-2.9-2.1-4.4c-0.6-1.5-1.2-3.1-1.7-4.6c-0.5-1.6-0.9-3.2-1.2-4.8
	c-0.3-1.6-0.6-3.2-0.7-4.9s-0.2-3.3-0.2-4.9s0.1-3.3,0.2-4.9s0.4-3.3,0.7-4.9c0.3-1.6,0.7-3.2,1.2-4.8c0.5-1.6,1-3.1,1.7-4.6
	c0.6-1.5,1.3-3,2.1-4.4s1.6-2.9,2.5-4.2s1.9-2.7,2.9-3.9c1-1.3,2.1-2.5,3.3-3.6c1.2-1.2,2.4-2.3,3.6-3.3c1.3-1,2.6-2,3.9-2.9
	c1.4-0.9,2.8-1.8,4.2-2.5c1.4-0.8,2.9-1.5,4.4-2.1c1.5-0.6,3.1-1.2,4.6-1.7c1.6-0.5,3.2-0.9,4.8-1.2s3.2-0.6,4.9-0.7
	s3.3-0.2,4.9-0.2c1.6,0,3.3,0.1,4.9,0.2c1.6,0.2,3.2,0.4,4.9,0.7s3.2,0.7,4.8,1.2s3.1,1,4.6,1.7c1.5,0.6,3,1.3,4.4,2.1
	s2.8,1.6,4.2,2.5c1.4,0.9,2.7,1.9,3.9,2.9s2.5,2.1,3.6,3.3c1.2,1.2,2.3,2.4,3.3,3.6c1,1.3,2,2.6,2.9,3.9c0.9,1.4,1.8,2.8,2.5,4.2
	c0.8,1.4,1.5,2.9,2.1,4.4c0.6,1.5,1.2,3.1,1.7,4.6c0.5,1.6,0.9,3.2,1.2,4.8s0.6,3.2,0.7,4.9C128.2,65.2,128.3,66.9,128.3,68.5z"/>
<path class="st1" d="M41.5,124.7c0,0.5,0,1.1-0.1,1.6c-0.1,0.5-0.1,1.1-0.2,1.6c-0.1,0.5-0.2,1-0.4,1.5c-0.2,0.5-0.3,1-0.5,1.5
	s-0.4,1-0.7,1.4c-0.2,0.5-0.5,0.9-0.8,1.4c-0.3,0.4-0.6,0.9-0.9,1.3s-0.7,0.8-1.1,1.2c-0.4,0.4-0.8,0.7-1.2,1.1
	c-0.4,0.3-0.8,0.7-1.3,0.9c-0.4,0.3-0.9,0.6-1.4,0.8c-0.5,0.2-0.9,0.5-1.4,0.7c-0.5,0.2-1,0.4-1.5,0.5c-0.5,0.2-1,0.3-1.5,0.4
	c-0.5,0.1-1,0.2-1.6,0.2s-1.1,0.1-1.6,0.1s-1.1,0-1.6-0.1c-0.5-0.1-1.1-0.1-1.6-0.2c-0.5-0.1-1-0.2-1.5-0.4c-0.5-0.2-1-0.3-1.5-0.5
	s-1-0.4-1.4-0.7c-0.5-0.2-0.9-0.5-1.4-0.8c-0.4-0.3-0.9-0.6-1.3-0.9c-0.4-0.3-0.8-0.7-1.2-1.1c-0.4-0.4-0.7-0.8-1.1-1.2
	s-0.6-0.8-0.9-1.3c-0.3-0.4-0.6-0.9-0.8-1.4c-0.2-0.5-0.5-0.9-0.7-1.4c-0.2-0.5-0.4-1-0.5-1.5c-0.2-0.5-0.3-1-0.4-1.5
	c-0.1-0.5-0.2-1-0.2-1.6c-0.1-0.5-0.1-1.1-0.1-1.6c0-0.5,0-1.1,0.1-1.6c0.1-0.5,0.1-1.1,0.2-1.6c0.1-0.5,0.2-1,0.4-1.5
	c0.2-0.5,0.3-1,0.5-1.5c0.2-0.5,0.4-1,0.7-1.4c0.2-0.5,0.5-0.9,0.8-1.4c0.3-0.4,0.6-0.9,0.9-1.3c0.3-0.4,0.7-0.8,1.1-1.2
	c0.4-0.4,0.8-0.7,1.2-1.1c0.4-0.3,0.8-0.6,1.3-0.9c0.4-0.3,0.9-0.6,1.4-0.8c0.5-0.2,0.9-0.5,1.4-0.7s1-0.4,1.5-0.5
	c0.5-0.2,1-0.3,1.5-0.4c0.5-0.1,1-0.2,1.6-0.2c0.5-0.1,1.1-0.1,1.6-0.1s1.1,0,1.6,0.1s1,0.1,1.6,0.2c0.5,0.1,1,0.2,1.5,0.4
	c0.5,0.2,1,0.3,1.5,0.5c0.5,0.2,1,0.4,1.4,0.7c0.5,0.2,0.9,0.5,1.4,0.8c0.4,0.3,0.9,0.6,1.3,0.9c0.4,0.3,0.8,0.7,1.2,1.1
	s0.7,0.8,1.1,1.2s0.6,0.8,0.9,1.3c0.3,0.4,0.6,0.9,0.8,1.4c0.2,0.5,0.5,0.9,0.7,1.4s0.4,1,0.5,1.5c0.2,0.5,0.3,1,0.4,1.5
	c0.1,0.5,0.2,1,0.2,1.6C41.5,123.7,41.5,124.2,41.5,124.7z"/>
<path class="st2" d="M120.9,34.2c-17.6,0-33.2-5.1-42.6-12.8c-9.4,7.7-25,12.8-42.6,12.8c-3.5,0-6.9-0.2-10.3-0.6v32.3
	c0,35.5,21.9,65.9,52.9,78.4c31-12.5,52.9-42.9,52.9-78.4V33.6C127.8,34,124.4,34.2,120.9,34.2z"/>
<path class="st3" d="M120.9,34.2c-17.6,0-33.2-5.1-42.6-12.8v122.9c31-12.5,52.9-42.9,52.9-78.4V33.6
	C127.8,34,124.4,34.2,120.9,34.2z"/>
<path class="st4" d="M120.9,34.2c-17.6,0-33.2-5.1-42.6-12.8c-9.4,7.7-25,12.8-42.6,12.8c-3.5,0-6.9-0.2-10.3-0.6v5.6
	c3.4,0.4,6.9,0.6,10.3,0.6c17.6,0,33.2-5.1,42.6-12.8c9.4,7.7,25,12.8,42.6,12.8c3.5,0,6.9-0.2,10.3-0.6v-5.6
	C127.8,34,124.4,34.2,120.9,34.2z"/>
<path class="st5" d="M120.9,34.2c-17.6,0-33.2-5.1-42.6-12.8V27c9.4,7.7,25,12.8,42.6,12.8c3.5,0,6.9-0.2,10.3-0.6v-5.6
	C127.8,34,124.4,34.2,120.9,34.2z"/>
<path class="st6" d="M120.9,34.2c-17.6,0-33.2-5.1-42.6-12.8c-9.4,7.7-25,12.8-42.6,12.8c-3.5,0-6.9-0.2-10.3-0.6v32.3
	c0,35.5,21.9,65.9,52.9,78.4c31-12.5,52.9-42.9,52.9-78.4V33.6C127.8,34,124.4,34.2,120.9,34.2z"/>
<path class="st3" d="M110.8,49.4c-13.4,0-25.3-3.9-32.5-9.8c-7.2,5.9-19,9.8-32.5,9.8c-2.6,0-5.3-0.1-7.9-0.5v24.7
	c0,1.6,0.1,3.2,0.2,4.8c0.1,1.6,0.3,3.2,0.5,4.8c0.2,1.6,0.5,3.1,0.9,4.7c0.4,1.6,0.8,3.1,1.2,4.6c0.5,1.5,1,3,1.6,4.5
	s1.2,3,1.9,4.4c0.7,1.4,1.4,2.9,2.2,4.2s1.6,2.7,2.5,4.1c0.9,1.3,1.8,2.6,2.8,3.9c1,1.3,2,2.5,3.1,3.6s2.2,2.3,3.4,3.4
	c1.2,1.1,2.4,2.1,3.6,3.1c1.2,1,2.5,2,3.8,2.9c1.3,0.9,2.7,1.8,4,2.6s2.8,1.6,4.2,2.3c1.4,0.7,2.9,1.4,4.4,1.9
	c1.5-0.6,2.9-1.2,4.4-1.9s2.8-1.5,4.2-2.3c1.4-0.8,2.7-1.7,4-2.6c1.3-0.9,2.6-1.9,3.8-2.9c1.2-1,2.4-2.1,3.6-3.1
	c1.2-1.1,2.3-2.2,3.4-3.4c1.1-1.2,2.1-2.4,3.1-3.6s1.9-2.5,2.8-3.9s1.7-2.7,2.5-4.1s1.5-2.8,2.2-4.2s1.3-2.9,1.9-4.4s1.1-3,1.6-4.5
	c0.5-1.5,0.9-3.1,1.2-4.6c0.4-1.6,0.6-3.1,0.9-4.7c0.2-1.6,0.4-3.2,0.5-4.8s0.2-3.2,0.2-4.8V48.9C116.1,49.2,113.5,49.4,110.8,49.4z
	"/>
<path class="st7" d="M110.8,45.7c-13.4,0-25.3-3.8-32.5-9.8c-7.2,5.9-19.1,9.8-32.5,9.8c-2.6,0-5.3-0.1-7.9-0.4v24.7
	c0,1.6,0.1,3.2,0.2,4.8c0.1,1.6,0.3,3.2,0.5,4.8s0.5,3.1,0.9,4.7c0.4,1.6,0.8,3.1,1.2,4.6c0.5,1.5,1,3,1.6,4.5
	c0.6,1.5,1.2,2.9,1.9,4.4s1.4,2.9,2.2,4.2c0.8,1.4,1.6,2.7,2.5,4.1c0.9,1.3,1.8,2.6,2.8,3.9c1,1.3,2,2.5,3.1,3.6
	c1.1,1.2,2.2,2.3,3.4,3.4c1.2,1.1,2.4,2.1,3.6,3.1c1.2,1,2.5,2,3.8,2.9c1.3,0.9,2.7,1.8,4,2.6c1.4,0.8,2.8,1.6,4.2,2.3
	c1.4,0.7,2.9,1.4,4.4,1.9c1.5-0.6,2.9-1.2,4.4-1.9s2.8-1.5,4.2-2.3c1.4-0.8,2.7-1.7,4-2.6c1.3-0.9,2.6-1.9,3.8-2.9
	c1.2-1,2.4-2.1,3.6-3.1c1.2-1.1,2.3-2.2,3.4-3.4c1.1-1.2,2.1-2.4,3.1-3.6c1-1.3,1.9-2.5,2.8-3.9c0.9-1.3,1.7-2.7,2.5-4.1
	s1.5-2.8,2.2-4.2c0.7-1.4,1.3-2.9,1.9-4.4s1.1-3,1.6-4.5c0.5-1.5,0.9-3.1,1.2-4.6c0.4-1.6,0.6-3.1,0.9-4.7c0.2-1.6,0.4-3.2,0.5-4.8
	c0.1-1.6,0.2-3.2,0.2-4.8V45.3C116.1,45.6,113.5,45.7,110.8,45.7z"/>
<path class="st8" d="M110.8,45.7c-13.4,0-25.3-3.8-32.5-9.8v93.8c1.5-0.6,2.9-1.2,4.4-1.9s2.8-1.5,4.2-2.3c1.4-0.8,2.7-1.7,4-2.6
	c1.3-0.9,2.6-1.9,3.8-2.9c1.2-1,2.4-2.1,3.6-3.1c1.2-1.1,2.3-2.2,3.4-3.4c1.1-1.2,2.1-2.4,3.1-3.6c1-1.3,1.9-2.5,2.8-3.9
	c0.9-1.3,1.7-2.7,2.5-4.1s1.5-2.8,2.2-4.2c0.7-1.4,1.3-2.9,1.9-4.4s1.1-3,1.6-4.5c0.5-1.5,0.9-3.1,1.2-4.6c0.4-1.6,0.6-3.1,0.9-4.7
	c0.2-1.6,0.4-3.2,0.5-4.8c0.1-1.6,0.2-3.2,0.2-4.8V45.3C116.1,45.6,113.5,45.7,110.8,45.7z"/>
<path class="st9" d="M110.8,45.7c-13.4,0-25.3-3.8-32.5-9.8c-7.2,5.9-19.1,9.8-32.5,9.8c-2.6,0-5.3-0.1-7.9-0.4v24.7
	c0,1.6,0.1,3.2,0.2,4.8c0.1,1.6,0.3,3.2,0.5,4.8c0.2,1.6,0.5,3.1,0.9,4.7c0.4,1.6,0.8,3.1,1.2,4.6c0.5,1.5,1,3,1.6,4.5
	c0.6,1.5,1.2,2.9,1.9,4.4c0.7,1.4,1.4,2.9,2.2,4.2c0.8,1.4,1.6,2.7,2.5,4.1c0.9,1.3,1.8,2.6,2.8,3.9c1,1.3,2,2.5,3.1,3.6
	c1.1,1.2,2.2,2.3,3.4,3.4c1.2,1.1,2.4,2.1,3.6,3.1c1.2,1,2.5,2,3.8,2.9c1.3,0.9,2.7,1.8,4,2.6c1.4,0.8,2.8,1.6,4.2,2.3
	c1.4,0.7,2.9,1.4,4.4,1.9c1.5-0.6,2.9-1.2,4.4-1.9s2.8-1.5,4.2-2.3c1.4-0.8,2.7-1.7,4-2.6c1.3-0.9,2.6-1.9,3.8-2.9
	c1.2-1,2.4-2.1,3.6-3.1c1.2-1.1,2.3-2.2,3.4-3.4c1.1-1.2,2.1-2.4,3.1-3.6c1-1.3,1.9-2.5,2.8-3.9c0.9-1.3,1.7-2.7,2.5-4.1
	c0.8-1.4,1.5-2.8,2.2-4.2c0.7-1.4,1.3-2.9,1.9-4.4s1.1-3,1.6-4.5c0.5-1.5,0.9-3.1,1.2-4.6c0.4-1.6,0.6-3.1,0.9-4.7
	c0.2-1.6,0.4-3.2,0.5-4.8c0.1-1.6,0.2-3.2,0.2-4.8V45.3C116.1,45.6,113.5,45.7,110.8,45.7z"/>
<path class="st10" d="M78.8,51c-0.2-0.1-0.3-0.3-0.5-0.4c-0.2,0.1-0.3,0.3-0.5,0.4"/>
<path class="st4" d="M77.2,52.3c-0.3,0.2-0.7,0.4-1,0.7l-0.7-1.1c0.3-0.2,0.6-0.4,1-0.6L77.2,52.3z M75.2,53.5
	c-0.4,0.2-0.7,0.4-1.1,0.6L73.5,53c0.4-0.2,0.7-0.4,1.1-0.6L75.2,53.5z M72.9,54.7c-0.4,0.2-0.7,0.3-1.1,0.5L71.3,54
	c0.4-0.1,0.7-0.3,1.1-0.4L72.9,54.7z M70.6,55.6c-0.4,0.1-0.8,0.3-1.2,0.4l-0.4-1.2c0.4-0.1,0.8-0.3,1.1-0.4L70.6,55.6z M68.2,56.3
	c-0.4,0.1-0.8,0.2-1.2,0.3l-0.3-1.2c0.4-0.1,0.8-0.2,1.1-0.3L68.2,56.3z M65.9,56.9c-0.4,0.1-0.8,0.2-1.2,0.2L64.4,56
	c0.4-0.1,0.8-0.2,1.2-0.2L65.9,56.9z M63.5,57.4c-0.4,0.1-0.8,0.1-1.3,0.2L62,56.3c0.4-0.1,0.8-0.1,1.2-0.2L63.5,57.4z M61,57.7
	c-0.4,0-0.8,0.1-1.2,0.1l-0.1-1.2c0.4,0,0.8-0.1,1.2-0.1L61,57.7z M58.6,57.9c-0.4,0-0.8,0-1.2,0.1l0-1.2c0.4,0,0.8,0,1.2,0
	L58.6,57.9z M56.1,58L56.1,58c-0.5,0-0.9,0-1.2,0l0-1.2c0.4,0,0.8,0,1.2,0h0.1L56.1,58z M53.6,57.9c-0.4,0-0.8,0-1.2-0.1l0.1-1.2
	c0.4,0,0.8,0.1,1.2,0.1L53.6,57.9z"/>
<path class="st10" d="M51.2,57.1L50.6,57v0.6"/>
<path class="st4" d="M51.2,58.9v1.2H50v-1.2H51.2z M51.2,61.4v1.2H50v-1.2H51.2z M51.2,63.9v1.2H50v-1.2H51.2z M51.2,66.4v1.2H50
	v-1.2H51.2z M51.2,68.8v1.2H50v-1.2H51.2z M51.2,71.3v1.2H50v-1.2H51.2z M51.2,73.8V74c0,0.3,0,0.7,0,1.1l-1.2,0c0-0.4,0-0.7,0-1.1
	v-0.2H51.2z M51.3,76.2c0,0.4,0.1,0.8,0.1,1.2l-1.2,0.1c0-0.4-0.1-0.8-0.1-1.3L51.3,76.2z M51.5,78.7c0,0.4,0.1,0.8,0.1,1.2
	l-1.2,0.2c-0.1-0.4-0.1-0.8-0.2-1.3L51.5,78.7z M51.8,81.1c0.1,0.4,0.1,0.8,0.2,1.2l-1.2,0.2c-0.1-0.4-0.2-0.8-0.2-1.2L51.8,81.1z
	 M52.3,83.5c0.1,0.4,0.2,0.8,0.3,1.2L51.3,85c-0.1-0.4-0.2-0.8-0.3-1.2L52.3,83.5z M52.9,85.9c0.1,0.4,0.2,0.8,0.4,1.2L52,87.5
	c-0.1-0.4-0.2-0.8-0.4-1.2L52.9,85.9z M53.6,88.3c0.1,0.4,0.3,0.8,0.4,1.2l-1.2,0.4c-0.1-0.4-0.3-0.8-0.4-1.2L53.6,88.3z M54.5,90.6
	c0.2,0.4,0.3,0.8,0.5,1.1l-1.1,0.5c-0.2-0.4-0.3-0.8-0.5-1.2L54.5,90.6z M55.5,92.8c0.2,0.4,0.4,0.7,0.5,1.1l-1.1,0.6
	c-0.2-0.4-0.4-0.8-0.6-1.1L55.5,92.8z M56.6,95c0.2,0.4,0.4,0.7,0.6,1.1l-1.1,0.6c-0.2-0.4-0.4-0.7-0.6-1.1L56.6,95z M57.8,97.1
	c0.2,0.3,0.4,0.7,0.7,1l-1,0.7c-0.2-0.4-0.5-0.7-0.7-1.1L57.8,97.1z M59.2,99.1c0.2,0.3,0.5,0.7,0.7,1l-1,0.7
	c-0.2-0.3-0.5-0.7-0.7-1L59.2,99.1z M60.6,101.1c0.3,0.3,0.5,0.6,0.8,0.9l-1,0.8c-0.3-0.3-0.5-0.6-0.8-1L60.6,101.1z M62.2,103
	c0.3,0.3,0.5,0.6,0.8,0.9l-0.9,0.9c-0.3-0.3-0.6-0.6-0.9-0.9L62.2,103z M63.9,104.8c0.3,0.3,0.6,0.6,0.9,0.9l-0.9,0.9
	c-0.3-0.3-0.6-0.6-0.9-0.9L63.9,104.8z M65.7,106.5c0.3,0.3,0.6,0.5,0.9,0.8l-0.8,1c-0.3-0.3-0.6-0.5-0.9-0.8L65.7,106.5z M67.5,108
	c0.3,0.3,0.6,0.5,1,0.8l-0.8,1c-0.3-0.3-0.7-0.5-1-0.8L67.5,108z M69.5,109.5c0.3,0.2,0.7,0.5,1,0.7l-0.7,1c-0.3-0.2-0.7-0.5-1-0.7
	L69.5,109.5z M71.5,110.9c0.3,0.2,0.7,0.4,1,0.6l-0.6,1.1c-0.4-0.2-0.7-0.4-1.1-0.7L71.5,110.9z M73.6,112.1
	c0.4,0.2,0.7,0.4,1.1,0.6l-0.6,1.1c-0.4-0.2-0.8-0.4-1.1-0.6L73.6,112.1z M75.8,113.3c0.4,0.2,0.7,0.3,1.1,0.5l-0.5,1.1
	c-0.4-0.2-0.8-0.4-1.1-0.5L75.8,113.3z M78,114.3c0.2,0.1,0.3,0.1,0.5,0.2l-0.2,0.6l-0.2-0.6c0.2-0.1,0.4-0.2,0.6-0.2l0.5,1.2
	c-0.2,0.1-0.4,0.2-0.6,0.3l-0.2,0.1l-0.2-0.1c-0.2-0.1-0.4-0.1-0.5-0.2L78,114.3z M79.8,113.8c0.4-0.2,0.7-0.3,1.1-0.5l0.5,1.1
	c-0.4,0.2-0.8,0.4-1.1,0.5L79.8,113.8z M82,112.7c0.4-0.2,0.7-0.4,1.1-0.6l0.6,1.1c-0.4,0.2-0.7,0.4-1.1,0.6L82,112.7z M84.2,111.5
	c0.3-0.2,0.7-0.4,1-0.6l0.7,1.1c-0.4,0.2-0.7,0.4-1.1,0.7L84.2,111.5z M86.2,110.2c0.3-0.2,0.7-0.5,1-0.7l0.7,1
	c-0.3,0.2-0.7,0.5-1,0.7L86.2,110.2z M88.2,108.7c0.3-0.2,0.7-0.5,1-0.8l0.8,1c-0.3,0.3-0.7,0.5-1,0.8L88.2,108.7z M90.1,107.2
	c0.3-0.3,0.6-0.5,0.9-0.8l0.8,0.9c-0.3,0.3-0.6,0.6-0.9,0.8L90.1,107.2z M91.9,105.6c0.3-0.3,0.6-0.6,0.9-0.9l0.9,0.9
	c-0.3,0.3-0.6,0.6-0.9,0.9L91.9,105.6z M93.7,103.8c0.3-0.3,0.6-0.6,0.8-0.9l0.9,0.8c-0.3,0.3-0.6,0.6-0.8,0.9L93.7,103.8z
	 M95.3,102c0.3-0.3,0.5-0.6,0.8-0.9l1,0.8c-0.3,0.3-0.5,0.7-0.8,1L95.3,102z M96.8,100.1c0.2-0.3,0.5-0.7,0.7-1l1,0.7
	c-0.2,0.3-0.5,0.7-0.7,1L96.8,100.1z M98.2,98.1c0.2-0.3,0.4-0.7,0.7-1l1.1,0.7c-0.2,0.4-0.4,0.7-0.7,1.1L98.2,98.1z M99.5,96
	c0.2-0.4,0.4-0.7,0.6-1.1l1.1,0.6c-0.2,0.4-0.4,0.7-0.6,1.1L99.5,96z M100.7,93.8c0.2-0.4,0.4-0.7,0.5-1.1l1.1,0.5
	c-0.2,0.4-0.4,0.8-0.6,1.1L100.7,93.8z M101.7,91.6c0.2-0.4,0.3-0.8,0.5-1.1l1.2,0.5c-0.2,0.4-0.3,0.8-0.5,1.2L101.7,91.6z
	 M102.7,89.3c0.1-0.4,0.3-0.8,0.4-1.2l1.2,0.4c-0.1,0.4-0.3,0.8-0.4,1.2L102.7,89.3z M103.5,87c0.1-0.4,0.2-0.8,0.3-1.2l1.2,0.3
	c-0.1,0.4-0.2,0.8-0.4,1.2L103.5,87z M104.1,84.6c0.1-0.4,0.2-0.8,0.3-1.2l1.2,0.3c-0.1,0.4-0.2,0.8-0.3,1.2L104.1,84.6z
	 M104.7,82.2c0.1-0.4,0.1-0.8,0.2-1.2l1.2,0.2c-0.1,0.4-0.1,0.8-0.2,1.2L104.7,82.2z M105.1,79.8c0.1-0.4,0.1-0.8,0.1-1.2l1.2,0.1
	c0,0.4-0.1,0.8-0.2,1.3L105.1,79.8z M105.3,77.4c0-0.4,0.1-0.8,0.1-1.2l1.2,0.1c0,0.4,0,0.8-0.1,1.3L105.3,77.4z M105.4,74.9
	c0-0.3,0-0.6,0-1v-0.3h1.2V74c0,0.3,0,0.7,0,1L105.4,74.9z M105.4,72.5v-1.2h1.2v1.2H105.4z M105.4,70v-1.2h1.2V70H105.4z
	 M105.4,67.5v-1.2h1.2v1.2H105.4z M105.4,65v-1.2h1.2V65H105.4z M105.4,62.5v-1.2h1.2v1.2H105.4z M105.4,60.1v-1.2h1.2v1.2H105.4z"
	/>
<path class="st10" d="M106.1,57.7V57l-0.6,0.1"/>
<path class="st4" d="M104.3,57.8c-0.4,0-0.8,0.1-1.2,0.1l-0.1-1.2c0.4,0,0.8,0,1.2-0.1L104.3,57.8z M101.9,58c-0.4,0-0.8,0-1.2,0
	h-0.1l0-1.2h0.1c0.4,0,0.8,0,1.2,0L101.9,58z M99.4,58c-0.4,0-0.8,0-1.2,0l0.1-1.2c0.4,0,0.8,0,1.2,0.1L99.4,58z M96.9,57.8
	c-0.4,0-0.8-0.1-1.2-0.1l0.1-1.2c0.4,0,0.8,0.1,1.2,0.1L96.9,57.8z M94.5,57.6c-0.4-0.1-0.8-0.1-1.2-0.2l0.2-1.2
	c0.4,0.1,0.8,0.1,1.2,0.2L94.5,57.6z M92,57.2c-0.4-0.1-0.8-0.2-1.2-0.2l0.3-1.2c0.4,0.1,0.8,0.2,1.2,0.2L92,57.2z M89.6,56.6
	c-0.4-0.1-0.8-0.2-1.2-0.3l0.3-1.2c0.4,0.1,0.7,0.2,1.1,0.3L89.6,56.6z M87.2,56c-0.4-0.1-0.8-0.3-1.2-0.4l0.4-1.2
	c0.4,0.1,0.8,0.3,1.1,0.4L87.2,56z M84.9,55.1c-0.4-0.2-0.7-0.3-1.1-0.5l0.5-1.1c0.4,0.2,0.7,0.3,1.1,0.4L84.9,55.1z M82.7,54.1
	c-0.4-0.2-0.7-0.4-1.1-0.6l0.6-1.1c0.3,0.2,0.7,0.4,1.1,0.6L82.7,54.1z M80.5,52.9c-0.4-0.2-0.7-0.4-1-0.7l0.7-1
	c0.3,0.2,0.7,0.4,1,0.6L80.5,52.9z"/>
<path class="st1" d="M100.7,83.2c0,0.7,0,1.5,0,2.2c0,0.7-0.1,1.5-0.2,2.2c-0.1,0.7-0.3,1.4-0.5,2.2c-0.2,0.7-0.4,1.4-0.7,2.1
	s-0.5,1.4-0.9,2s-0.7,1.3-1.1,1.9c-0.4,0.6-0.8,1.2-1.2,1.8c-0.4,0.6-0.9,1.1-1.4,1.7c-0.5,0.5-1,1.1-1.6,1.5s-1.1,0.9-1.7,1.4
	c-0.6,0.4-1.2,0.8-1.8,1.2s-1.3,0.7-1.9,1c-0.7,0.3-1.3,0.6-2,0.8c-0.7,0.2-1.4,0.4-2.1,0.6s-1.4,0.3-2.2,0.4
	c-0.7,0.1-1.5,0.2-2.2,0.2c-0.7,0-1.5,0-2.2,0c-0.7,0-1.5-0.1-2.2-0.2c-0.7-0.1-1.4-0.3-2.1-0.5c-0.7-0.2-1.4-0.4-2.1-0.7
	s-1.4-0.5-2-0.9s-1.3-0.7-1.9-1.1s-1.2-0.8-1.8-1.2c-0.6-0.4-1.1-0.9-1.7-1.4c-0.5-0.5-1-1-1.5-1.6c-0.5-0.5-0.9-1.1-1.4-1.7
	S59.4,96,59,95.4c-0.4-0.6-0.7-1.3-1-2s-0.6-1.3-0.8-2c-0.2-0.7-0.4-1.4-0.6-2.1s-0.3-1.4-0.4-2.2C56.1,86.4,56,85.7,56,85
	s0-1.5,0-2.2c0-0.7,0.1-1.5,0.2-2.2c0.1-0.7,0.3-1.4,0.5-2.2c0.2-0.7,0.4-1.4,0.7-2.1s0.5-1.4,0.9-2s0.7-1.3,1.1-1.9
	c0.4-0.6,0.8-1.2,1.2-1.8c0.4-0.6,0.9-1.1,1.4-1.7c0.5-0.5,1-1.1,1.6-1.5c0.5-0.5,1.1-0.9,1.7-1.4c0.6-0.4,1.2-0.8,1.8-1.2
	s1.3-0.7,1.9-1c0.7-0.3,1.3-0.6,2-0.8c0.7-0.2,1.4-0.4,2.1-0.6c0.7-0.2,1.4-0.3,2.2-0.4c0.7-0.1,1.5-0.2,2.2-0.2c0.7,0,1.5,0,2.2,0
	c0.7,0,1.5,0.1,2.2,0.2c0.7,0.1,1.4,0.3,2.1,0.5c0.7,0.2,1.4,0.4,2.1,0.7c0.7,0.3,1.4,0.5,2,0.9c0.7,0.3,1.3,0.7,1.9,1.1
	s1.2,0.8,1.8,1.2c0.6,0.4,1.1,0.9,1.7,1.4c0.5,0.5,1.1,1,1.5,1.6c0.5,0.6,0.9,1.1,1.4,1.7s0.8,1.2,1.2,1.8c0.4,0.6,0.7,1.3,1,1.9
	s0.6,1.3,0.8,2c0.2,0.7,0.4,1.4,0.6,2.1s0.3,1.4,0.4,2.2C100.6,81.8,100.7,82.5,100.7,83.2z"/>
<path class="st11" d="M100.7,80c0,0.7,0,1.5-0.1,2.2c-0.1,0.7-0.2,1.5-0.3,2.2c-0.1,0.7-0.3,1.4-0.5,2.1c-0.2,0.7-0.5,1.4-0.7,2.1
	c-0.3,0.7-0.6,1.3-0.9,2c-0.3,0.6-0.7,1.3-1.1,1.9c-0.4,0.6-0.8,1.2-1.3,1.8c-0.5,0.6-1,1.1-1.5,1.6c-0.5,0.5-1.1,1-1.6,1.5
	c-0.6,0.5-1.2,0.9-1.8,1.3c-0.6,0.4-1.2,0.8-1.9,1.1c-0.6,0.3-1.3,0.7-2,0.9c-0.7,0.3-1.4,0.5-2.1,0.7c-0.7,0.2-1.4,0.4-2.1,0.5
	c-0.7,0.1-1.4,0.2-2.2,0.3c-0.7,0.1-1.5,0.1-2.2,0.1c-0.7,0-1.5,0-2.2-0.1c-0.7-0.1-1.5-0.2-2.2-0.3c-0.7-0.1-1.4-0.3-2.1-0.5
	c-0.7-0.2-1.4-0.5-2.1-0.7c-0.7-0.3-1.3-0.6-2-0.9c-0.6-0.3-1.3-0.7-1.9-1.1c-0.6-0.4-1.2-0.8-1.8-1.3c-0.6-0.5-1.1-1-1.6-1.5
	c-0.5-0.5-1-1.1-1.5-1.6c-0.5-0.6-0.9-1.2-1.3-1.8c-0.4-0.6-0.8-1.2-1.1-1.9c-0.3-0.6-0.7-1.3-0.9-2c-0.3-0.7-0.5-1.4-0.7-2.1
	c-0.2-0.7-0.4-1.4-0.5-2.1c-0.1-0.7-0.2-1.4-0.3-2.2c-0.1-0.7-0.1-1.5-0.1-2.2c0-0.7,0-1.5,0.1-2.2c0.1-0.7,0.2-1.5,0.3-2.2
	c0.1-0.7,0.3-1.4,0.5-2.1c0.2-0.7,0.5-1.4,0.7-2.1c0.3-0.7,0.6-1.3,0.9-2c0.3-0.6,0.7-1.3,1.1-1.9c0.4-0.6,0.8-1.2,1.3-1.8
	c0.5-0.6,1-1.1,1.5-1.6c0.5-0.5,1.1-1,1.6-1.5c0.6-0.5,1.2-0.9,1.8-1.3c0.6-0.4,1.2-0.8,1.9-1.1c0.6-0.3,1.3-0.7,2-0.9
	c0.7-0.3,1.4-0.5,2.1-0.7c0.7-0.2,1.4-0.4,2.1-0.5s1.4-0.2,2.2-0.3c0.7-0.1,1.5-0.1,2.2-0.1c0.7,0,1.5,0,2.2,0.1
	c0.7,0.1,1.5,0.2,2.2,0.3c0.7,0.1,1.4,0.3,2.1,0.5c0.7,0.2,1.4,0.5,2.1,0.7c0.7,0.3,1.3,0.6,2,0.9c0.6,0.3,1.3,0.7,1.9,1.1
	c0.6,0.4,1.2,0.8,1.8,1.3c0.6,0.5,1.1,1,1.6,1.5c0.5,0.5,1,1.1,1.5,1.6c0.5,0.6,0.9,1.2,1.3,1.8c0.4,0.6,0.8,1.2,1.1,1.9
	c0.3,0.6,0.7,1.3,0.9,2s0.5,1.4,0.7,2.1c0.2,0.7,0.4,1.4,0.5,2.1c0.1,0.7,0.2,1.4,0.3,2.2C100.7,78.6,100.7,79.3,100.7,80z"/>
<path class="st9" d="M93.7,80c0,1-0.1,2-0.3,3c-0.2,1-0.5,2-0.9,2.9c-0.4,0.9-0.9,1.8-1.4,2.7c-0.6,0.8-1.2,1.6-1.9,2.3
	c-0.7,0.7-1.5,1.4-2.3,1.9c-0.8,0.6-1.7,1-2.7,1.4c-0.9,0.4-1.9,0.7-2.9,0.9c-1,0.2-2,0.3-3,0.3c-1,0-2-0.1-3-0.3
	c-1-0.2-1.9-0.5-2.9-0.9c-0.9-0.4-1.8-0.9-2.7-1.4c-0.8-0.6-1.6-1.2-2.3-1.9c-0.7-0.7-1.4-1.5-1.9-2.3c-0.6-0.8-1-1.7-1.4-2.7
	c-0.4-0.9-0.7-1.9-0.9-2.9c-0.2-1-0.3-2-0.3-3c0-1,0.1-2,0.3-3c0.2-1,0.5-2,0.9-2.9c0.4-0.9,0.9-1.8,1.4-2.7
	c0.6-0.8,1.2-1.6,1.9-2.3s1.5-1.4,2.3-1.9c0.8-0.6,1.7-1,2.7-1.4c0.9-0.4,1.9-0.7,2.9-0.9c1-0.2,2-0.3,3-0.3c1,0,2,0.1,3,0.3
	c1,0.2,1.9,0.5,2.9,0.9c0.9,0.4,1.8,0.9,2.7,1.4c0.8,0.6,1.6,1.2,2.3,1.9c0.7,0.7,1.4,1.5,1.9,2.3c0.6,0.8,1,1.7,1.4,2.7
	c0.4,0.9,0.7,1.9,0.9,2.9C93.6,78,93.7,79,93.7,80z"/>
<path class="st9" d="M87.8,80c0,0.6-0.1,1.2-0.2,1.8c-0.1,0.6-0.3,1.2-0.5,1.8c-0.2,0.6-0.5,1.1-0.9,1.6c-0.3,0.5-0.7,1-1.2,1.4
	c-0.4,0.4-0.9,0.8-1.4,1.2c-0.5,0.3-1.1,0.6-1.6,0.9c-0.6,0.2-1.2,0.4-1.8,0.5c-0.6,0.1-1.2,0.2-1.8,0.2c-0.6,0-1.2-0.1-1.8-0.2
	c-0.6-0.1-1.2-0.3-1.8-0.5c-0.6-0.2-1.1-0.5-1.6-0.9c-0.5-0.3-1-0.7-1.4-1.2c-0.4-0.4-0.8-0.9-1.2-1.4c-0.3-0.5-0.6-1.1-0.9-1.6
	c-0.2-0.6-0.4-1.2-0.5-1.8c-0.1-0.6-0.2-1.2-0.2-1.8s0.1-1.2,0.2-1.8c0.1-0.6,0.3-1.2,0.5-1.8c0.2-0.6,0.5-1.1,0.9-1.6
	c0.3-0.5,0.7-1,1.2-1.4c0.4-0.4,0.9-0.8,1.4-1.2s1.1-0.6,1.6-0.9c0.6-0.2,1.2-0.4,1.8-0.5c0.6-0.1,1.2-0.2,1.8-0.2
	c0.6,0,1.2,0.1,1.8,0.2c0.6,0.1,1.2,0.3,1.8,0.5c0.6,0.2,1.1,0.5,1.6,0.9c0.5,0.3,1,0.7,1.4,1.2c0.4,0.4,0.8,0.9,1.2,1.4
	c0.3,0.5,0.6,1.1,0.9,1.6c0.2,0.6,0.4,1.2,0.5,1.8S87.8,79.4,87.8,80z"/>
<path class="st12" d="M83.1,80c0,0.3,0,0.6-0.1,0.9c-0.1,0.3-0.2,0.6-0.3,0.9c-0.1,0.3-0.3,0.6-0.4,0.8c-0.2,0.3-0.4,0.5-0.6,0.7
	c-0.2,0.2-0.5,0.4-0.7,0.6c-0.3,0.2-0.5,0.3-0.8,0.4c-0.3,0.1-0.6,0.2-0.9,0.3c-0.3,0.1-0.6,0.1-0.9,0.1c-0.3,0-0.6,0-0.9-0.1
	c-0.3-0.1-0.6-0.2-0.9-0.3c-0.3-0.1-0.6-0.3-0.8-0.4c-0.3-0.2-0.5-0.4-0.7-0.6c-0.2-0.2-0.4-0.5-0.6-0.7c-0.2-0.3-0.3-0.5-0.4-0.8
	c-0.1-0.3-0.2-0.6-0.3-0.9c-0.1-0.3-0.1-0.6-0.1-0.9c0-0.3,0-0.6,0.1-0.9c0.1-0.3,0.2-0.6,0.3-0.9c0.1-0.3,0.3-0.6,0.4-0.8
	c0.2-0.3,0.4-0.5,0.6-0.7c0.2-0.2,0.5-0.4,0.7-0.6c0.3-0.2,0.5-0.3,0.8-0.4c0.3-0.1,0.6-0.2,0.9-0.3c0.3-0.1,0.6-0.1,0.9-0.1
	c0.3,0,0.6,0,0.9,0.1c0.3,0.1,0.6,0.2,0.9,0.3c0.3,0.1,0.6,0.3,0.8,0.4c0.3,0.2,0.5,0.4,0.7,0.6c0.2,0.2,0.4,0.5,0.6,0.7
	c0.2,0.3,0.3,0.5,0.4,0.8c0.1,0.3,0.2,0.6,0.3,0.9C83.1,79.4,83.1,79.7,83.1,80z"/>
<path class="st6" d="M78.3,48v9.4"/>
<path class="st6" d="M78.3,65.3v3.2"/>
<path class="st6" d="M78.3,112.1v-9.4"/>
<path class="st6" d="M78.3,94.7v-3.2"/>
<path class="st6" d="M101,57.4L94.4,64"/>
<path class="st6" d="M88.7,69.7l-2.2,2.2"/>
<path class="st6" d="M55.7,102.7l6.6-6.6"/>
<path class="st6" d="M68,90.4l2.2-2.2"/>
<path class="st6" d="M101,102.7l-6.6-6.6"/>
<path class="st6" d="M88.7,90.4l-2.2-2.2"/>
<path class="st6" d="M55.7,57.3l6.6,6.6"/>
<path class="st6" d="M68,69.6l2.2,2.2"/>
<path class="st13" d="M78.3,58.4v5.9"/>
<path class="st13" d="M78.3,95.7v5.9"/>
<path class="st13" d="M93.6,64.8l-4.2,4.2"/>
<path class="st13" d="M67.2,91.1l-4.2,4.2"/>
<path class="st13" d="M99.9,80H94"/>
<path class="st13" d="M62.6,80h-5.9"/>
<path class="st13" d="M93.6,95.3l-4.2-4.2"/>
<path class="st13" d="M67.2,68.9l-4.2-4.2"/>
<path class="st13" d="M67.5,61.3l2.9,5.1"/>
<path class="st13" d="M86.2,93.6l2.9,5.1"/>
<path class="st13" d="M83.9,59.2l-1.5,5.7"/>
<path class="st13" d="M74.3,95.2l-1.5,5.7"/>
<path class="st13" d="M97,69.2l-5.1,2.9"/>
<path class="st13" d="M64.7,87.9l-5.1,2.9"/>
<path class="st13" d="M99.2,85.6l-5.7-1.5"/>
<path class="st13" d="M63.2,76l-5.7-1.5"/>
<path class="st13" d="M59.6,69.2l5.1,2.9"/>
<path class="st13" d="M91.9,87.9l5.1,2.9"/>
<path class="st13" d="M72.7,59.2l1.5,5.7"/>
<path class="st13" d="M82.4,95.2l1.5,5.7"/>
<path class="st13" d="M89.1,61.3l-2.9,5.1"/>
<path class="st13" d="M70.5,93.6l-2.9,5.1"/>
<path class="st13" d="M99.2,74.4L93.5,76"/>
<path class="st13" d="M63.2,84.1l-5.7,1.5"/>
<path class="st4" d="M82.5,123.9l-3.9-7.9c0-0.1-0.1-0.1-0.2-0.1c-0.1,0-0.1,0-0.2,0.1l-3.9,7.9c0,0.1,0,0.1,0,0.2
	c0,0.1,0.1,0.1,0.2,0.1h7.9c0.1,0,0.1,0,0.2-0.1S82.5,124,82.5,123.9z M78.5,122.5c0,0-0.1,0.1-0.2,0.1c-0.1,0-0.1,0-0.1-0.1
	c0,0-0.1-0.1-0.1-0.2s0-0.1,0.1-0.1c0.1-0.1,0.2-0.1,0.3,0c0,0,0.1,0.1,0.1,0.1S78.5,122.4,78.5,122.5z M78.5,121.4
	c0,0.1-0.1,0.2-0.2,0.2s-0.2-0.1-0.2-0.2v-1.7c0-0.1,0.1-0.2,0.2-0.2s0.2,0.1,0.2,0.2V121.4z"/>
<path class="st14" d="M129.7,122h2.4"/>
<path class="st14" d="M134.5,131.6h-4.8"/>
<path class="st14" d="M132.1,122v4.8"/>
<path class="st14" d="M132.1,126.8v4.8"/>
<path class="st14" d="M121.4,126.8V122h4.8v4.8"/>
<path class="st14" d="M126.2,126.8v4.8h-4.8v-4.8"/>
<path class="st14" d="M121.4,139.9v-4.8h4.8v4.8"/>
<path class="st14" d="M126.2,139.9v4.8h-4.8v-4.8"/>
<path class="st14" d="M129.7,139.9v-4.8h4.8v4.8"/>
<path class="st14" d="M134.5,139.9v4.8h-4.8v-4.8"/>
<path class="st10" d="M113.7,84.5c0-0.3,0-0.6-0.1-0.9c-0.1-0.3-0.1-0.6-0.3-0.8s-0.3-0.5-0.4-0.8c-0.2-0.2-0.4-0.5-0.6-0.7
	c-0.2-0.2-0.4-0.4-0.7-0.6c-0.2-0.2-0.5-0.3-0.8-0.4s-0.6-0.2-0.8-0.3c-0.3-0.1-0.6-0.1-0.9-0.1H79.9"/>
<path class="st10" d="M113.7,143c0.3,0,0.6-0.1,0.9-0.2c0.3-0.1,0.5-0.3,0.7-0.5c0.2-0.2,0.4-0.5,0.5-0.7c0.1-0.3,0.2-0.6,0.2-0.9
	c0-0.3-0.1-0.6-0.2-0.9s-0.3-0.5-0.5-0.7c-0.2-0.2-0.5-0.4-0.7-0.5c-0.3-0.1-0.6-0.2-0.9-0.2c-0.3,0-0.6,0.1-0.9,0.2
	c-0.3,0.1-0.5,0.3-0.7,0.5c-0.2,0.2-0.4,0.5-0.5,0.7c-0.1,0.3-0.2,0.6-0.2,0.9c0,0.3,0.1,0.6,0.2,0.9c0.1,0.3,0.3,0.5,0.5,0.7
	c0.2,0.2,0.4,0.4,0.7,0.5C113.1,142.9,113.4,143,113.7,143z"/>
<path class="st10" d="M78.3,82.2c0.3,0,0.6-0.1,0.9-0.2c0.3-0.1,0.5-0.3,0.7-0.5c0.2-0.2,0.4-0.5,0.5-0.7c0.1-0.3,0.2-0.6,0.2-0.9
	c0-0.3-0.1-0.6-0.2-0.9c-0.1-0.3-0.3-0.5-0.5-0.7c-0.2-0.2-0.5-0.4-0.7-0.5c-0.3-0.1-0.6-0.2-0.9-0.2c-0.3,0-0.6,0.1-0.9,0.2
	c-0.3,0.1-0.5,0.3-0.7,0.5c-0.2,0.2-0.4,0.5-0.5,0.7s-0.2,0.6-0.2,0.9c0,0.3,0.1,0.6,0.2,0.9c0.1,0.3,0.3,0.5,0.5,0.7
	c0.2,0.2,0.4,0.4,0.7,0.5C77.7,82.2,78,82.2,78.3,82.2z"/>
<path class="st4" d="M113.1,138.5v-1.2h1.2v1.2 M113.1,136v-1.2h1.2v1.2 M113.1,133.5v-1.2h1.2v1.2 M113.1,131v-1.2h1.2v1.2
	 M113.1,128.5v-1.2h1.2v1.2 M113.1,126v-1.2h1.2v1.2 M113.1,123.5v-1.2h1.2v1.2 M113.1,121v-1.2h1.2v1.2 M113.1,118.5v-1.2h1.2v1.2
	 M113.1,116v-1.2h1.2v1.2 M113.1,113.5v-1.2h1.2v1.2 M113.1,111v-1.2h1.2v1.2 M113.1,108.5v-1.2h1.2v1.2 M113.1,106v-1.2h1.2v1.2
	 M113.1,103.5v-1.2h1.2v1.2 M113.1,101v-1.2h1.2v1.2 M113.1,98.5v-1.2h1.2v1.2 M113.1,96v-1.2h1.2V96 M113.1,93.5v-1.2h1.2v1.2
	 M113.1,91v-1.2h1.2V91 M113.1,88.5v-1.2h1.2v1.2 M113.1,86v-1.2h1.2V86"/>
<path class="st10" d="M42.9,75.5c0,0.3,0,0.6,0.1,0.9c0.1,0.3,0.1,0.6,0.3,0.8s0.3,0.5,0.4,0.8c0.2,0.2,0.4,0.5,0.6,0.7
	c0.2,0.2,0.4,0.4,0.7,0.6c0.2,0.2,0.5,0.3,0.8,0.4s0.6,0.2,0.8,0.3c0.3,0.1,0.6,0.1,0.9,0.1h29.4"/>
<path class="st10" d="M42.9,17c-0.3,0-0.6,0.1-0.9,0.2c-0.3,0.1-0.5,0.3-0.7,0.5c-0.2,0.2-0.4,0.5-0.5,0.7c-0.1,0.3-0.2,0.6-0.2,0.9
	c0,0.3,0.1,0.6,0.2,0.9c0.1,0.3,0.3,0.5,0.5,0.7c0.2,0.2,0.5,0.4,0.7,0.5c0.3,0.1,0.6,0.2,0.9,0.2s0.6-0.1,0.9-0.2
	c0.3-0.1,0.5-0.3,0.7-0.5c0.2-0.2,0.4-0.5,0.5-0.7c0.1-0.3,0.2-0.6,0.2-0.9c0-0.3-0.1-0.6-0.2-0.9c-0.1-0.3-0.3-0.5-0.5-0.7
	c-0.2-0.2-0.5-0.4-0.7-0.5C43.5,17,43.2,17,42.9,17z"/>
<path class="st10" d="M78.3,77.7c-0.3,0-0.6,0.1-0.9,0.2c-0.3,0.1-0.5,0.3-0.7,0.5c-0.2,0.2-0.4,0.5-0.5,0.7s-0.2,0.6-0.2,0.9
	c0,0.3,0.1,0.6,0.2,0.9c0.1,0.3,0.3,0.5,0.5,0.7c0.2,0.2,0.5,0.4,0.7,0.5c0.3,0.1,0.6,0.2,0.9,0.2c0.3,0,0.6-0.1,0.9-0.2
	c0.3-0.1,0.5-0.3,0.7-0.5c0.2-0.2,0.4-0.5,0.5-0.7c0.1-0.3,0.2-0.6,0.2-0.9c0-0.3-0.1-0.6-0.2-0.9c-0.1-0.3-0.3-0.5-0.5-0.7
	c-0.2-0.2-0.5-0.4-0.7-0.5C78.9,77.8,78.6,77.7,78.3,77.7z"/>
<path class="st4" d="M43.6,21.5v1.2h-1.2v-1.2 M43.6,24v1.2h-1.2V24 M43.6,26.5v1.2h-1.2v-1.2 M43.6,29v1.2h-1.2V29 M43.6,31.5v1.2
	h-1.2v-1.2 M43.6,34v1.2h-1.2V34 M43.6,36.5v1.2h-1.2v-1.2 M43.6,39v1.2h-1.2V39 M43.6,41.5v1.2h-1.2v-1.2 M43.6,44v1.2h-1.2V44
	 M43.6,46.5v1.2h-1.2v-1.2 M43.6,49v1.2h-1.2V49 M43.6,51.4v1.2h-1.2v-1.2 M43.6,53.9v1.2h-1.2v-1.2 M43.6,56.4v1.2h-1.2v-1.2
	 M43.6,58.9v1.2h-1.2v-1.2 M43.6,61.4v1.2h-1.2v-1.2 M43.6,63.9v1.2h-1.2v-1.2 M43.6,66.4v1.2h-1.2v-1.2 M43.6,68.9v1.2h-1.2v-1.2
	 M43.6,71.4v1.2h-1.2v-1.2 M43.6,73.9v1.2h-1.2v-1.2"/>
<g>
	<defs>
		<rect id="SVGID_1_" x="0.3" width="52.7" height="46"/>
	</defs>
	<clipPath id="SVGID_2_">
		<use xlink:href="#SVGID_1_"  style="overflow:visible;"/>
	</clipPath>
	<g class="st15">
		<path class="st10" d="M35,6.1l-9.6-2.5l-9.6,2.5c-0.6,11.3,0.6,18.5,9.6,21.9C34.4,24.6,35.7,17.4,35,6.1z"/>
	</g>
</g>
<path class="st10" d="M31.4,9.8l-6-1.5l-6,1.5c-0.4,7.1,0.4,11.5,6,13.6C31,21.3,31.8,16.8,31.4,9.8z"/>
<path class="st10" d="M25.4,8.2V4.3"/>
<path class="st10" d="M25.4,27.3v-3.9"/>
<path class="st10" d="M29,12.6L23.6,18l-1.8-1.8"/>
<path class="st10" d="M140.9,6.1l-9.6-2.5l-9.6,2.5c-0.6,11.3,0.6,18.5,9.6,21.9C140.3,24.6,141.5,17.4,140.9,6.1z"/>
<path class="st10" d="M137.2,9.8l-6-1.5l-6,1.5c-0.4,7.1,0.4,11.5,6,13.6C136.9,21.3,137.6,16.8,137.2,9.8z"/>
<path class="st10" d="M131.3,8.2V4.3"/>
<path class="st10" d="M131.3,27.3v-3.9"/>
<path class="st10" d="M153.5,40.1h-14.4c-0.2,0-0.4,0-0.6-0.1c-0.2-0.1-0.4-0.2-0.5-0.3c-0.1-0.2-0.3-0.3-0.3-0.5
	c-0.1-0.2-0.1-0.4-0.1-0.6v-11c0-0.2,0-0.4,0.1-0.6c0.1-0.2,0.2-0.4,0.3-0.5c0.2-0.2,0.3-0.3,0.5-0.4c0.2-0.1,0.4-0.1,0.6-0.1h4.2
	c0.3,0,0.6,0.1,0.8,0.2c0.3,0.2,0.5,0.4,0.6,0.6l0.8,1.5h8c0.2,0,0.4,0,0.6,0.1c0.2,0.1,0.4,0.2,0.5,0.3c0.1,0.2,0.3,0.3,0.3,0.5
	c0.1,0.2,0.1,0.4,0.1,0.6v8.6c0,0.2,0,0.4-0.1,0.6c-0.1,0.2-0.2,0.4-0.3,0.5c-0.2,0.2-0.3,0.3-0.5,0.4
	C153.9,40,153.7,40.1,153.5,40.1z"/>
<path class="st10" d="M153.5,59.7h-14.4c-0.2,0-0.4,0-0.6-0.1c-0.2-0.1-0.4-0.2-0.5-0.4c-0.1-0.1-0.3-0.3-0.3-0.5
	c-0.1-0.2-0.1-0.4-0.1-0.6v-11c0-0.2,0-0.4,0.1-0.6c0.1-0.2,0.2-0.4,0.3-0.5c0.2-0.2,0.3-0.3,0.5-0.4c0.2-0.1,0.4-0.1,0.6-0.1h4.2
	c0.3,0,0.6,0.1,0.8,0.2c0.3,0.2,0.5,0.4,0.6,0.6l0.8,1.5h8c0.2,0,0.4,0,0.6,0.1c0.2,0.1,0.4,0.2,0.5,0.3c0.1,0.2,0.3,0.3,0.3,0.5
	c0.1,0.2,0.1,0.4,0.1,0.6v8.6c0,0.2,0,0.4-0.1,0.6c-0.1,0.2-0.2,0.4-0.3,0.5c-0.2,0.2-0.3,0.3-0.5,0.4
	C153.9,59.7,153.7,59.7,153.5,59.7z"/>
<path class="st10" d="M154.1,79.4h-14.4c-0.2,0-0.4,0-0.6-0.1c-0.2-0.1-0.4-0.2-0.5-0.3c-0.2-0.2-0.3-0.3-0.3-0.5
	c-0.1-0.2-0.1-0.4-0.1-0.6v-11c0-0.2,0-0.4,0.1-0.6c0.1-0.2,0.2-0.4,0.3-0.5c0.2-0.1,0.3-0.3,0.5-0.3c0.2-0.1,0.4-0.1,0.6-0.1h4.2
	c0.3,0,0.6,0.1,0.8,0.2c0.3,0.2,0.5,0.4,0.6,0.6l0.8,1.5h8c0.2,0,0.4,0,0.6,0.1c0.2,0.1,0.4,0.2,0.5,0.3c0.1,0.2,0.3,0.3,0.3,0.5
	c0.1,0.2,0.1,0.4,0.1,0.6v8.6c0,0.2,0,0.4-0.1,0.6s-0.2,0.4-0.3,0.5c-0.2,0.2-0.3,0.3-0.5,0.4C154.5,79.4,154.3,79.4,154.1,79.4z"/>
<g>
	<defs>
		<rect id="SVGID_3_" x="0.8" y="61.4" width="124.7" height="88"/>
	</defs>
	<clipPath id="SVGID_4_">
		<use xlink:href="#SVGID_3_"  style="overflow:visible;"/>
	</clipPath>
	<g class="st16">
		<path class="st10" d="M9.8,79.4c0,38.2,30.9,69.2,69.1,69.2c4.9,0,9.7-0.5,14.4-1.5c4.7-1,9.3-2.5,13.8-4.5"/>
	</g>
</g>
<path class="st10" d="M138.2,114.6c3-5.3,5.3-10.8,6.9-16.7c1.6-5.9,2.3-11.8,2.3-17.9"/>
<path class="st10" d="M127.3,114.6h10.8v10.9"/>
<path class="st4" d="M42.1,5.2c0,0.2-0.1,0.5-0.3,0.6c-0.2,0.2-0.4,0.3-0.6,0.3c-0.2,0-0.5-0.1-0.6-0.3c-0.2-0.2-0.3-0.4-0.3-0.6
	c0-0.2,0.1-0.5,0.3-0.6c0.2-0.2,0.4-0.3,0.6-0.3c0.2,0,0.5,0.1,0.6,0.3C42,4.8,42.1,5,42.1,5.2z"/>
<path class="st10" d="M45.3,5.2h18.1"/>
<path class="st4" d="M42.1,9.1c0,0.2-0.1,0.5-0.3,0.6c-0.2,0.2-0.4,0.3-0.6,0.3c-0.2,0-0.5-0.1-0.6-0.3c-0.2-0.2-0.3-0.4-0.3-0.6
	c0-0.2,0.1-0.5,0.3-0.6c0.2-0.2,0.4-0.3,0.6-0.3c0.2,0,0.5,0.1,0.6,0.3C42,8.7,42.1,8.9,42.1,9.1z"/>
<path class="st10" d="M45.3,9.1h18.1"/>
<path class="st4" d="M42.1,13c0,0.2-0.1,0.5-0.3,0.6c-0.2,0.2-0.4,0.3-0.6,0.3c-0.2,0-0.5-0.1-0.6-0.3c-0.2-0.2-0.3-0.4-0.3-0.6
	c0-0.2,0.1-0.5,0.3-0.6c0.2-0.2,0.4-0.3,0.6-0.3c0.2,0,0.5,0.1,0.6,0.3C42,12.6,42.1,12.8,42.1,13z"/>
<path class="st10" d="M45.3,13h18.1"/>
<path class="st4" d="M95,5.2c0,0.2-0.1,0.5-0.3,0.6c-0.2,0.2-0.4,0.3-0.6,0.3S93.7,6,93.5,5.9c-0.2-0.2-0.3-0.4-0.3-0.6
	c0-0.2,0.1-0.5,0.3-0.6c0.2-0.2,0.4-0.3,0.6-0.3s0.5,0.1,0.6,0.3C94.9,4.8,95,5,95,5.2z"/>
<path class="st10" d="M98.2,5.2h18.1"/>
<path class="st4" d="M95,9.1c0,0.2-0.1,0.5-0.3,0.6c-0.2,0.2-0.4,0.3-0.6,0.3s-0.5-0.1-0.6-0.3c-0.2-0.2-0.3-0.4-0.3-0.6
	c0-0.2,0.1-0.5,0.3-0.6c0.2-0.2,0.4-0.3,0.6-0.3s0.5,0.1,0.6,0.3C94.9,8.7,95,8.9,95,9.1z"/>
<path class="st10" d="M98.2,9.1h18.1"/>
<path class="st4" d="M95,13c0,0.2-0.1,0.5-0.3,0.6c-0.2,0.2-0.4,0.3-0.6,0.3s-0.5-0.1-0.6-0.3c-0.2-0.2-0.3-0.4-0.3-0.6
	c0-0.2,0.1-0.5,0.3-0.6c0.2-0.2,0.4-0.3,0.6-0.3s0.5,0.1,0.6,0.3C94.9,12.6,95,12.8,95,13z"/>
<path class="st10" d="M98.2,13h18.1"/>
<g>
	<defs>
		<rect id="SVGID_5_" x="0.3" y="52" width="36.7" height="46"/>
	</defs>
	<clipPath id="SVGID_6_">
		<use xlink:href="#SVGID_5_"  style="overflow:visible;"/>
	</clipPath>
	<g class="st17">
		<path class="st10" d="M1,70.6v7.2c0,0.2,0,0.4,0.1,0.6c0.1,0.2,0.2,0.4,0.3,0.5c0.1,0.2,0.3,0.3,0.5,0.4c0.2,0.1,0.4,0.1,0.6,0.1
			H17c0.2,0,0.4,0,0.6-0.1c0.2-0.1,0.4-0.2,0.5-0.4c0.1-0.2,0.3-0.3,0.3-0.5c0.1-0.2,0.1-0.4,0.1-0.6v-7.2"/>
	</g>
</g>
<g>
	<defs>
		<rect id="SVGID_7_" x="0.3" y="35" width="36.7" height="54"/>
	</defs>
	<clipPath id="SVGID_8_">
		<use xlink:href="#SVGID_7_"  style="overflow:visible;"/>
	</clipPath>
	<g class="st18">
		<path class="st10" d="M18.6,71.3V55.1c0-0.2,0-0.4-0.1-0.6c-0.1-0.2-0.2-0.4-0.3-0.5c-0.2-0.2-0.3-0.3-0.5-0.4
			c-0.2-0.1-0.4-0.1-0.6-0.1H2.6c-0.2,0-0.4,0-0.6,0.1c-0.2,0.1-0.4,0.2-0.5,0.4c-0.2,0.2-0.3,0.3-0.4,0.5C1,54.7,1,54.9,1,55.1
			v16.2"/>
	</g>
</g>
<path class="st10" d="M132.8,13.5c0-0.2,0-0.4-0.1-0.6c-0.1-0.2-0.2-0.4-0.3-0.5c-0.1-0.1-0.3-0.3-0.5-0.3c-0.2-0.1-0.4-0.1-0.6-0.1
	c-0.2,0-0.4,0-0.6,0.1c-0.2,0.1-0.4,0.2-0.5,0.3c-0.1,0.1-0.3,0.3-0.3,0.5c-0.1,0.2-0.1,0.4-0.1,0.6v0.6c0,0.2,0,0.4,0.1,0.6
	c0.1,0.2,0.2,0.4,0.3,0.5c0.1,0.1,0.3,0.3,0.5,0.3c0.2,0.1,0.4,0.1,0.6,0.1"/>
<path class="st10" d="M129.7,17.8c0,0.2,0,0.4,0.1,0.6c0.1,0.2,0.2,0.4,0.3,0.5c0.1,0.1,0.3,0.3,0.5,0.3c0.2,0.1,0.4,0.1,0.6,0.1
	s0.4,0,0.6-0.1c0.2-0.1,0.4-0.2,0.5-0.3c0.1-0.1,0.3-0.3,0.3-0.5c0.1-0.2,0.1-0.4,0.1-0.6v-0.6c0-0.2,0-0.4-0.1-0.6
	c-0.1-0.2-0.2-0.4-0.3-0.5c-0.1-0.1-0.3-0.3-0.5-0.3c-0.2-0.1-0.4-0.1-0.6-0.1"/>
<path class="st10" d="M131.3,10v1.8"/>
<path class="st10" d="M131.3,19.5v1.8"/>
<path class="st10" d="M4,56.5h11.6v4.8H4V56.5z"/>
<path class="st10" d="M5.2,63.9h1.4v1.4H5.2V63.9z"/>
<path class="st10" d="M9.1,63.9h1.4v1.4H9.1V63.9z"/>
<path class="st10" d="M13,63.9h1.4v1.4H13V63.9z"/>
<path class="st10" d="M5.2,67.5h1.4v1.4H5.2V67.5z"/>
<path class="st10" d="M9.1,67.5h1.4v1.4H9.1V67.5z"/>
<path class="st10" d="M13,67.5h1.4v1.4H13V67.5z"/>
<path class="st10" d="M5.2,71.1h1.4v1.4H5.2V71.1z"/>
<path class="st10" d="M9.1,71.1h1.4v1.4H9.1V71.1z"/>
<path class="st10" d="M13,71.1h1.4v1.4H13V71.1z"/>
<path class="st10" d="M9.1,74.8h1.4v1.4H9.1V74.8z"/>
<path class="st10" d="M85.7,8.1c0,0.5,0,1-0.1,1.4s-0.2,0.9-0.4,1.4c-0.2,0.4-0.4,0.9-0.7,1.3c-0.3,0.4-0.6,0.8-0.9,1.1
	c-0.3,0.3-0.7,0.6-1.1,0.9c-0.4,0.3-0.8,0.5-1.3,0.7c-0.4,0.2-0.9,0.3-1.4,0.4c-0.5,0.1-1,0.1-1.4,0.1c-0.5,0-1,0-1.4-0.1
	c-0.5-0.1-0.9-0.2-1.4-0.4c-0.4-0.2-0.9-0.4-1.3-0.7c-0.4-0.3-0.8-0.6-1.1-0.9c-0.3-0.3-0.6-0.7-0.9-1.1c-0.3-0.4-0.5-0.8-0.7-1.3
	c-0.2-0.4-0.3-0.9-0.4-1.4S71,8.6,71,8.1c0-0.5,0-1,0.1-1.4c0.1-0.5,0.2-0.9,0.4-1.4c0.2-0.4,0.4-0.9,0.7-1.3
	c0.3-0.4,0.6-0.8,0.9-1.1c0.3-0.3,0.7-0.6,1.1-0.9c0.4-0.3,0.8-0.5,1.3-0.7C76,1.1,76.4,1,76.9,0.9c0.5-0.1,1-0.1,1.4-0.1
	c0.5,0,1,0,1.4,0.1c0.5,0.1,0.9,0.2,1.4,0.4C81.6,1.5,82,1.7,82.4,2c0.4,0.3,0.8,0.6,1.1,0.9c0.3,0.3,0.6,0.7,0.9,1.1
	c0.3,0.4,0.5,0.8,0.7,1.3c0.2,0.4,0.3,0.9,0.4,1.4C85.6,7.1,85.7,7.6,85.7,8.1z"/>
<path class="st10" d="M73.1,13.3L83.5,2.9"/>
<path class="st10" d="M4.3,48h11"/>
<path class="st10" d="M4.3,43.6h11"/>
<path class="st10" d="M4.3,39.3h11"/>
<path class="st10" d="M4.3,35h11"/>
<path class="st10" d="M4.3,30.6h11"/>
<path class="st4" d="M35,124.7c0,0.6-0.1,1.3-0.2,1.9c-0.1,0.6-0.3,1.2-0.5,1.8c-0.2,0.6-0.5,1.1-0.9,1.7c-0.3,0.5-0.7,1-1.2,1.5
	c-0.4,0.4-0.9,0.8-1.5,1.2c-0.5,0.4-1.1,0.6-1.7,0.9s-1.2,0.4-1.8,0.5c-0.6,0.1-1.2,0.2-1.9,0.2s-1.2-0.1-1.9-0.2
	c-0.6-0.1-1.2-0.3-1.8-0.5c-0.6-0.2-1.1-0.5-1.7-0.9c-0.5-0.3-1-0.7-1.5-1.2c-0.4-0.4-0.8-0.9-1.2-1.5c-0.3-0.5-0.6-1.1-0.9-1.7
	c-0.2-0.6-0.4-1.2-0.5-1.8c-0.1-0.6-0.2-1.2-0.2-1.9s0.1-1.3,0.2-1.9c0.1-0.6,0.3-1.2,0.5-1.8c0.2-0.6,0.5-1.1,0.9-1.7
	c0.4-0.5,0.8-1,1.2-1.5c0.4-0.4,0.9-0.8,1.5-1.2s1.1-0.6,1.7-0.9c0.6-0.2,1.2-0.4,1.8-0.5c0.6-0.1,1.2-0.2,1.9-0.2s1.3,0.1,1.9,0.2
	c0.6,0.1,1.2,0.3,1.8,0.5s1.1,0.5,1.7,0.9s1,0.8,1.5,1.2s0.8,0.9,1.2,1.5c0.4,0.5,0.6,1.1,0.9,1.7c0.2,0.6,0.4,1.2,0.5,1.8
	C34.9,123.5,35,124.1,35,124.7z"/>
<path class="st1" d="M28.4,121.2c-0.2,0-0.3,0.1-0.5,0.2s-0.2,0.3-0.2,0.5v2.1c0,0.2-0.1,0.2-0.3,0.2s-0.2-0.1-0.3-0.2v-4.3
	c0-0.2,0-0.4-0.2-0.5c-0.1-0.1-0.3-0.2-0.5-0.2s-0.4,0.1-0.5,0.2c-0.1,0.1-0.2,0.3-0.2,0.5v4c0,0.1,0,0.1-0.1,0.2s-0.1,0.1-0.2,0.1
	c-0.1,0-0.1,0-0.2-0.1s-0.1-0.1-0.1-0.2v-4.6c0-0.2-0.1-0.3-0.2-0.5s-0.3-0.2-0.5-0.2s-0.3,0.1-0.5,0.2S24,119,24,119.1v4.8
	c0,0.1,0.1,0.2,0.2,0.2c0.1,0,0.1,0,0.2,0.1c0.1,0.1,0.1,0.1,0.1,0.2s0,0.1-0.1,0.2c-0.1,0.1-0.1,0.1-0.2,0.1
	c-0.2,0-0.4-0.1-0.5-0.2s-0.2-0.3-0.2-0.5v-3.6c0-0.2-0.1-0.3-0.2-0.5s-0.3-0.2-0.5-0.2c-0.2,0-0.3,0.1-0.5,0.2s-0.2,0.3-0.2,0.5
	v5.7c0,0.2-0.1,0.2-0.2,0.3c0,0,0,0,0,0c-0.1,0.1-0.1,0.1-0.2,0.1c-0.1,0-0.1,0-0.2-0.1l-0.7-0.7c-0.1-0.2-0.3-0.2-0.5-0.2
	c-0.2,0-0.4,0.1-0.5,0.2c-0.2,0.1-0.2,0.3-0.2,0.5c0,0.2,0.1,0.4,0.2,0.5l1.6,1.6l0.1,0.1v0l1.1,1.1c0.2,0.2,0.5,0.3,0.8,0.3h4.3
	c0.2,0,0.3,0,0.5-0.1c0.2-0.1,0.3-0.2,0.4-0.3s0.2-0.3,0.3-0.4c0.1-0.2,0.1-0.3,0.1-0.5v-6.7c0-0.2-0.1-0.3-0.2-0.5
	S28.6,121.2,28.4,121.2z"/>
</svg>
