<?xml version="1.0" encoding="utf-8"?>
<!-- Generator: Adobe Illustrator 24.3.0, SVG Export Plug-In . SVG Version: 6.00 Build 0)  -->
<svg version="1.1" id="Layer_1" xmlns="http://www.w3.org/2000/svg" xmlns:xlink="http://www.w3.org/1999/xlink" x="0px" y="0px"
	 viewBox="0 0 150 150" style="enable-background:new 0 0 150 150;" xml:space="preserve">
<style type="text/css">
	.st0{fill:none;}
	.st1{fill:#E9F6FF;}
	.st2{fill:#DEF4FC;}
	.st3{fill:#AFD8F9;}
	.st4{fill:#C8DFF5;}
	.st5{fill:none;stroke:#2481D7;stroke-width:1.2045;stroke-linecap:round;stroke-linejoin:round;stroke-miterlimit:1.2045;}
	.st6{fill:#FFFFFF;stroke:#2481D7;stroke-width:1.2045;stroke-linecap:round;stroke-linejoin:round;stroke-miterlimit:1.2045;}
	.st7{fill:none;stroke:#C8DFF5;stroke-width:1.2045;stroke-miterlimit:3.0114;}
	.st8{fill:#FFFFFF;}
	.st9{fill:none;stroke:#2481D7;stroke-width:2.4091;stroke-linecap:round;stroke-linejoin:round;stroke-miterlimit:1.2045;}
	.st10{fill:#288DE8;}
	.st11{fill:#2481D7;}
	.st12{clip-path:url(#SVGID_2_);}
	.st13{fill:none;stroke:#2481D7;stroke-width:1.8068;stroke-linecap:round;stroke-linejoin:round;stroke-miterlimit:1.2045;}
	.st14{fill:#5BA1E1;}
	.st15{clip-path:url(#SVGID_4_);}
	.st16{fill:none;stroke:#FFFFFF;stroke-width:1.2045;stroke-miterlimit:3.0114;}
	.st17{clip-path:url(#SVGID_6_);}
	.st18{fill:none;stroke:#C8DFF5;stroke-width:1.2045;stroke-linecap:square;stroke-miterlimit:3.0114;}
</style>
<rect x="-15" y="-15" class="st0" width="180" height="180"/>
<rect x="-15" y="-15" class="st0" width="180" height="180"/>
<rect x="-15" y="-15" class="st0" width="180" height="180"/>
<path class="st1" d="M3.8,20.2h91.6v99.6H3.8V20.2z"/>
<path class="st1" d="M137.5,71V5.5c0-0.3,0-0.6-0.1-0.8c-0.1-0.3-0.1-0.5-0.2-0.8c-0.1-0.3-0.2-0.5-0.4-0.7s-0.3-0.4-0.5-0.6
	c-0.2-0.2-0.4-0.4-0.6-0.5c-0.2-0.2-0.5-0.3-0.7-0.4c-0.3-0.1-0.5-0.2-0.8-0.2c-0.3-0.1-0.6-0.1-0.8-0.1H33.7c-0.3,0-0.6,0-0.8,0.1
	c-0.3,0.1-0.5,0.1-0.8,0.2c-0.3,0.1-0.5,0.2-0.7,0.4c-0.2,0.2-0.4,0.3-0.6,0.5c-0.2,0.2-0.4,0.4-0.5,0.6s-0.3,0.5-0.4,0.7
	c-0.1,0.3-0.2,0.5-0.2,0.8c-0.1,0.3-0.1,0.6-0.1,0.8V71H137.5z"/>
<path class="st2" d="M29.4,13.3h107.8V19H29.4V13.3z"/>
<path class="st3" d="M29.4,13.3h23.5V71H29.4V13.3z"/>
<path class="st4" d="M29.4,13.3h23.5V19H29.4V13.3z"/>
<path class="st5" d="M29.4,13.3h23.5V71H29.4V13.3z"/>
<path class="st6" d="M133.2,1.2H33.7c-0.3,0-0.6,0-0.8,0.1c-0.3,0.1-0.5,0.1-0.8,0.2c-0.3,0.1-0.5,0.2-0.7,0.4
	c-0.2,0.2-0.4,0.3-0.6,0.5c-0.2,0.2-0.4,0.4-0.5,0.6c-0.2,0.2-0.3,0.5-0.4,0.7c-0.1,0.3-0.2,0.5-0.2,0.8c-0.1,0.3-0.1,0.6-0.1,0.8
	v7.9h108.1V5.5c0-0.3,0-0.6-0.1-0.8c-0.1-0.3-0.1-0.5-0.2-0.8c-0.1-0.3-0.2-0.5-0.4-0.7c-0.2-0.2-0.3-0.4-0.5-0.6
	c-0.2-0.2-0.4-0.4-0.6-0.5c-0.2-0.2-0.5-0.3-0.7-0.4c-0.3-0.1-0.5-0.2-0.8-0.2C133.8,1.2,133.5,1.2,133.2,1.2z"/>
<path class="st5" d="M44.4,7.3c0,0.4-0.1,0.7-0.2,1c-0.1,0.3-0.3,0.6-0.6,0.9c-0.3,0.3-0.5,0.4-0.9,0.6c-0.3,0.1-0.7,0.2-1,0.2
	s-0.7-0.1-1-0.2c-0.3-0.1-0.6-0.3-0.9-0.6c-0.3-0.3-0.4-0.6-0.6-0.9C39.1,8,39,7.6,39,7.3s0.1-0.7,0.2-1c0.1-0.3,0.3-0.6,0.6-0.9
	c0.3-0.3,0.5-0.4,0.9-0.6c0.3-0.1,0.7-0.2,1-0.2s0.7,0.1,1,0.2c0.3,0.1,0.6,0.3,0.9,0.6c0.3,0.3,0.4,0.5,0.6,0.9
	C44.4,6.6,44.4,6.9,44.4,7.3z"/>
<path class="st5" d="M42.1,7.3c0,0.1,0,0.2-0.1,0.3c-0.1,0.1-0.2,0.1-0.2,0.1c-0.1,0-0.2,0-0.3-0.1c-0.1-0.1-0.1-0.2-0.1-0.2
	c0-0.1,0-0.2,0.1-0.3c0.1-0.1,0.2-0.1,0.2-0.1c0.1,0,0.2,0,0.3,0.1S42.1,7.2,42.1,7.3z"/>
<path class="st5" d="M61.9,7.3h4.2"/>
<path class="st5" d="M71.1,7.3h4.2"/>
<path class="st5" d="M80.3,7.3h4.2"/>
<path class="st5" d="M89.5,7.3h4.2"/>
<path class="st5" d="M98.7,7.3h4.2"/>
<path class="st5" d="M107.9,7.3h4.2"/>
<path class="st7" d="M123.8,34.2v0.6h-0.6"/>
<path class="st4" d="M122,35.4h-1.2v-1.2h1.2 M119.6,35.4h-1.2v-1.2h1.2 M117.3,35.4h-1.2v-1.2h1.2 M114.9,35.4h-1.2v-1.2h1.2
	 M112.5,35.4h-1.2v-1.2h1.2 M110.1,35.4h-1.2v-1.2h1.2 M107.7,35.4h-1.2v-1.2h1.2 M105.4,35.4h-1.2v-1.2h1.2 M103,35.4h-1.2v-1.2
	h1.2 M100.6,35.4h-1.2v-1.2h1.2 M98.2,35.4H97v-1.2h1.2 M95.9,35.4h-1.2v-1.2h1.2 M93.5,35.4h-1.2v-1.2h1.2 M91.1,35.4h-1.2v-1.2
	h1.2 M88.7,35.4h-1.2v-1.2h1.2 M86.3,35.4h-1.2v-1.2h1.2 M84,35.4h-1.2v-1.2H84 M81.6,35.4h-1.2v-1.2h1.2 M79.2,35.4H78v-1.2h1.2
	 M76.8,35.4h-1.2v-1.2h1.2 M74.4,35.4h-1.2v-1.2h1.2 M72.1,35.4h-1.2v-1.2h1.2 M69.7,35.4h-1.2v-1.2h1.2 M67.3,35.4h-1.2v-1.2h1.2
	 M64.9,35.4h-1.2v-1.2h1.2"/>
<path class="st7" d="M62.5,34.8h-0.6v-0.6"/>
<path class="st4" d="M61.3,33v-1.1h1.2V33 M61.3,30.8v-1.1h1.2v1.1 M61.3,28.5v-1.1h1.2v1.1 M61.3,26.2V25h1.2v1.1 M61.3,23.9v-1.1
	h1.2v1.1 M61.3,21.6v-1.1h1.2v1.1"/>
<path class="st7" d="M61.9,19.3v-0.6h0.6"/>
<path class="st4" d="M63.7,18.1h1.2v1.2h-1.2 M66.1,18.1h1.2v1.2h-1.2 M68.4,18.1h1.2v1.2h-1.2 M70.8,18.1H72v1.2h-1.2 M73.2,18.1
	h1.2v1.2h-1.2 M75.6,18.1h1.2v1.2h-1.2 M78,18.1h1.2v1.2H78 M80.3,18.1h1.2v1.2h-1.2 M82.7,18.1h1.2v1.2h-1.2 M85.1,18.1h1.2v1.2
	h-1.2 M87.5,18.1h1.2v1.2h-1.2 M89.9,18.1H91v1.2h-1.2 M92.2,18.1h1.2v1.2h-1.2 M94.6,18.1h1.2v1.2h-1.2 M97,18.1h1.2v1.2H97
	 M99.4,18.1h1.2v1.2h-1.2 M101.8,18.1h1.2v1.2h-1.2 M104.1,18.1h1.2v1.2h-1.2 M106.5,18.1h1.2v1.2h-1.2 M108.9,18.1h1.2v1.2h-1.2
	 M111.3,18.1h1.2v1.2h-1.2 M113.6,18.1h1.2v1.2h-1.2 M116,18.1h1.2v1.2H116 M118.4,18.1h1.2v1.2h-1.2 M120.8,18.1h1.2v1.2h-1.2"/>
<path class="st7" d="M123.2,18.7h0.6v0.6"/>
<path class="st4" d="M124.4,20.5v1.1h-1.2v-1.1 M124.4,22.8v1.1h-1.2v-1.1 M124.4,25v1.1h-1.2V25 M124.4,27.3v1.1h-1.2v-1.1
	 M124.4,29.6v1.1h-1.2v-1.1 M124.4,31.9V33h-1.2v-1.1"/>
<path class="st7" d="M78.9,64.6v0.6h-0.6"/>
<path class="st4" d="M77.1,65.9h-1.2v-1.2h1.2 M74.6,65.9h-1.2v-1.2h1.2 M72.2,65.9H71v-1.2h1.2 M69.8,65.9h-1.2v-1.2h1.2
	 M67.3,65.9h-1.2v-1.2h1.2 M64.9,65.9h-1.2v-1.2h1.2"/>
<path class="st7" d="M62.5,65.2h-0.6v-0.6"/>
<path class="st4" d="M61.3,63.3V62h1.2v1.3 M61.3,60.8v-1.3h1.2v1.3 M61.3,58.1v-1.3h1.2v1.3 M61.3,55.6v-1.3h1.2v1.3"/>
<path class="st7" d="M61.9,53v-0.6h0.6"/>
<path class="st4" d="M63.7,51.8h1.2V53h-1.2 M66.1,51.8h1.2V53h-1.2 M68.6,51.8h1.2V53h-1.2 M71,51.8h1.2V53H71 M73.4,51.8h1.2V53
	h-1.2 M75.8,51.8h1.2V53h-1.2"/>
<path class="st7" d="M78.3,52.4h0.6V53"/>
<path class="st4" d="M79.5,54.3v1.3h-1.2v-1.3 M79.5,56.9v1.3h-1.2v-1.3 M79.5,59.5v1.3h-1.2v-1.3 M79.5,62.1v1.3h-1.2v-1.3"/>
<path class="st7" d="M101.3,64.6v0.6h-0.6"/>
<path class="st4" d="M99.5,65.9h-1.2v-1.2h1.2 M97.1,65.9h-1.2v-1.2h1.2 M94.7,65.9h-1.2v-1.2h1.2 M92.2,65.9H91v-1.2h1.2
	 M89.8,65.9h-1.2v-1.2h1.2 M87.4,65.9h-1.2v-1.2h1.2"/>
<path class="st7" d="M85,65.2h-0.6v-0.6"/>
<path class="st4" d="M83.8,63.3V62H85v1.3 M83.8,60.8v-1.3H85v1.3 M83.8,58.1v-1.3H85v1.3 M83.8,55.6v-1.3H85v1.3"/>
<path class="st7" d="M84.4,53v-0.6H85"/>
<path class="st4" d="M86.2,51.8h1.2V53h-1.2 M88.6,51.8h1.2V53h-1.2 M91,51.8h1.2V53H91 M93.5,51.8h1.2V53h-1.2 M95.9,51.8h1.2V53
	h-1.2 M98.3,51.8h1.2V53h-1.2"/>
<path class="st7" d="M100.7,52.4h0.6V53"/>
<path class="st4" d="M101.9,54.3v1.3h-1.2v-1.3 M101.9,56.9v1.3h-1.2v-1.3 M101.9,59.5v1.3h-1.2v-1.3 M101.9,62.1v1.3h-1.2v-1.3"/>
<path class="st7" d="M123.8,64.6v0.6h-0.6"/>
<path class="st4" d="M122,65.9h-1.2v-1.2h1.2 M119.6,65.9h-1.2v-1.2h1.2 M117.1,65.9h-1.2v-1.2h1.2 M114.7,65.9h-1.2v-1.2h1.2
	 M112.3,65.9h-1.2v-1.2h1.2 M109.9,65.9h-1.2v-1.2h1.2"/>
<path class="st7" d="M107.4,65.2h-0.6v-0.6"/>
<path class="st4" d="M106.2,63.3V62h1.2v1.3 M106.2,60.8v-1.3h1.2v1.3 M106.2,58.1v-1.3h1.2v1.3 M106.2,55.6v-1.3h1.2v1.3"/>
<path class="st7" d="M106.8,53v-0.6h0.6"/>
<path class="st4" d="M108.6,51.8h1.2V53h-1.2 M111.1,51.8h1.2V53h-1.2 M113.5,51.8h1.2V53h-1.2 M115.9,51.8h1.2V53h-1.2 M118.4,51.8
	h1.2V53h-1.2 M120.8,51.8h1.2V53h-1.2"/>
<path class="st7" d="M123.2,52.4h0.6V53"/>
<path class="st4" d="M124.4,54.3v1.3h-1.2v-1.3 M124.4,56.9v1.3h-1.2v-1.3 M124.4,59.5v1.3h-1.2v-1.3 M124.4,62.1v1.3h-1.2v-1.3"/>
<path class="st7" d="M61.9,39.8h61.9"/>
<path class="st7" d="M61.9,43.2h61.9"/>
<path class="st7" d="M61.9,46.7h61.9"/>
<path class="st8" d="M18.2,71v8.1c0,0.3,0,0.6,0.1,0.8c0.1,0.3,0.1,0.5,0.2,0.8c0.1,0.3,0.2,0.5,0.4,0.7s0.3,0.4,0.5,0.6
	s0.4,0.4,0.6,0.5s0.5,0.3,0.7,0.4c0.3,0.1,0.5,0.2,0.8,0.2c0.3,0.1,0.6,0.1,0.8,0.1h122c0.3,0,0.6,0,0.8-0.1s0.5-0.1,0.8-0.2
	c0.3-0.1,0.5-0.2,0.7-0.4c0.2-0.2,0.4-0.3,0.6-0.5s0.4-0.4,0.5-0.6c0.2-0.2,0.3-0.5,0.4-0.7c0.1-0.3,0.2-0.5,0.2-0.8
	c0.1-0.3,0.1-0.6,0.1-0.8V71H18.2z"/>
<path class="st1" d="M66.2,71.3v0.9c0,0.3,0,0.6,0.1,0.8c0.1,0.3,0.1,0.5,0.2,0.8c0.1,0.3,0.2,0.5,0.4,0.7s0.3,0.4,0.5,0.6
	s0.4,0.4,0.6,0.5c0.2,0.2,0.5,0.3,0.7,0.4c0.3,0.1,0.5,0.2,0.8,0.2c0.3,0.1,0.6,0.1,0.8,0.1h26.1c0.3,0,0.6,0,0.8-0.1
	c0.3-0.1,0.5-0.1,0.8-0.2c0.3-0.1,0.5-0.2,0.7-0.4s0.4-0.3,0.6-0.5c0.2-0.2,0.4-0.4,0.5-0.6c0.2-0.2,0.3-0.5,0.4-0.7
	c0.1-0.3,0.2-0.5,0.2-0.8c0.1-0.3,0.1-0.6,0.1-0.8v-0.9H66.2z"/>
<path class="st1" d="M18.2,79.1c0,0.3,0,0.6,0.1,0.8c0.1,0.3,0.1,0.5,0.2,0.8c0.1,0.3,0.2,0.5,0.4,0.7s0.3,0.4,0.5,0.6
	s0.4,0.4,0.6,0.5s0.5,0.3,0.7,0.4c0.3,0.1,0.5,0.2,0.8,0.2c0.3,0.1,0.6,0.1,0.8,0.1h122c0.3,0,0.6,0,0.8-0.1s0.5-0.1,0.8-0.2
	c0.3-0.1,0.5-0.2,0.7-0.4c0.2-0.2,0.4-0.3,0.6-0.5s0.4-0.4,0.5-0.6c0.2-0.2,0.3-0.5,0.4-0.7c0.1-0.3,0.2-0.5,0.2-0.8
	c0.1-0.3,0.1-0.6,0.1-0.8v0L18.2,79.1L18.2,79.1z"/>
<path class="st9" d="M18.2,71v8.1c0,0.3,0,0.6,0.1,0.8c0.1,0.3,0.1,0.5,0.2,0.8c0.1,0.3,0.2,0.5,0.4,0.7c0.2,0.2,0.3,0.4,0.5,0.6
	c0.2,0.2,0.4,0.4,0.6,0.5c0.2,0.2,0.5,0.3,0.7,0.4c0.3,0.1,0.5,0.2,0.8,0.2c0.3,0.1,0.6,0.1,0.8,0.1h122c0.3,0,0.6,0,0.8-0.1
	c0.3-0.1,0.5-0.1,0.8-0.2c0.3-0.1,0.5-0.2,0.7-0.4c0.2-0.2,0.4-0.3,0.6-0.5s0.4-0.4,0.5-0.6c0.2-0.2,0.3-0.5,0.4-0.7
	c0.1-0.3,0.2-0.5,0.2-0.8c0.1-0.3,0.1-0.6,0.1-0.8V71H18.2z"/>
<path class="st9" d="M137.5,71V5.5c0-0.3,0-0.6-0.1-0.8c-0.1-0.3-0.1-0.5-0.2-0.8c-0.1-0.3-0.2-0.5-0.4-0.7
	c-0.2-0.2-0.3-0.4-0.5-0.6c-0.2-0.2-0.4-0.4-0.6-0.5c-0.2-0.2-0.5-0.3-0.7-0.4c-0.3-0.1-0.5-0.2-0.8-0.2c-0.3-0.1-0.6-0.1-0.8-0.1
	H33.7c-0.3,0-0.6,0-0.8,0.1c-0.3,0.1-0.5,0.1-0.8,0.2c-0.3,0.1-0.5,0.2-0.7,0.4c-0.2,0.2-0.4,0.3-0.6,0.5c-0.2,0.2-0.4,0.4-0.5,0.6
	c-0.2,0.2-0.3,0.5-0.4,0.7c-0.1,0.3-0.2,0.5-0.2,0.8c-0.1,0.3-0.1,0.6-0.1,0.8V71H137.5z"/>
<path class="st5" d="M29.4,20.5h23.5"/>
<path class="st5" d="M29.4,28.4h23.5"/>
<path class="st5" d="M29.4,36.4h23.5"/>
<path class="st5" d="M29.4,44.3h23.5"/>
<path class="st10" d="M4.6,51.4h44.6c0.5,0,1,0.1,1.4,0.3c0.4,0.2,0.8,0.5,1.2,0.8s0.6,0.7,0.8,1.2c0.2,0.5,0.3,0.9,0.3,1.4v89.5
	c0,0.5-0.1,1-0.3,1.4c-0.2,0.4-0.5,0.8-0.8,1.2s-0.7,0.6-1.2,0.8s-0.9,0.3-1.4,0.3H4.6c-0.5,0-1-0.1-1.4-0.3
	c-0.4-0.2-0.8-0.5-1.2-0.8s-0.6-0.7-0.8-1.2c-0.2-0.5-0.3-0.9-0.3-1.4V55.1c0-0.5,0.1-1,0.3-1.4c0.2-0.4,0.5-0.8,0.8-1.2
	s0.7-0.6,1.2-0.8C3.7,51.5,4.2,51.4,4.6,51.4z"/>
<path class="st11" d="M47.8,144.7c0,2-1.3,3.7-2.9,3.7H9c-1.6,0-2.9-1.6-2.9-3.7V55.1c0-2,1.3-3.7,2.9-3.7h35.8
	c1.6,0,2.9,1.6,2.9,3.7L47.8,144.7z"/>
<g>
	<defs>
		<rect id="SVGID_1_" y="50" width="54" height="99.2"/>
	</defs>
	<clipPath id="SVGID_2_">
		<use xlink:href="#SVGID_1_"  style="overflow:visible;"/>
	</clipPath>
	<g class="st12">
		<path class="st13" d="M4.6,51.4h44.6c0.5,0,1,0.1,1.4,0.3c0.4,0.2,0.8,0.5,1.2,0.8s0.6,0.7,0.8,1.2c0.2,0.5,0.3,0.9,0.3,1.4v89.5
			c0,0.5-0.1,1-0.3,1.4c-0.2,0.4-0.5,0.8-0.8,1.2s-0.7,0.6-1.2,0.8c-0.4,0.2-0.9,0.3-1.4,0.3H4.6c-0.5,0-1-0.1-1.4-0.3
			c-0.4-0.2-0.8-0.5-1.2-0.8c-0.3-0.3-0.6-0.7-0.8-1.2c-0.2-0.5-0.3-0.9-0.3-1.4V55.1c0-0.5,0.1-1,0.3-1.4c0.2-0.4,0.5-0.8,0.8-1.2
			c0.3-0.3,0.7-0.6,1.2-0.8C3.7,51.5,4.2,51.4,4.6,51.4z"/>
	</g>
</g>
<path class="st3" d="M1,63.2h51.9v73.4H1V63.2z"/>
<path class="st14" d="M6.1,63.2h41.7v73.4H6.1V63.2z"/>
<path class="st8" d="M1,63.2h51.9v12.5H1V63.2z"/>
<path class="st3" d="M6.1,63.2h41.7v12.5H6.1V63.2z"/>
<path class="st5" d="M1,63.2h51.9v12.5H1V63.2z"/>
<path class="st5" d="M1,63.2h51.9v73.4H1V63.2z"/>
<path class="st14" d="M23.3,139.9h7.4c0.3,0,0.5,0.1,0.8,0.2c0.2,0.1,0.5,0.2,0.7,0.4c0.2,0.2,0.3,0.4,0.4,0.7
	c0.1,0.2,0.2,0.5,0.2,0.8v1.4c0,0.3-0.1,0.5-0.2,0.8c-0.1,0.2-0.2,0.5-0.4,0.7c-0.2,0.2-0.4,0.3-0.7,0.4c-0.2,0.1-0.5,0.2-0.8,0.2
	h-7.4c-0.3,0-0.5-0.1-0.8-0.2c-0.2-0.1-0.5-0.2-0.7-0.4c-0.2-0.2-0.3-0.4-0.4-0.7c-0.1-0.2-0.2-0.5-0.2-0.8V142
	c0-0.3,0.1-0.5,0.2-0.8c0.1-0.2,0.2-0.5,0.4-0.7c0.2-0.2,0.4-0.3,0.7-0.4C22.7,140,23,139.9,23.3,139.9z"/>
<path class="st14" d="M36.2,57.5c0,0.2-0.1,0.4-0.2,0.6c-0.1,0.1-0.3,0.2-0.5,0.2h-17c-0.2,0-0.4-0.1-0.5-0.2
	c-0.2-0.2-0.2-0.3-0.2-0.6s0.1-0.4,0.2-0.5c0.2-0.2,0.3-0.2,0.5-0.2h17c0.2,0,0.4,0.1,0.6,0.2S36.2,57.2,36.2,57.5L36.2,57.5z"/>
<path class="st14" d="M46.1,57.5c0,0.2,0,0.3-0.1,0.5c-0.1,0.2-0.2,0.3-0.3,0.4c-0.1,0.1-0.3,0.2-0.4,0.3c-0.2,0.1-0.3,0.1-0.5,0.1
	c-0.2,0-0.3,0-0.5-0.1c-0.2-0.1-0.3-0.2-0.4-0.3c-0.1-0.1-0.2-0.3-0.3-0.4c-0.1-0.2-0.1-0.3-0.1-0.5s0-0.3,0.1-0.5
	c0.1-0.2,0.2-0.3,0.3-0.4c0.1-0.1,0.3-0.2,0.4-0.3c0.2-0.1,0.3-0.1,0.5-0.1c0.2,0,0.3,0,0.5,0.1c0.2,0.1,0.3,0.2,0.4,0.3
	c0.1,0.1,0.2,0.3,0.3,0.4C46.1,57.1,46.1,57.3,46.1,57.5z"/>
<path class="st5" d="M10.4,69.4c0,0.4-0.1,0.7-0.2,1.1c-0.1,0.3-0.3,0.6-0.6,0.9S9,71.9,8.7,72c-0.3,0.1-0.7,0.2-1.1,0.2
	S6.9,72.2,6.5,72c-0.3-0.1-0.6-0.3-0.9-0.6c-0.3-0.3-0.5-0.6-0.6-0.9s-0.2-0.7-0.2-1.1s0.1-0.7,0.2-1.1c0.1-0.3,0.3-0.6,0.6-0.9
	c0.3-0.3,0.6-0.5,0.9-0.6c0.3-0.1,0.7-0.2,1.1-0.2s0.7,0.1,1.1,0.2C9,67,9.3,67.2,9.6,67.5s0.5,0.6,0.6,0.9
	C10.3,68.7,10.4,69.1,10.4,69.4z"/>
<path class="st5" d="M8,69.4c0,0.1,0,0.2-0.1,0.3c-0.1,0.1-0.2,0.1-0.3,0.1s-0.2,0-0.3-0.1c-0.1-0.1-0.1-0.2-0.1-0.3s0-0.2,0.1-0.3
	c0.1-0.1,0.2-0.1,0.3-0.1s0.2,0,0.3,0.1C7.9,69.2,8,69.3,8,69.4z"/>
<path class="st5" d="M44.8,67h4.3"/>
<path class="st5" d="M44.8,69.4h4.3"/>
<path class="st5" d="M44.8,71.8h4.3"/>
<path class="st7" d="M44,97.3v0.6h-0.6"/>
<path class="st4" d="M42.2,98.5H41v-1.2h1.2 M39.8,98.5h-1.2v-1.2h1.2 M37.3,98.5h-1.2v-1.2h1.2 M34.9,98.5h-1.2v-1.2h1.2
	 M32.4,98.5h-1.2v-1.2h1.2 M30,98.5h-1.2v-1.2H30 M27.6,98.5h-1.2v-1.2h1.2 M25.1,98.5h-1.2v-1.2h1.2 M22.7,98.5h-1.2v-1.2h1.2
	 M20.2,98.5H19v-1.2h1.2 M17.8,98.5h-1.2v-1.2h1.2 M15.4,98.5h-1.2v-1.2h1.2 M12.9,98.5h-1.2v-1.2h1.2"/>
<path class="st7" d="M10.5,97.9H9.9v-0.6"/>
<path class="st4" d="M9.3,96.1v-1.2h1.2v1.2 M9.3,93.6v-1.2h1.2v1.2 M9.3,91.1v-1.2h1.2v1.2 M9.3,88.6v-1.2h1.2v1.2 M9.3,86.2v-1.2
	h1.2v1.2 M9.3,83.7v-1.2h1.2v1.2"/>
<path class="st7" d="M9.9,81.2v-0.6h0.6"/>
<path class="st4" d="M11.7,80h1.2v1.2h-1.2 M14.1,80h1.2v1.2h-1.2 M16.6,80h1.2v1.2h-1.2 M19,80h1.2v1.2H19 M21.5,80h1.2v1.2h-1.2
	 M23.9,80h1.2v1.2h-1.2 M26.3,80h1.2v1.2h-1.2 M28.8,80H30v1.2h-1.2 M31.2,80h1.2v1.2h-1.2 M33.7,80h1.2v1.2h-1.2 M36.1,80h1.2v1.2
	h-1.2 M38.5,80h1.2v1.2h-1.2 M41,80h1.2v1.2H41"/>
<path class="st7" d="M43.4,80.6H44v0.6"/>
<path class="st4" d="M44.6,82.4v1.2h-1.2v-1.2 M44.6,84.9v1.2h-1.2v-1.2 M44.6,87.4v1.2h-1.2v-1.2 M44.6,89.9v1.2h-1.2v-1.2
	 M44.6,92.3v1.2h-1.2v-1.2 M44.6,94.8V96h-1.2v-1.2"/>
<path class="st7" d="M23.3,130.1v0.6h-0.6"/>
<path class="st4" d="M21.6,131.3h-1.1v-1.2h1.1 M19.4,131.3h-1.1v-1.2h1.1 M17.2,131.3H16v-1.2h1.1 M14.9,131.3h-1.1v-1.2h1.1
	 M12.7,131.3h-1.1v-1.2h1.1"/>
<path class="st7" d="M10.5,130.7H9.9v-0.6"/>
<path class="st4" d="M9.3,128.9v-1.2h1.2v1.2 M9.3,126.6v-1.1h1.2v1.1 M9.3,124.3v-1.2h1.2v1.2 M9.3,122v-1.2h1.2v1.2 M9.3,119.7
	v-1.2h1.2v1.2"/>
<path class="st7" d="M9.9,117.4v-0.6h0.6"/>
<path class="st4" d="M11.6,116.2h1.1v1.2h-1.1 M13.8,116.2h1.1v1.2h-1.1 M16,116.2h1.1v1.2H16 M18.3,116.2h1.1v1.2h-1.1 M20.5,116.2
	h1.1v1.2h-1.1"/>
<path class="st7" d="M22.7,116.8h0.6v0.6"/>
<path class="st4" d="M23.9,118.5v1.2h-1.2v-1.2 M23.9,120.9v1.2h-1.2v-1.2 M23.9,123.2v1.2h-1.2v-1.2 M23.9,125.5v1.2h-1.2v-1.2
	 M23.9,127.8v1.2h-1.2v-1.2"/>
<path class="st7" d="M44,130.1v0.6h-0.6"/>
<path class="st4" d="M42.3,131.3h-1.1v-1.2h1.1 M40.1,131.3H39v-1.2h1.1 M37.9,131.3h-1.1v-1.2h1.1 M35.6,131.3h-1.1v-1.2h1.1
	 M33.4,131.3h-1.1v-1.2h1.1"/>
<path class="st7" d="M31.2,130.7h-0.6v-0.6"/>
<path class="st4" d="M30,128.9v-1.2h1.2v1.2 M30,126.6v-1.1h1.2v1.1 M30,124.3v-1.2h1.2v1.2 M30,122v-1.2h1.2v1.2 M30,119.7v-1.2
	h1.2v1.2"/>
<path class="st7" d="M30.6,117.4v-0.6h0.6"/>
<path class="st4" d="M32.3,116.2h1.1v1.2h-1.1 M34.5,116.2h1.1v1.2h-1.1 M36.7,116.2h1.1v1.2h-1.1 M39,116.2h1.1v1.2H39 M41.2,116.2
	h1.1v1.2h-1.1"/>
<path class="st7" d="M43.4,116.8H44v0.6"/>
<path class="st4" d="M44.6,118.5v1.2h-1.2v-1.2 M44.6,120.9v1.2h-1.2v-1.2 M44.6,123.2v1.2h-1.2v-1.2 M44.6,125.5v1.2h-1.2v-1.2
	 M44.6,127.8v1.2h-1.2v-1.2"/>
<path class="st7" d="M8.7,104.2h36.5"/>
<path class="st7" d="M8.7,107.9h36.5"/>
<path class="st7" d="M8.7,111.7h36.5"/>
<path class="st7" d="M19.9,35.4h2.2v2.2"/>
<path class="st7" d="M18.1,39.5l4-4"/>
<path class="st7" d="M14.2,45.7H12v-2.2"/>
<path class="st7" d="M16,41.6l-4,4"/>
<path class="st7" d="M22.2,43.4v2.2H20"/>
<path class="st7" d="M18.1,41.6l4,4"/>
<path class="st7" d="M11.9,37.7v-2.2h2.2"/>
<path class="st7" d="M16,39.5l-4-4"/>
<path class="st7" d="M66.2,92.4H64v-2.2"/>
<path class="st7" d="M68,88.3l-4,4"/>
<path class="st7" d="M59.5,94.5h2.2v2.2"/>
<path class="st7" d="M57.7,98.5l4-4"/>
<path class="st7" d="M61.8,90.1v2.2h-2.2"/>
<path class="st7" d="M57.7,88.3l4,4"/>
<path class="st7" d="M63.9,96.7v-2.2h2.2"/>
<path class="st7" d="M68,98.5l-4-4"/>
<g>
	<defs>
		<rect id="SVGID_3_" x="40" y="70" width="90" height="79.2"/>
	</defs>
	<clipPath id="SVGID_4_">
		<use xlink:href="#SVGID_3_"  style="overflow:visible;"/>
	</clipPath>
	<g class="st15">
		<path class="st7" d="M57.7,142.7l55-55.1"/>
	</g>
</g>
<path class="st4" d="M57.6,131.5l0.9-0.9l0.9,0.9l-0.9,0.9 M59.3,129.8l0.9-0.9l0.9,0.9l-0.9,0.9 M61,128.1l0.9-0.9l0.9,0.9
	l-0.9,0.9 M62.7,126.4l0.9-0.9l0.9,0.9l-0.9,0.9 M64.4,124.7l0.9-0.9l0.9,0.9l-0.9,0.9 M66.1,123l0.9-0.9l0.9,0.9l-0.9,0.9
	 M67.8,121.3l0.9-0.9l0.9,0.9l-0.9,0.9 M69.5,119.6l0.9-0.9l0.9,0.9l-0.9,0.9 M71.2,117.9l0.9-0.9l0.9,0.9l-0.9,0.9 M72.9,116.2
	l0.9-0.9l0.9,0.9l-0.9,0.9 M74.6,114.5l0.9-0.9l0.9,0.9l-0.9,0.9 M76.3,112.8l0.9-0.9l0.9,0.9l-0.9,0.9 M78,111.1l0.9-0.9l0.9,0.9
	l-0.9,0.9 M79.7,109.3l0.9-0.9l0.9,0.9l-0.9,0.9 M81.4,107.6l0.9-0.9l0.9,0.9l-0.9,0.9 M83.1,105.9l0.9-0.9l0.9,0.9l-0.9,0.9
	 M84.9,104.2l0.9-0.9l0.9,0.9l-0.9,0.9 M86.6,102.5l0.9-0.9l0.9,0.9l-0.9,0.9 M88.3,100.8l0.9-0.9l0.9,0.9l-0.9,0.9 M90,99.1
	l0.9-0.9l0.9,0.9l-0.9,0.9 M91.7,97.4l0.9-0.9l0.9,0.9l-0.9,0.9 M93.4,95.7l0.9-0.9l0.9,0.9l-0.9,0.9 M95.1,94l0.9-0.9l0.9,0.9
	l-0.9,0.9 M96.8,92.3l0.9-0.9l0.9,0.9l-0.9,0.9 M98.5,90.6l0.9-0.9l0.9,0.9l-0.9,0.9 M100.2,88.9L101,88l0.9,0.9l-0.9,0.9"/>
<path class="st7" d="M58,121.5l33.9-34"/>
<path class="st4" d="M58.2,110.1l0.9-0.9l0.9,0.9l-0.9,0.9 M59.9,108.4l0.9-0.9l0.9,0.9l-0.9,0.9 M61.6,106.7l0.9-0.9l0.9,0.9
	l-0.9,0.9 M63.3,105l0.9-0.9L65,105l-0.9,0.9 M65,103.3l0.9-0.9l0.9,0.9l-0.9,0.9 M66.7,101.6l0.9-0.9l0.9,0.9l-0.9,0.9 M68.4,99.9
	l0.9-0.9l0.9,0.9l-0.9,0.9 M70.1,98.2l0.9-0.9l0.9,0.9L71,99 M71.8,96.4l0.9-0.9l0.9,0.9l-0.9,0.9 M73.5,94.7l0.9-0.9l0.9,0.9
	l-0.9,0.9 M75.2,93l0.9-0.9l0.9,0.9l-0.9,0.9 M76.9,91.3l0.9-0.9l0.9,0.9l-0.9,0.9 M78.6,89.6l0.9-0.9l0.9,0.9l-0.9,0.9 M80.3,87.9
	l0.3-0.3l0.9,0.9l-0.3,0.3"/>
<path class="st16" d="M11.7,24.3c-0.3,0-0.5,0-0.8,0.1c-0.3,0.1-0.5,0.1-0.8,0.2c-0.2,0.1-0.5,0.2-0.7,0.4c-0.2,0.2-0.4,0.3-0.6,0.5
	c-0.2,0.2-0.4,0.4-0.5,0.6c-0.2,0.2-0.3,0.5-0.4,0.7c-0.1,0.2-0.2,0.5-0.2,0.8c-0.1,0.3-0.1,0.5-0.1,0.8v26.9"/>
<path class="st16" d="M38.5,24.3c0-0.3-0.1-0.5-0.2-0.8c-0.1-0.2-0.2-0.5-0.4-0.7c-0.2-0.2-0.4-0.3-0.7-0.4
	c-0.3-0.1-0.5-0.2-0.8-0.2c-0.3,0-0.5,0.1-0.8,0.2c-0.2,0.1-0.5,0.3-0.7,0.4c-0.2,0.2-0.3,0.4-0.4,0.7c-0.1,0.2-0.2,0.5-0.2,0.8
	c0,0.3,0.1,0.5,0.2,0.8c0.1,0.3,0.2,0.5,0.4,0.7c0.2,0.2,0.4,0.3,0.7,0.4c0.2,0.1,0.5,0.2,0.8,0.2c0.3,0,0.5-0.1,0.8-0.2
	c0.2-0.1,0.5-0.3,0.7-0.4c0.2-0.2,0.3-0.4,0.4-0.7C38.5,24.8,38.5,24.5,38.5,24.3z"/>
<path class="st16" d="M9.7,56.7c0-0.3-0.1-0.5-0.2-0.8c-0.1-0.2-0.3-0.5-0.4-0.7c-0.2-0.2-0.4-0.3-0.7-0.4c-0.2-0.1-0.5-0.2-0.8-0.2
	c-0.3,0-0.5,0.1-0.8,0.2c-0.2,0.1-0.5,0.3-0.7,0.4c-0.2,0.2-0.3,0.4-0.4,0.7c-0.1,0.3-0.2,0.5-0.2,0.8c0,0.3,0.1,0.5,0.2,0.8
	c0.1,0.3,0.2,0.5,0.4,0.7c0.2,0.2,0.4,0.3,0.7,0.4c0.3,0.1,0.5,0.2,0.8,0.2c0.3,0,0.5-0.1,0.8-0.2c0.2-0.1,0.5-0.3,0.7-0.4
	c0.2-0.2,0.3-0.4,0.4-0.7C9.6,57.2,9.7,57,9.7,56.7z"/>
<path class="st8" d="M34.5,24.9h-1.2v-1.2h1.2 M32,24.9h-1.2v-1.2H32 M29.6,24.9h-1.2v-1.2h1.2 M27.2,24.9H26v-1.2h1.2 M24.8,24.9
	h-1.2v-1.2h1.2 M22.4,24.9h-1.2v-1.2h1.2 M20,24.9h-1.2v-1.2H20 M17.6,24.9h-1.2v-1.2h1.2 M15.2,24.9H14v-1.2h1.2 M12.8,24.9h-1
	v-1.2h1"/>
<path class="st16" d="M78.3,107.9c0.3,0,0.5,0,0.8-0.1c0.3-0.1,0.5-0.1,0.8-0.2c0.2-0.1,0.5-0.2,0.7-0.4c0.2-0.1,0.4-0.3,0.6-0.5
	c0.2-0.2,0.4-0.4,0.5-0.6c0.1-0.2,0.3-0.5,0.4-0.7c0.1-0.2,0.2-0.5,0.2-0.8c0.1-0.3,0.1-0.5,0.1-0.8V76.9"/>
<path class="st16" d="M24.9,107.9c0,0.3,0.1,0.5,0.2,0.8c0.1,0.3,0.3,0.5,0.4,0.7c0.2,0.2,0.4,0.3,0.7,0.4c0.2,0.1,0.5,0.2,0.8,0.2
	c0.3,0,0.5-0.1,0.8-0.2c0.2-0.1,0.5-0.3,0.7-0.4c0.2-0.2,0.3-0.4,0.4-0.7c0.1-0.2,0.2-0.5,0.2-0.8c0-0.3-0.1-0.5-0.2-0.8
	c-0.1-0.2-0.3-0.5-0.4-0.7c-0.2-0.2-0.4-0.3-0.7-0.4c-0.2-0.1-0.5-0.2-0.8-0.2c-0.3,0-0.5,0.1-0.8,0.2c-0.3,0.1-0.5,0.3-0.7,0.4
	c-0.2,0.2-0.3,0.4-0.4,0.7C25,107.4,24.9,107.7,24.9,107.9z"/>
<path class="st16" d="M80.4,75.5c0,0.3,0.1,0.5,0.2,0.8c0.1,0.2,0.2,0.5,0.4,0.7c0.2,0.2,0.4,0.3,0.7,0.4c0.2,0.1,0.5,0.2,0.8,0.2
	c0.3,0,0.5-0.1,0.8-0.2c0.2-0.1,0.5-0.3,0.7-0.4c0.2-0.2,0.3-0.4,0.4-0.7c0.1-0.3,0.2-0.5,0.2-0.8c0-0.3-0.1-0.5-0.2-0.8
	c-0.1-0.2-0.3-0.5-0.4-0.7c-0.2-0.2-0.4-0.3-0.7-0.4c-0.3-0.1-0.5-0.2-0.8-0.2c-0.3,0-0.5,0.1-0.8,0.2c-0.3,0.1-0.5,0.3-0.7,0.4
	c-0.2,0.2-0.3,0.4-0.4,0.7C80.4,75,80.4,75.3,80.4,75.5z"/>
<path class="st8" d="M29,107.3h1.2v1.2H29 M31.4,107.3h1.2v1.2h-1.2 M33.8,107.3H35v1.2h-1.2 M36.2,107.3h1.2v1.2h-1.2 M38.6,107.3
	h1.2v1.2h-1.2 M41,107.3h1.2v1.2H41 M43.4,107.3h1.2v1.2h-1.2 M45.9,107.3h1.2v1.2h-1.2 M48.3,107.3h1.2v1.2h-1.2 M50.7,107.3h1.2
	v1.2h-1.2 M53.1,107.3h1.2v1.2h-1.2 M55.5,107.3h1.2v1.2h-1.2 M57.9,107.3h1.2v1.2h-1.2 M60.3,107.3h1.2v1.2h-1.2 M62.7,107.3h1.2
	v1.2h-1.2 M65.1,107.3h1.2v1.2h-1.2 M67.5,107.3h1.2v1.2h-1.2 M69.9,107.3h1.2v1.2h-1.2 M72.4,107.3h1.2v1.2h-1.2 M74.8,107.3H76
	v1.2h-1.2 M77.2,107.3h1.1v1.2h-1.1"/>
<path class="st7" d="M79.7,99.7c0.7,0,1.4,0.1,2.1,0.2c0.7,0.1,1.3,0.3,2,0.6c0.6,0.3,1.2,0.6,1.8,1s1.1,0.8,1.6,1.3s0.9,1,1.3,1.6
	c0.4,0.6,0.7,1.2,1,1.8c0.3,0.6,0.5,1.3,0.6,2c0.1,0.7,0.2,1.4,0.2,2.1"/>
<path class="st7" d="M79.7,120.9c-0.7,0-1.4-0.1-2.1-0.2c-0.7-0.1-1.3-0.3-2-0.6c-0.6-0.3-1.3-0.6-1.8-1c-0.6-0.4-1.1-0.8-1.6-1.3
	c-0.5-0.5-0.9-1-1.3-1.6c-0.4-0.6-0.7-1.2-1-1.8c-0.3-0.6-0.5-1.3-0.6-2s-0.2-1.4-0.2-2.1"/>
<path class="st7" d="M83.5,110.3c0,0.5-0.1,1-0.3,1.4c-0.2,0.5-0.5,0.9-0.8,1.2c-0.3,0.4-0.8,0.6-1.2,0.8c-0.5,0.2-0.9,0.3-1.4,0.3"
	/>
<path class="st7" d="M76,110.3c0-0.5,0.1-1,0.3-1.4c0.2-0.5,0.5-0.9,0.8-1.2c0.4-0.4,0.8-0.6,1.2-0.8c0.5-0.2,0.9-0.3,1.4-0.3"/>
<path class="st7" d="M20.2,4.1v1.8"/>
<path class="st7" d="M20.2,8.6v8.7"/>
<path class="st7" d="M14.2,15.5v1.9"/>
<path class="st7" d="M14.8,20.2h-1.2"/>
<path class="st7" d="M20.8,20.2h-1.2"/>
<path class="st7" d="M8.7,20.2H7.5"/>
<path class="st7" d="M14.2,4.1v8.6"/>
<path class="st7" d="M8.1,11.3v6"/>
<path class="st7" d="M8.1,4.1v4.5"/>
<path class="st7" d="M10.2,10.1c0,0.2,0,0.3-0.1,0.5c-0.1,0.2-0.2,0.3-0.3,0.4c-0.1,0.1-0.2,0.2-0.4,0.3c-0.2,0.1-0.3,0.1-0.5,0.1
	H7.2c-0.2,0-0.3,0-0.5-0.1c-0.2-0.1-0.3-0.2-0.4-0.3c-0.1-0.1-0.2-0.3-0.3-0.4C6,10.4,6,10.2,6,10.1c0-0.2,0-0.3,0.1-0.5
	c0.1-0.2,0.2-0.3,0.3-0.4C6.5,9.1,6.6,9,6.8,8.9c0.2-0.1,0.3-0.1,0.5-0.1H9c0.2,0,0.3,0,0.5,0.1C9.6,9,9.8,9.1,9.9,9.2
	c0.1,0.1,0.2,0.2,0.3,0.4C10.2,9.7,10.2,9.9,10.2,10.1z"/>
<path class="st7" d="M16.3,14.1c0,0.2,0,0.3-0.1,0.5c-0.1,0.2-0.2,0.3-0.3,0.4c-0.1,0.1-0.3,0.2-0.4,0.3c-0.2,0.1-0.3,0.1-0.5,0.1
	h-1.8c-0.2,0-0.3,0-0.5-0.1c-0.2-0.1-0.3-0.2-0.4-0.3c-0.1-0.1-0.2-0.2-0.3-0.4c-0.1-0.2-0.1-0.3-0.1-0.5c0-0.2,0-0.3,0.1-0.5
	c0.1-0.2,0.2-0.3,0.3-0.4c0.1-0.1,0.3-0.2,0.4-0.3c0.2-0.1,0.3-0.1,0.5-0.1h1.8c0.2,0,0.3,0,0.5,0.1c0.2,0.1,0.3,0.2,0.4,0.3
	c0.1,0.1,0.2,0.2,0.3,0.4C16.3,13.8,16.3,13.9,16.3,14.1z"/>
<path class="st7" d="M22.4,7.3c0,0.2,0,0.3-0.1,0.5C22.2,8,22.1,8.1,22,8.2c-0.1,0.1-0.3,0.2-0.4,0.3c-0.2,0.1-0.3,0.1-0.5,0.1h-1.8
	c-0.2,0-0.3,0-0.5-0.1c-0.2-0.1-0.3-0.2-0.4-0.3c-0.1-0.1-0.2-0.2-0.3-0.4c-0.1-0.2-0.1-0.3-0.1-0.5c0-0.2,0-0.3,0.1-0.5
	c0.1-0.2,0.2-0.3,0.3-0.4c0.1-0.1,0.3-0.2,0.4-0.3c0.2-0.1,0.3-0.1,0.5-0.1h1.8c0.2,0,0.3,0,0.5,0.1c0.2,0.1,0.3,0.2,0.4,0.3
	c0.1,0.1,0.2,0.3,0.3,0.4C22.3,7,22.4,7.2,22.4,7.3z"/>
<g>
	<defs>
		<rect id="SVGID_5_" x="87" y="91" width="63" height="58.2"/>
	</defs>
	<clipPath id="SVGID_6_">
		<use xlink:href="#SVGID_5_"  style="overflow:visible;"/>
	</clipPath>
	<g class="st17">
		<path class="st7" d="M126.7,142.7v-7c1.3-0.7,2.4-1.6,3.4-2.6c1-1,1.9-2.2,2.6-3.5c0.7-1.3,1.2-2.6,1.5-4c0.3-1.4,0.4-2.9,0.3-4.3
			c-0.1-1.4-0.4-2.8-0.9-4.2c-0.5-1.4-1.2-2.6-2.1-3.8c-0.9-1.2-1.9-2.2-3.1-3c-1.2-0.9-2.4-1.5-3.8-2v12.9l-5.2,3l-5.2-3v-13
			c-1.4,0.5-2.6,1.2-3.8,2c-1.2,0.9-2.2,1.9-3.1,3c-0.9,1.2-1.6,2.4-2.1,3.8c-0.5,1.4-0.8,2.8-0.9,4.2s0,2.9,0.3,4.3
			c0.3,1.4,0.8,2.8,1.5,4.1c0.7,1.3,1.6,2.4,2.6,3.5c1,1,2.2,1.9,3.5,2.6v7"/>
	</g>
</g>
<path class="st7" d="M126.7,140.9V132"/>
<path class="st7" d="M112,132v8.9"/>
<path class="st7" d="M121.3,119l-1.9,1.1l-1.9-1.1v-2.2l1.9-1.1l1.9,1.1V119z"/>
<path class="st7" d="M119.4,87.1V111"/>
<path class="st7" d="M119.4,113v0.7"/>
<path class="st7" d="M119.4,130v1.4"/>
<path class="st7" d="M119.4,133.4v1.4"/>
<path class="st7" d="M119.4,136.8v1.4"/>
<path class="st7" d="M119.4,140.2v1.4"/>
<path class="st7" d="M81.9,142.7h55.6"/>
<path class="st7" d="M82.4,139.4v6.5"/>
<path class="st7" d="M78.3,139.4v6.5"/>
<path class="st7" d="M74.2,139.4v6.5"/>
<path class="st7" d="M70.1,139.4v6.5"/>
<path class="st7" d="M65.9,139.4v6.5"/>
<path class="st7" d="M82.4,122.8h13.7v7.1H82.4V122.8z"/>
<path class="st18" d="M82.4,133.4h21.8"/>
<path class="st18" d="M82.4,136.6h21.8"/>
<path class="st18" d="M128.7,96.4v2.1c0,0.3-0.1,0.6-0.2,0.9c-0.1,0.3-0.3,0.5-0.5,0.7c-0.2,0.2-0.5,0.4-0.7,0.5
	c-0.3,0.1-0.6,0.2-0.9,0.2c-0.3,0-0.6-0.1-0.9-0.2c-0.3-0.1-0.5-0.3-0.7-0.5c-0.2-0.2-0.4-0.5-0.5-0.7c-0.1-0.3-0.2-0.6-0.2-0.9
	V87.6"/>
<path class="st18" d="M128.7,96.2v-2.1c0-0.3,0.1-0.6,0.2-0.9c0.1-0.3,0.3-0.5,0.5-0.7c0.2-0.2,0.5-0.4,0.7-0.5
	c0.3-0.1,0.6-0.2,0.9-0.2c0.3,0,0.6,0.1,0.9,0.2c0.3,0.1,0.5,0.3,0.7,0.5c0.2,0.2,0.4,0.5,0.5,0.7c0.1,0.3,0.2,0.6,0.2,0.9V105"/>
<path class="st18" d="M137.7,105.9v2.1c0,0.3-0.1,0.6-0.2,0.9c-0.1,0.3-0.3,0.5-0.5,0.7c-0.2,0.2-0.5,0.4-0.7,0.5
	c-0.3,0.1-0.6,0.2-0.9,0.2c-0.3,0-0.6-0.1-0.9-0.2s-0.5-0.3-0.7-0.5c-0.2-0.2-0.4-0.5-0.5-0.7c-0.1-0.3-0.2-0.6-0.2-0.9V97.1"/>
<path class="st18" d="M137.7,105.7v-2.1c0-0.3,0.1-0.6,0.2-0.9c0.1-0.3,0.3-0.5,0.5-0.7c0.2-0.2,0.5-0.4,0.7-0.5
	c0.3-0.1,0.6-0.2,0.9-0.2c0.3,0,0.6,0.1,0.9,0.2c0.3,0.1,0.5,0.3,0.7,0.5c0.2,0.2,0.4,0.5,0.5,0.7c0.1,0.3,0.2,0.6,0.2,0.9v10.9"/>
<path class="st18" d="M146.8,115.5v2.1c0,0.3-0.1,0.6-0.2,0.9c-0.1,0.3-0.3,0.5-0.5,0.7c-0.2,0.2-0.5,0.4-0.7,0.5s-0.6,0.2-0.9,0.2
	c-0.3,0-0.6-0.1-0.9-0.2c-0.3-0.1-0.5-0.3-0.7-0.5c-0.2-0.2-0.4-0.5-0.5-0.7c-0.1-0.3-0.2-0.6-0.2-0.9v-10.9"/>
<path class="st4" d="M129.6,19.2c0,0.3-0.1,0.5-0.3,0.7s-0.4,0.3-0.7,0.3s-0.5-0.1-0.7-0.3s-0.3-0.4-0.3-0.7s0.1-0.5,0.3-0.7
	c0.2-0.2,0.4-0.3,0.7-0.3s0.5,0.1,0.7,0.3C129.5,18.8,129.6,19,129.6,19.2z"/>
<path class="st4" d="M133.5,19.2c0,0.3-0.1,0.5-0.3,0.7s-0.4,0.3-0.7,0.3s-0.5-0.1-0.7-0.3s-0.3-0.4-0.3-0.7s0.1-0.5,0.3-0.7
	c0.2-0.2,0.4-0.3,0.7-0.3s0.5,0.1,0.7,0.3C133.4,18.8,133.5,19,133.5,19.2z"/>
<path class="st4" d="M129.6,23.4c0,0.3-0.1,0.5-0.3,0.7s-0.4,0.3-0.7,0.3s-0.5-0.1-0.7-0.3s-0.3-0.4-0.3-0.7s0.1-0.5,0.3-0.7
	c0.2-0.2,0.4-0.3,0.7-0.3s0.5,0.1,0.7,0.3C129.5,22.9,129.6,23.2,129.6,23.4z"/>
<path class="st4" d="M133.5,23.4c0,0.3-0.1,0.5-0.3,0.7s-0.4,0.3-0.7,0.3s-0.5-0.1-0.7-0.3s-0.3-0.4-0.3-0.7s0.1-0.5,0.3-0.7
	c0.2-0.2,0.4-0.3,0.7-0.3s0.5,0.1,0.7,0.3C133.4,22.9,133.5,23.2,133.5,23.4z"/>
<path class="st4" d="M129.6,27.6c0,0.3-0.1,0.5-0.3,0.7s-0.4,0.3-0.7,0.3s-0.5-0.1-0.7-0.3s-0.3-0.4-0.3-0.7s0.1-0.5,0.3-0.7
	c0.2-0.2,0.4-0.3,0.7-0.3s0.5,0.1,0.7,0.3C129.5,27.1,129.6,27.4,129.6,27.6z"/>
<path class="st4" d="M133.5,27.6c0,0.3-0.1,0.5-0.3,0.7s-0.4,0.3-0.7,0.3s-0.5-0.1-0.7-0.3s-0.3-0.4-0.3-0.7s0.1-0.5,0.3-0.7
	c0.2-0.2,0.4-0.3,0.7-0.3s0.5,0.1,0.7,0.3C133.4,27.1,133.5,27.4,133.5,27.6z"/>
<path class="st4" d="M129.6,31.8c0,0.3-0.1,0.5-0.3,0.7s-0.4,0.3-0.7,0.3s-0.5-0.1-0.7-0.3s-0.3-0.4-0.3-0.7s0.1-0.5,0.3-0.7
	c0.2-0.2,0.4-0.3,0.7-0.3s0.5,0.1,0.7,0.3C129.5,31.3,129.6,31.5,129.6,31.8z"/>
<path class="st4" d="M133.5,31.8c0,0.3-0.1,0.5-0.3,0.7s-0.4,0.3-0.7,0.3s-0.5-0.1-0.7-0.3s-0.3-0.4-0.3-0.7s0.1-0.5,0.3-0.7
	c0.2-0.2,0.4-0.3,0.7-0.3s0.5,0.1,0.7,0.3C133.4,31.3,133.5,31.5,133.5,31.8z"/>
<path class="st4" d="M129.6,36c0,0.3-0.1,0.5-0.3,0.7s-0.4,0.3-0.7,0.3s-0.5-0.1-0.7-0.3s-0.3-0.4-0.3-0.7s0.1-0.5,0.3-0.7
	c0.2-0.2,0.4-0.3,0.7-0.3s0.5,0.1,0.7,0.3C129.5,35.5,129.6,35.7,129.6,36z"/>
<path class="st4" d="M133.5,36c0,0.3-0.1,0.5-0.3,0.7s-0.4,0.3-0.7,0.3s-0.5-0.1-0.7-0.3s-0.3-0.4-0.3-0.7s0.1-0.5,0.3-0.7
	c0.2-0.2,0.4-0.3,0.7-0.3s0.5,0.1,0.7,0.3C133.4,35.5,133.5,35.7,133.5,36z"/>
<path class="st4" d="M129.6,40.2c0,0.3-0.1,0.5-0.3,0.7s-0.4,0.3-0.7,0.3s-0.5-0.1-0.7-0.3s-0.3-0.4-0.3-0.7s0.1-0.5,0.3-0.7
	c0.2-0.2,0.4-0.3,0.7-0.3s0.5,0.1,0.7,0.3C129.5,39.7,129.6,39.9,129.6,40.2z"/>
<path class="st4" d="M133.5,40.2c0,0.3-0.1,0.5-0.3,0.7s-0.4,0.3-0.7,0.3s-0.5-0.1-0.7-0.3s-0.3-0.4-0.3-0.7s0.1-0.5,0.3-0.7
	c0.2-0.2,0.4-0.3,0.7-0.3s0.5,0.1,0.7,0.3C133.4,39.7,133.5,39.9,133.5,40.2z"/>
<path class="st4" d="M129.6,44.4c0,0.3-0.1,0.5-0.3,0.7s-0.4,0.3-0.7,0.3s-0.5-0.1-0.7-0.3s-0.3-0.4-0.3-0.7s0.1-0.5,0.3-0.7
	c0.2-0.2,0.4-0.3,0.7-0.3s0.5,0.1,0.7,0.3C129.5,43.9,129.6,44.1,129.6,44.4z"/>
<path class="st4" d="M133.5,44.4c0,0.3-0.1,0.5-0.3,0.7s-0.4,0.3-0.7,0.3s-0.5-0.1-0.7-0.3s-0.3-0.4-0.3-0.7s0.1-0.5,0.3-0.7
	c0.2-0.2,0.4-0.3,0.7-0.3s0.5,0.1,0.7,0.3C133.4,43.9,133.5,44.1,133.5,44.4z"/>
<path class="st4" d="M129.6,48.6c0,0.3-0.1,0.5-0.3,0.7s-0.4,0.3-0.7,0.3s-0.5-0.1-0.7-0.3s-0.3-0.4-0.3-0.7s0.1-0.5,0.3-0.7
	c0.2-0.2,0.4-0.3,0.7-0.3s0.5,0.1,0.7,0.3C129.5,48.1,129.6,48.3,129.6,48.6z"/>
<path class="st4" d="M133.5,48.6c0,0.3-0.1,0.5-0.3,0.7s-0.4,0.3-0.7,0.3s-0.5-0.1-0.7-0.3s-0.3-0.4-0.3-0.7s0.1-0.5,0.3-0.7
	c0.2-0.2,0.4-0.3,0.7-0.3s0.5,0.1,0.7,0.3C133.4,48.1,133.5,48.3,133.5,48.6z"/>
<path class="st4" d="M129.6,52.8c0,0.3-0.1,0.5-0.3,0.7s-0.4,0.3-0.7,0.3s-0.5-0.1-0.7-0.3s-0.3-0.4-0.3-0.7s0.1-0.5,0.3-0.7
	c0.2-0.2,0.4-0.3,0.7-0.3s0.5,0.1,0.7,0.3C129.5,52.3,129.6,52.5,129.6,52.8z"/>
<path class="st4" d="M133.5,52.8c0,0.3-0.1,0.5-0.3,0.7s-0.4,0.3-0.7,0.3s-0.5-0.1-0.7-0.3s-0.3-0.4-0.3-0.7s0.1-0.5,0.3-0.7
	c0.2-0.2,0.4-0.3,0.7-0.3s0.5,0.1,0.7,0.3C133.4,52.3,133.5,52.5,133.5,52.8z"/>
<path class="st4" d="M129.6,56.9c0,0.3-0.1,0.5-0.3,0.7s-0.4,0.3-0.7,0.3s-0.5-0.1-0.7-0.3s-0.3-0.4-0.3-0.7s0.1-0.5,0.3-0.7
	c0.2-0.2,0.4-0.3,0.7-0.3s0.5,0.1,0.7,0.3C129.5,56.5,129.6,56.7,129.6,56.9z"/>
<path class="st4" d="M133.5,56.9c0,0.3-0.1,0.5-0.3,0.7s-0.4,0.3-0.7,0.3s-0.5-0.1-0.7-0.3s-0.3-0.4-0.3-0.7s0.1-0.5,0.3-0.7
	c0.2-0.2,0.4-0.3,0.7-0.3s0.5,0.1,0.7,0.3C133.4,56.5,133.5,56.7,133.5,56.9z"/>
<path class="st4" d="M129.6,61.1c0,0.3-0.1,0.5-0.3,0.7s-0.4,0.3-0.7,0.3s-0.5-0.1-0.7-0.3s-0.3-0.4-0.3-0.7s0.1-0.5,0.3-0.7
	c0.2-0.2,0.4-0.3,0.7-0.3s0.5,0.1,0.7,0.3C129.5,60.7,129.6,60.9,129.6,61.1z"/>
<path class="st4" d="M133.5,61.1c0,0.3-0.1,0.5-0.3,0.7s-0.4,0.3-0.7,0.3s-0.5-0.1-0.7-0.3s-0.3-0.4-0.3-0.7s0.1-0.5,0.3-0.7
	c0.2-0.2,0.4-0.3,0.7-0.3s0.5,0.1,0.7,0.3C133.4,60.7,133.5,60.9,133.5,61.1z"/>
<path class="st4" d="M129.6,65.3c0,0.3-0.1,0.5-0.3,0.7s-0.4,0.3-0.7,0.3s-0.5-0.1-0.7-0.3s-0.3-0.4-0.3-0.7s0.1-0.5,0.3-0.7
	s0.4-0.3,0.7-0.3s0.5,0.1,0.7,0.3S129.6,65.1,129.6,65.3z"/>
<path class="st4" d="M133.5,65.3c0,0.3-0.1,0.5-0.3,0.7s-0.4,0.3-0.7,0.3s-0.5-0.1-0.7-0.3s-0.3-0.4-0.3-0.7s0.1-0.5,0.3-0.7
	s0.4-0.3,0.7-0.3s0.5,0.1,0.7,0.3S133.5,65.1,133.5,65.3z"/>
<path class="st16" d="M11.7,24.3c-0.3,0-0.5,0-0.8,0.1c-0.3,0.1-0.5,0.1-0.8,0.2c-0.2,0.1-0.5,0.2-0.7,0.4c-0.2,0.2-0.4,0.3-0.6,0.5
	c-0.2,0.2-0.4,0.4-0.5,0.6c-0.2,0.2-0.3,0.5-0.4,0.7c-0.1,0.2-0.2,0.5-0.2,0.8c-0.1,0.3-0.1,0.5-0.1,0.8v26.9"/>
<path class="st16" d="M38.5,24.3c0-0.3-0.1-0.5-0.2-0.8c-0.1-0.2-0.2-0.5-0.4-0.7c-0.2-0.2-0.4-0.3-0.7-0.4
	c-0.3-0.1-0.5-0.2-0.8-0.2c-0.3,0-0.5,0.1-0.8,0.2c-0.2,0.1-0.5,0.3-0.7,0.4c-0.2,0.2-0.3,0.4-0.4,0.7c-0.1,0.2-0.2,0.5-0.2,0.8
	c0,0.3,0.1,0.5,0.2,0.8c0.1,0.3,0.2,0.5,0.4,0.7c0.2,0.2,0.4,0.3,0.7,0.4c0.2,0.1,0.5,0.2,0.8,0.2c0.3,0,0.5-0.1,0.8-0.2
	c0.2-0.1,0.5-0.3,0.7-0.4c0.2-0.2,0.3-0.4,0.4-0.7C38.5,24.8,38.5,24.5,38.5,24.3z"/>
<path class="st16" d="M9.7,56.7c0-0.3-0.1-0.5-0.2-0.8c-0.1-0.2-0.3-0.5-0.4-0.7c-0.2-0.2-0.4-0.3-0.7-0.4c-0.2-0.1-0.5-0.2-0.8-0.2
	c-0.3,0-0.5,0.1-0.8,0.2c-0.2,0.1-0.5,0.3-0.7,0.4c-0.2,0.2-0.3,0.4-0.4,0.7c-0.1,0.3-0.2,0.5-0.2,0.8c0,0.3,0.1,0.5,0.2,0.8
	c0.1,0.3,0.2,0.5,0.4,0.7c0.2,0.2,0.4,0.3,0.7,0.4c0.3,0.1,0.5,0.2,0.8,0.2c0.3,0,0.5-0.1,0.8-0.2c0.2-0.1,0.5-0.3,0.7-0.4
	c0.2-0.2,0.3-0.4,0.4-0.7C9.6,57.2,9.7,57,9.7,56.7z"/>
<path class="st8" d="M34.5,24.9h-1.2v-1.2h1.2 M32,24.9h-1.2v-1.2H32 M29.6,24.9h-1.2v-1.2h1.2 M27.2,24.9H26v-1.2h1.2 M24.8,24.9
	h-1.2v-1.2h1.2 M22.4,24.9h-1.2v-1.2h1.2 M20,24.9h-1.2v-1.2H20 M17.6,24.9h-1.2v-1.2h1.2 M15.2,24.9H14v-1.2h1.2 M12.8,24.9h-1
	v-1.2h1"/>
</svg>
